%TF.GenerationSoftware,KiCad,Pcbnew,(5.1.6)-1*%
%TF.CreationDate,2020-09-25T13:44:17-07:00*%
%TF.ProjectId,555Timer,35353554-696d-4657-922e-6b696361645f,rev?*%
%TF.SameCoordinates,Original*%
%TF.FileFunction,Copper,L2,Bot*%
%TF.FilePolarity,Positive*%
%FSLAX46Y46*%
G04 Gerber Fmt 4.6, Leading zero omitted, Abs format (unit mm)*
G04 Created by KiCad (PCBNEW (5.1.6)-1) date 2020-09-25 13:44:17*
%MOMM*%
%LPD*%
G01*
G04 APERTURE LIST*
%TA.AperFunction,ComponentPad*%
%ADD10C,1.600000*%
%TD*%
%TA.AperFunction,ComponentPad*%
%ADD11O,1.600000X1.600000*%
%TD*%
%TA.AperFunction,ComponentPad*%
%ADD12R,1.600000X1.600000*%
%TD*%
%TA.AperFunction,ComponentPad*%
%ADD13R,1.800000X1.800000*%
%TD*%
%TA.AperFunction,ComponentPad*%
%ADD14C,1.800000*%
%TD*%
%TA.AperFunction,ComponentPad*%
%ADD15R,0.850000X0.850000*%
%TD*%
%TA.AperFunction,ComponentPad*%
%ADD16C,1.440000*%
%TD*%
%TA.AperFunction,Conductor*%
%ADD17C,0.250000*%
%TD*%
G04 APERTURE END LIST*
D10*
%TO.P,R2,1*%
%TO.N,Net-(R2-Pad1)*%
X144526000Y-69596000D03*
D11*
%TO.P,R2,2*%
%TO.N,Net-(R2-Pad2)*%
X154686000Y-69596000D03*
%TD*%
D12*
%TO.P,C1,1*%
%TO.N,Net-(C1-Pad1)*%
X128270000Y-88646000D03*
D10*
%TO.P,C1,2*%
%TO.N,GND*%
X125770000Y-88646000D03*
%TD*%
%TO.P,C2,1*%
%TO.N,Net-(C2-Pad1)*%
X149606000Y-80772000D03*
%TO.P,C2,2*%
%TO.N,GND*%
X154606000Y-80772000D03*
%TD*%
D13*
%TO.P,D1,1*%
%TO.N,Net-(D1-Pad1)*%
X144018000Y-87376000D03*
D14*
%TO.P,D1,2*%
%TO.N,Net-(D1-Pad2)*%
X141478000Y-87376000D03*
%TD*%
D15*
%TO.P,J1,1*%
%TO.N,Net-(D1-Pad2)*%
X135128000Y-87376000D03*
%TD*%
D11*
%TO.P,R3,2*%
%TO.N,Net-(R2-Pad2)*%
X144526000Y-73406000D03*
D10*
%TO.P,R3,1*%
%TO.N,+5V*%
X154686000Y-73406000D03*
%TD*%
D16*
%TO.P,RV1,3*%
%TO.N,Net-(RV1-Pad3)*%
X120650000Y-68580000D03*
%TO.P,RV1,2*%
%TO.N,Net-(R2-Pad1)*%
X123190000Y-68580000D03*
%TO.P,RV1,1*%
%TO.N,Net-(C1-Pad1)*%
X125730000Y-68580000D03*
%TD*%
D12*
%TO.P,U1,1*%
%TO.N,GND*%
X130048000Y-82550000D03*
D11*
%TO.P,U1,5*%
%TO.N,Net-(C2-Pad1)*%
X137668000Y-74930000D03*
%TO.P,U1,2*%
%TO.N,Net-(C1-Pad1)*%
X132588000Y-82550000D03*
%TO.P,U1,6*%
X135128000Y-74930000D03*
%TO.P,U1,3*%
%TO.N,Net-(D1-Pad2)*%
X135128000Y-82550000D03*
%TO.P,U1,7*%
%TO.N,Net-(R2-Pad2)*%
X132588000Y-74930000D03*
%TO.P,U1,4*%
%TO.N,+5V*%
X137668000Y-82550000D03*
%TO.P,U1,8*%
X130048000Y-74930000D03*
%TD*%
D15*
%TO.P,J2,1*%
%TO.N,GND*%
X121920000Y-84836000D03*
%TD*%
%TO.P,J3,1*%
%TO.N,+5V*%
X121920000Y-79756000D03*
%TD*%
D10*
%TO.P,R1,1*%
%TO.N,GND*%
X154686000Y-77216000D03*
D11*
%TO.P,R1,2*%
%TO.N,Net-(D1-Pad1)*%
X144526000Y-77216000D03*
%TD*%
D17*
%TO.N,Net-(C1-Pad1)*%
X132588000Y-84328000D02*
X128270000Y-88646000D01*
X132588000Y-82550000D02*
X132588000Y-84328000D01*
X135128000Y-74930000D02*
X135128000Y-76454000D01*
X132588000Y-78994000D02*
X132588000Y-82550000D01*
X135128000Y-76454000D02*
X132588000Y-78994000D01*
X135128000Y-74930000D02*
X133350000Y-76708000D01*
X133350000Y-76708000D02*
X132080000Y-76708000D01*
X132080000Y-76708000D02*
X131318000Y-75946000D01*
X131318000Y-75946000D02*
X131318000Y-72136000D01*
X127762000Y-68580000D02*
X125730000Y-68580000D01*
X131318000Y-72136000D02*
X127762000Y-68580000D01*
%TO.N,GND*%
X124206000Y-82550000D02*
X121920000Y-84836000D01*
X130048000Y-82550000D02*
X124206000Y-82550000D01*
X121960000Y-84836000D02*
X121920000Y-84836000D01*
X125770000Y-88646000D02*
X121960000Y-84836000D01*
X121920000Y-84836000D02*
X121920000Y-88138000D01*
X121920000Y-88138000D02*
X123952000Y-90170000D01*
X128931002Y-90170000D02*
X133858000Y-85243002D01*
X123952000Y-90170000D02*
X128931002Y-90170000D01*
X154686000Y-80692000D02*
X154606000Y-80772000D01*
X154686000Y-77216000D02*
X154686000Y-80692000D01*
X154606000Y-80772000D02*
X152400000Y-80772000D01*
X152400000Y-80772000D02*
X150622000Y-82550000D01*
X150622000Y-82550000D02*
X149718998Y-82550000D01*
X149718998Y-82550000D02*
X146050000Y-78881002D01*
X146050000Y-78881002D02*
X146050000Y-77074998D01*
X133858000Y-82042000D02*
X133858000Y-85243002D01*
X139809001Y-76090999D02*
X133858000Y-82042000D01*
X145066001Y-76090999D02*
X139809001Y-76090999D01*
X146050000Y-77074998D02*
X145066001Y-76090999D01*
%TO.N,Net-(C2-Pad1)*%
X137668000Y-74930000D02*
X146304000Y-74930000D01*
X149606000Y-78232000D02*
X149606000Y-80772000D01*
X146304000Y-74930000D02*
X149606000Y-78232000D01*
%TO.N,Net-(D1-Pad2)*%
X139954000Y-87376000D02*
X135128000Y-82550000D01*
X141478000Y-87376000D02*
X139954000Y-87376000D01*
X135128000Y-82550000D02*
X135128000Y-87376000D01*
%TO.N,Net-(R2-Pad1)*%
X123190000Y-68580000D02*
X123190000Y-67056000D01*
X123190000Y-67056000D02*
X123952000Y-66294000D01*
X141224000Y-66294000D02*
X144526000Y-69596000D01*
X123952000Y-66294000D02*
X141224000Y-66294000D01*
%TO.N,Net-(R2-Pad2)*%
X152908000Y-71374000D02*
X154686000Y-69596000D01*
X143764000Y-71374000D02*
X152908000Y-71374000D01*
X143764000Y-72644000D02*
X144526000Y-73406000D01*
X143764000Y-71374000D02*
X143764000Y-72644000D01*
X143764000Y-71374000D02*
X133731000Y-71374000D01*
X132588000Y-72517000D02*
X132588000Y-74930000D01*
X133731000Y-71374000D02*
X132588000Y-72517000D01*
%TO.N,+5V*%
X121920000Y-77216000D02*
X121920000Y-79756000D01*
X130048000Y-74930000D02*
X124206000Y-74930000D01*
X124206000Y-74930000D02*
X121920000Y-77216000D01*
X154686000Y-73406000D02*
X154686000Y-74676000D01*
X155811001Y-75801001D02*
X155811001Y-82948999D01*
X154686000Y-74676000D02*
X155811001Y-75801001D01*
X137668000Y-82550000D02*
X142748000Y-82550000D01*
X155811001Y-82948999D02*
X149479000Y-89281000D01*
X142748000Y-82550000D02*
X149479000Y-89281000D01*
X121169999Y-80506001D02*
X121920000Y-79756000D01*
X123640010Y-90620010D02*
X121169999Y-88149999D01*
X149479000Y-89281000D02*
X148139990Y-90620010D01*
X121169999Y-88149999D02*
X121169999Y-80506001D01*
X148139990Y-90620010D02*
X123640010Y-90620010D01*
%TO.N,Net-(D1-Pad1)*%
X141336998Y-77216000D02*
X136398000Y-82154998D01*
X144526000Y-77216000D02*
X141336998Y-77216000D01*
X142792999Y-86150999D02*
X144018000Y-87376000D01*
X139603997Y-86150999D02*
X142792999Y-86150999D01*
X136398000Y-82945002D02*
X139603997Y-86150999D01*
X136398000Y-82154998D02*
X136398000Y-82945002D01*
%TD*%
M02*
