M48
; DRILL file {KiCad (5.1.6)-1} date 09/25/20 13:45:13
; FORMAT={-:-/ absolute / inch / decimal}
; #@! TF.CreationDate,2020-09-25T13:45:13-07:00
; #@! TF.GenerationSoftware,Kicad,Pcbnew,(5.1.6)-1
; #@! TF.FileFunction,Plated,1,2,PTH
FMAT,2
INCH
T1C0.0197
T2C0.0315
T3C0.0354
%
G90
G05
T1
X5.32Y-3.44
X4.8Y-3.14
X4.8Y-3.34
T2
X5.12Y-2.95
X5.12Y-3.25
X5.22Y-2.95
X5.22Y-3.25
X5.32Y-2.95
X5.32Y-3.25
X5.42Y-2.95
X5.42Y-3.25
X4.75Y-2.7
X4.85Y-2.7
X4.95Y-2.7
X5.69Y-2.89
X6.09Y-2.89
X5.89Y-3.18
X6.0869Y-3.18
X5.69Y-2.74
X6.09Y-2.74
X4.9516Y-3.49
X5.05Y-3.49
X5.69Y-3.04
X6.09Y-3.04
T3
X5.57Y-3.44
X5.67Y-3.44
T0
M30
