%TF.GenerationSoftware,KiCad,Pcbnew,(5.1.6)-1*%
%TF.CreationDate,2020-10-04T13:32:31-07:00*%
%TF.ProjectId,Full555Timer,46756c6c-3535-4355-9469-6d65722e6b69,rev?*%
%TF.SameCoordinates,Original*%
%TF.FileFunction,Copper,L4,Bot*%
%TF.FilePolarity,Positive*%
%FSLAX46Y46*%
G04 Gerber Fmt 4.6, Leading zero omitted, Abs format (unit mm)*
G04 Created by KiCad (PCBNEW (5.1.6)-1) date 2020-10-04 13:32:31*
%MOMM*%
%LPD*%
G01*
G04 APERTURE LIST*
%TA.AperFunction,ComponentPad*%
%ADD10R,1.600000X1.600000*%
%TD*%
%TA.AperFunction,ComponentPad*%
%ADD11O,1.600000X1.600000*%
%TD*%
%TA.AperFunction,ComponentPad*%
%ADD12C,1.440000*%
%TD*%
%TA.AperFunction,ComponentPad*%
%ADD13C,1.600000*%
%TD*%
%TA.AperFunction,ComponentPad*%
%ADD14C,1.507998*%
%TD*%
%TA.AperFunction,ComponentPad*%
%ADD15C,1.800000*%
%TD*%
%TA.AperFunction,ComponentPad*%
%ADD16R,1.800000X1.800000*%
%TD*%
%TA.AperFunction,ComponentPad*%
%ADD17R,0.850000X0.850000*%
%TD*%
%TA.AperFunction,ComponentPad*%
%ADD18R,1.370000X1.370000*%
%TD*%
%TA.AperFunction,ComponentPad*%
%ADD19C,1.370000*%
%TD*%
%TA.AperFunction,Conductor*%
%ADD20C,0.640000*%
%TD*%
G04 APERTURE END LIST*
D10*
%TO.P,U6,1*%
%TO.N,Net-(U4-Pad3)*%
X175260000Y-85725000D03*
D11*
%TO.P,U6,8*%
%TO.N,Net-(U6-Pad8)*%
X190500000Y-78105000D03*
%TO.P,U6,2*%
%TO.N,Net-(U4-Pad6)*%
X177800000Y-85725000D03*
%TO.P,U6,9*%
%TO.N,Net-(R14-Pad1)*%
X187960000Y-78105000D03*
%TO.P,U6,3*%
%TO.N,Net-(U4-Pad9)*%
X180340000Y-85725000D03*
%TO.P,U6,10*%
%TO.N,Net-(R13-Pad1)*%
X185420000Y-78105000D03*
%TO.P,U6,4*%
%TO.N,Net-(R16-Pad1)*%
X182880000Y-85725000D03*
%TO.P,U6,11*%
%TO.N,Net-(U6-Pad11)*%
X182880000Y-78105000D03*
%TO.P,U6,5*%
%TO.N,Net-(R15-Pad1)*%
X185420000Y-85725000D03*
%TO.P,U6,12*%
%TO.N,Net-(R12-Pad1)*%
X180340000Y-78105000D03*
%TO.P,U6,6*%
%TO.N,Net-(U6-Pad6)*%
X187960000Y-85725000D03*
%TO.P,U6,13*%
%TO.N,Net-(R11-Pad1)*%
X177800000Y-78105000D03*
%TO.P,U6,7*%
%TO.N,GND*%
X190500000Y-85725000D03*
%TO.P,U6,14*%
%TO.N,+5V*%
X175260000Y-78105000D03*
%TD*%
D10*
%TO.P,U4,1*%
%TO.N,Net-(D1-Pad2)*%
X175260000Y-111125000D03*
D11*
%TO.P,U4,8*%
%TO.N,Net-(D4-Pad2)*%
X190500000Y-103505000D03*
%TO.P,U4,2*%
%TO.N,Net-(D3-Pad2)*%
X177800000Y-111125000D03*
%TO.P,U4,9*%
%TO.N,Net-(U4-Pad9)*%
X187960000Y-103505000D03*
%TO.P,U4,3*%
%TO.N,Net-(U4-Pad3)*%
X180340000Y-111125000D03*
%TO.P,U4,10*%
%TO.N,Net-(U4-Pad10)*%
X185420000Y-103505000D03*
%TO.P,U4,4*%
%TO.N,Net-(U4-Pad4)*%
X182880000Y-111125000D03*
%TO.P,U4,11*%
%TO.N,Net-(U4-Pad11)*%
X182880000Y-103505000D03*
%TO.P,U4,5*%
%TO.N,Net-(D2-Pad2)*%
X185420000Y-111125000D03*
%TO.P,U4,12*%
%TO.N,Net-(R21-Pad1)*%
X180340000Y-103505000D03*
%TO.P,U4,6*%
%TO.N,Net-(U4-Pad6)*%
X187960000Y-111125000D03*
%TO.P,U4,13*%
%TO.N,Net-(R20-Pad1)*%
X177800000Y-103505000D03*
%TO.P,U4,7*%
%TO.N,GND*%
X190500000Y-111125000D03*
%TO.P,U4,14*%
%TO.N,+5V*%
X175260000Y-103505000D03*
%TD*%
D12*
%TO.P,RV1,3*%
%TO.N,Net-(RV1-Pad3)*%
X102870000Y-124460000D03*
%TO.P,RV1,2*%
%TO.N,Net-(R1-Pad1)*%
X102870000Y-121920000D03*
%TO.P,RV1,1*%
%TO.N,Net-(C3-Pad1)*%
X102870000Y-119380000D03*
%TD*%
D11*
%TO.P,R1,2*%
%TO.N,Net-(R1-Pad2)*%
X121920000Y-111760000D03*
D13*
%TO.P,R1,1*%
%TO.N,Net-(R1-Pad1)*%
X121920000Y-101600000D03*
%TD*%
D11*
%TO.P,R9,2*%
%TO.N,GND*%
X117475000Y-93345000D03*
D13*
%TO.P,R9,1*%
%TO.N,Net-(D3-Pad1)*%
X117475000Y-83185000D03*
%TD*%
D14*
%TO.P,SW1,2*%
%TO.N,Net-(R3-Pad1)*%
X104140000Y-103020002D03*
%TO.P,SW1,4*%
%TO.N,N/C*%
X99639999Y-103020002D03*
%TO.P,SW1,3*%
X99639999Y-96520000D03*
%TO.P,SW1,1*%
%TO.N,GND*%
X104140000Y-96520000D03*
%TD*%
D11*
%TO.P,R21,2*%
%TO.N,+5V*%
X163195000Y-128905000D03*
D13*
%TO.P,R21,1*%
%TO.N,Net-(R21-Pad1)*%
X163195000Y-118745000D03*
%TD*%
D11*
%TO.P,R20,2*%
%TO.N,+5V*%
X167005000Y-128905000D03*
D13*
%TO.P,R20,1*%
%TO.N,Net-(R20-Pad1)*%
X167005000Y-118745000D03*
%TD*%
D11*
%TO.P,R19,2*%
%TO.N,+5V*%
X170815000Y-128905000D03*
D13*
%TO.P,R19,1*%
%TO.N,Net-(R19-Pad1)*%
X170815000Y-118745000D03*
%TD*%
D11*
%TO.P,R18,2*%
%TO.N,+5V*%
X174625000Y-128905000D03*
D13*
%TO.P,R18,1*%
%TO.N,Net-(R18-Pad1)*%
X174625000Y-118745000D03*
%TD*%
D11*
%TO.P,R17,2*%
%TO.N,+5V*%
X178435000Y-128905000D03*
D13*
%TO.P,R17,1*%
%TO.N,Net-(R17-Pad1)*%
X178435000Y-118745000D03*
%TD*%
D11*
%TO.P,R16,2*%
%TO.N,+5V*%
X182245000Y-128905000D03*
D13*
%TO.P,R16,1*%
%TO.N,Net-(R16-Pad1)*%
X182245000Y-118745000D03*
%TD*%
D11*
%TO.P,R15,2*%
%TO.N,+5V*%
X186055000Y-128905000D03*
D13*
%TO.P,R15,1*%
%TO.N,Net-(R15-Pad1)*%
X186055000Y-118745000D03*
%TD*%
D11*
%TO.P,R14,2*%
%TO.N,+5V*%
X189865000Y-128905000D03*
D13*
%TO.P,R14,1*%
%TO.N,Net-(R14-Pad1)*%
X189865000Y-118745000D03*
%TD*%
D11*
%TO.P,R13,2*%
%TO.N,+5V*%
X193675000Y-128905000D03*
D13*
%TO.P,R13,1*%
%TO.N,Net-(R13-Pad1)*%
X193675000Y-118745000D03*
%TD*%
D11*
%TO.P,R12,2*%
%TO.N,+5V*%
X197485000Y-128905000D03*
D13*
%TO.P,R12,1*%
%TO.N,Net-(R12-Pad1)*%
X197485000Y-118745000D03*
%TD*%
D11*
%TO.P,R11,2*%
%TO.N,+5V*%
X201295000Y-128905000D03*
D13*
%TO.P,R11,1*%
%TO.N,Net-(R11-Pad1)*%
X201295000Y-118745000D03*
%TD*%
%TO.P,C1,2*%
%TO.N,GND*%
X160655000Y-93385000D03*
D10*
%TO.P,C1,1*%
%TO.N,+5V*%
X160655000Y-95885000D03*
%TD*%
D13*
%TO.P,C2,2*%
%TO.N,GND*%
X140970000Y-109140000D03*
%TO.P,C2,1*%
%TO.N,Net-(C2-Pad1)*%
X140970000Y-104140000D03*
%TD*%
%TO.P,C3,2*%
%TO.N,GND*%
X146050000Y-107910000D03*
D10*
%TO.P,C3,1*%
%TO.N,Net-(C3-Pad1)*%
X146050000Y-105410000D03*
%TD*%
D13*
%TO.P,C4,1*%
%TO.N,Net-(C4-Pad1)*%
X144780000Y-96520000D03*
%TO.P,C4,2*%
%TO.N,GND*%
X144780000Y-91520000D03*
%TD*%
%TO.P,C5,1*%
%TO.N,Net-(C5-Pad1)*%
X140970000Y-96520000D03*
%TO.P,C5,2*%
%TO.N,GND*%
X140970000Y-91520000D03*
%TD*%
%TO.P,C6,2*%
%TO.N,GND*%
X140970000Y-83740000D03*
%TO.P,C6,1*%
%TO.N,Net-(C6-Pad1)*%
X140970000Y-78740000D03*
%TD*%
%TO.P,C7,1*%
%TO.N,+5V*%
X168910000Y-104775000D03*
%TO.P,C7,2*%
%TO.N,GND*%
X168910000Y-109775000D03*
%TD*%
%TO.P,C8,2*%
%TO.N,GND*%
X168910000Y-97075000D03*
%TO.P,C8,1*%
%TO.N,+5V*%
X168910000Y-92075000D03*
%TD*%
%TO.P,C9,1*%
%TO.N,+5V*%
X168910000Y-79375000D03*
%TO.P,C9,2*%
%TO.N,GND*%
X168910000Y-84375000D03*
%TD*%
D15*
%TO.P,D1,2*%
%TO.N,Net-(D1-Pad2)*%
X111125000Y-118745000D03*
D16*
%TO.P,D1,1*%
%TO.N,Net-(D1-Pad1)*%
X111125000Y-121285000D03*
%TD*%
%TO.P,D2,1*%
%TO.N,Net-(D2-Pad1)*%
X111125000Y-100965000D03*
D15*
%TO.P,D2,2*%
%TO.N,Net-(D2-Pad2)*%
X111125000Y-98425000D03*
%TD*%
%TO.P,D3,2*%
%TO.N,Net-(D3-Pad2)*%
X111760000Y-87630000D03*
D16*
%TO.P,D3,1*%
%TO.N,Net-(D3-Pad1)*%
X111760000Y-85090000D03*
%TD*%
%TO.P,D4,1*%
%TO.N,Net-(D4-Pad1)*%
X204470000Y-105410000D03*
D15*
%TO.P,D4,2*%
%TO.N,Net-(D4-Pad2)*%
X201930000Y-105410000D03*
%TD*%
D17*
%TO.P,J1,1*%
%TO.N,GND*%
X156210000Y-88265000D03*
%TD*%
%TO.P,J2,1*%
%TO.N,+5V*%
X156210000Y-100965000D03*
%TD*%
%TO.P,J3,1*%
%TO.N,Net-(J3-Pad1)*%
X202565000Y-94615000D03*
%TD*%
%TO.P,J4,1*%
%TO.N,Net-(J4-Pad1)*%
X202565000Y-88900000D03*
%TD*%
%TO.P,J5,1*%
%TO.N,Net-(D4-Pad2)*%
X202565000Y-99060000D03*
%TD*%
D13*
%TO.P,R2,1*%
%TO.N,Net-(R1-Pad2)*%
X144145000Y-118745000D03*
D11*
%TO.P,R2,2*%
%TO.N,+5V*%
X144145000Y-128905000D03*
%TD*%
%TO.P,R3,2*%
%TO.N,+5V*%
X147955000Y-128905000D03*
D13*
%TO.P,R3,1*%
%TO.N,Net-(R3-Pad1)*%
X147955000Y-118745000D03*
%TD*%
%TO.P,R4,1*%
%TO.N,Net-(C5-Pad1)*%
X151765000Y-118745000D03*
D11*
%TO.P,R4,2*%
%TO.N,+5V*%
X151765000Y-128905000D03*
%TD*%
%TO.P,R5,2*%
%TO.N,+5V*%
X155575000Y-128905000D03*
D13*
%TO.P,R5,1*%
%TO.N,Net-(R5-Pad1)*%
X155575000Y-118745000D03*
%TD*%
%TO.P,R6,1*%
%TO.N,Net-(R6-Pad1)*%
X159385000Y-118745000D03*
D11*
%TO.P,R6,2*%
%TO.N,+5V*%
X159385000Y-128905000D03*
%TD*%
%TO.P,R7,2*%
%TO.N,Net-(D1-Pad1)*%
X116840000Y-127000000D03*
D13*
%TO.P,R7,1*%
%TO.N,GND*%
X116840000Y-116840000D03*
%TD*%
%TO.P,R8,1*%
%TO.N,Net-(D2-Pad1)*%
X117475000Y-101600000D03*
D11*
%TO.P,R8,2*%
%TO.N,GND*%
X117475000Y-111760000D03*
%TD*%
D13*
%TO.P,R10,1*%
%TO.N,Net-(D4-Pad1)*%
X205105000Y-128905000D03*
D11*
%TO.P,R10,2*%
%TO.N,GND*%
X205105000Y-118745000D03*
%TD*%
D18*
%TO.P,SW2,1*%
%TO.N,Net-(R5-Pad1)*%
X103505000Y-88265000D03*
D19*
%TO.P,SW2,2*%
%TO.N,GND*%
X103505000Y-85725000D03*
%TO.P,SW2,3*%
%TO.N,Net-(R6-Pad1)*%
X103505000Y-83185000D03*
%TD*%
D11*
%TO.P,U1,8*%
%TO.N,+5V*%
X127000000Y-102870000D03*
%TO.P,U1,4*%
X134620000Y-110490000D03*
%TO.P,U1,7*%
%TO.N,Net-(R1-Pad2)*%
X129540000Y-102870000D03*
%TO.P,U1,3*%
%TO.N,Net-(D1-Pad2)*%
X132080000Y-110490000D03*
%TO.P,U1,6*%
%TO.N,Net-(C3-Pad1)*%
X132080000Y-102870000D03*
%TO.P,U1,2*%
X129540000Y-110490000D03*
%TO.P,U1,5*%
%TO.N,Net-(C2-Pad1)*%
X134620000Y-102870000D03*
D10*
%TO.P,U1,1*%
%TO.N,GND*%
X127000000Y-110490000D03*
%TD*%
%TO.P,U2,1*%
%TO.N,GND*%
X127000000Y-97790000D03*
D11*
%TO.P,U2,5*%
%TO.N,Net-(C4-Pad1)*%
X134620000Y-90170000D03*
%TO.P,U2,2*%
%TO.N,Net-(R3-Pad1)*%
X129540000Y-97790000D03*
%TO.P,U2,6*%
%TO.N,Net-(C5-Pad1)*%
X132080000Y-90170000D03*
%TO.P,U2,3*%
%TO.N,Net-(D2-Pad2)*%
X132080000Y-97790000D03*
%TO.P,U2,7*%
%TO.N,Net-(C5-Pad1)*%
X129540000Y-90170000D03*
%TO.P,U2,4*%
%TO.N,+5V*%
X134620000Y-97790000D03*
%TO.P,U2,8*%
X127000000Y-90170000D03*
%TD*%
D10*
%TO.P,U3,1*%
%TO.N,GND*%
X127000000Y-85090000D03*
D11*
%TO.P,U3,5*%
%TO.N,Net-(C6-Pad1)*%
X134620000Y-77470000D03*
%TO.P,U3,2*%
%TO.N,Net-(R5-Pad1)*%
X129540000Y-85090000D03*
%TO.P,U3,6*%
%TO.N,GND*%
X132080000Y-77470000D03*
%TO.P,U3,3*%
%TO.N,Net-(D3-Pad2)*%
X132080000Y-85090000D03*
%TO.P,U3,7*%
%TO.N,Net-(U3-Pad7)*%
X129540000Y-77470000D03*
%TO.P,U3,4*%
%TO.N,Net-(R6-Pad1)*%
X134620000Y-85090000D03*
%TO.P,U3,8*%
%TO.N,+5V*%
X127000000Y-77470000D03*
%TD*%
%TO.P,U5,14*%
%TO.N,+5V*%
X175260000Y-90805000D03*
%TO.P,U5,7*%
%TO.N,GND*%
X190500000Y-98425000D03*
%TO.P,U5,13*%
%TO.N,Net-(D4-Pad2)*%
X177800000Y-90805000D03*
%TO.P,U5,6*%
%TO.N,Net-(U5-Pad6)*%
X187960000Y-98425000D03*
%TO.P,U5,12*%
%TO.N,Net-(J4-Pad1)*%
X180340000Y-90805000D03*
%TO.P,U5,5*%
%TO.N,Net-(R18-Pad1)*%
X185420000Y-98425000D03*
%TO.P,U5,11*%
%TO.N,Net-(R17-Pad1)*%
X182880000Y-90805000D03*
%TO.P,U5,4*%
%TO.N,Net-(U5-Pad4)*%
X182880000Y-98425000D03*
%TO.P,U5,10*%
%TO.N,Net-(U5-Pad10)*%
X185420000Y-90805000D03*
%TO.P,U5,3*%
%TO.N,Net-(R19-Pad1)*%
X180340000Y-98425000D03*
%TO.P,U5,9*%
%TO.N,Net-(J3-Pad1)*%
X187960000Y-90805000D03*
%TO.P,U5,2*%
%TO.N,Net-(U4-Pad4)*%
X177800000Y-98425000D03*
%TO.P,U5,8*%
%TO.N,Net-(U4-Pad10)*%
X190500000Y-90805000D03*
D10*
%TO.P,U5,1*%
%TO.N,Net-(D3-Pad2)*%
X175260000Y-98425000D03*
%TD*%
D17*
%TO.P,J6,1*%
%TO.N,GND*%
X211699999Y-102870000D03*
%TD*%
%TO.P,J7,1*%
%TO.N,+5V*%
X211699999Y-95885000D03*
%TD*%
D20*
%TO.N,Net-(C2-Pad1)*%
X135890000Y-104140000D02*
X134620000Y-102870000D01*
X140970000Y-104140000D02*
X135890000Y-104140000D01*
%TO.N,Net-(C3-Pad1)*%
X130860001Y-111810001D02*
X129540000Y-110490000D01*
X146050000Y-105410000D02*
X145415000Y-105410000D01*
X143510000Y-107315000D02*
X143510000Y-111125000D01*
X143510000Y-111125000D02*
X142824999Y-111810001D01*
X145415000Y-105410000D02*
X143510000Y-107315000D01*
X142824999Y-111810001D02*
X130860001Y-111810001D01*
%TO.N,Net-(C4-Pad1)*%
X139649999Y-95199999D02*
X134620000Y-90170000D01*
X143459999Y-95199999D02*
X139649999Y-95199999D01*
X144780000Y-96520000D02*
X143459999Y-95199999D01*
%TO.N,Net-(C5-Pad1)*%
X151765000Y-107401046D02*
X140970000Y-96606046D01*
X140970000Y-96606046D02*
X140970000Y-96520000D01*
X151765000Y-118745000D02*
X151765000Y-107401046D01*
X138430000Y-96520000D02*
X140970000Y-96520000D01*
X132080000Y-90170000D02*
X138430000Y-96520000D01*
%TO.N,Net-(C6-Pad1)*%
X139700000Y-77470000D02*
X140970000Y-78740000D01*
X134620000Y-77470000D02*
X139700000Y-77470000D01*
%TO.N,Net-(D1-Pad1)*%
X111125000Y-121285000D02*
X116840000Y-127000000D01*
%TO.N,Net-(D2-Pad1)*%
X116840000Y-100965000D02*
X117475000Y-101600000D01*
X111125000Y-100965000D02*
X116840000Y-100965000D01*
%TO.N,Net-(D3-Pad1)*%
X115570000Y-85090000D02*
X117475000Y-83185000D01*
X111760000Y-85090000D02*
X115570000Y-85090000D01*
%TO.N,Net-(D4-Pad1)*%
X206425001Y-127584999D02*
X205105000Y-128905000D01*
X204470000Y-105410000D02*
X206375000Y-105410000D01*
X206375000Y-105410000D02*
X207010000Y-106045000D01*
X207010000Y-127000000D02*
X206425001Y-127584999D01*
X207010000Y-106045000D02*
X207010000Y-127000000D01*
%TO.N,Net-(R1-Pad1)*%
X121920000Y-102870000D02*
X102870000Y-121920000D01*
X121920000Y-101600000D02*
X121920000Y-102870000D01*
%TO.N,Net-(R3-Pad1)*%
X142286003Y-99110001D02*
X130860001Y-99110001D01*
X130860001Y-99110001D02*
X129540000Y-97790000D01*
X147955000Y-104778998D02*
X142286003Y-99110001D01*
X147955000Y-118745000D02*
X147955000Y-104778998D01*
%TO.N,Net-(R5-Pad1)*%
X129540000Y-85090000D02*
X132715000Y-88265000D01*
X132715000Y-88265000D02*
X144145000Y-88265000D01*
X155264999Y-118434999D02*
X155575000Y-118745000D01*
X155264999Y-99384999D02*
X155264999Y-118434999D01*
X144145000Y-88265000D02*
X155264999Y-99384999D01*
%TO.N,Net-(R6-Pad1)*%
X159385000Y-100965000D02*
X159385000Y-118745000D01*
X145415000Y-86995000D02*
X159385000Y-100965000D01*
X134620000Y-85090000D02*
X136525000Y-86995000D01*
X136525000Y-86995000D02*
X145415000Y-86995000D01*
%TO.N,Net-(R11-Pad1)*%
X201295000Y-118745000D02*
X198540079Y-115990079D01*
X198540079Y-80594173D02*
X193050885Y-75104979D01*
X198540079Y-115990079D02*
X198540079Y-80594173D01*
X180800021Y-75104979D02*
X177800000Y-78105000D01*
X193050885Y-75104979D02*
X180800021Y-75104979D01*
%TO.N,Net-(R12-Pad1)*%
X197485000Y-118745000D02*
X197485000Y-114409272D01*
X197485000Y-114409272D02*
X197700069Y-114194203D01*
X197700069Y-80942116D02*
X192702942Y-75944989D01*
X197700069Y-114194203D02*
X197700069Y-80942116D01*
X182500011Y-75944989D02*
X180340000Y-78105000D01*
X192702942Y-75944989D02*
X182500011Y-75944989D01*
%TO.N,Net-(R13-Pad1)*%
X193675000Y-118745000D02*
X193675000Y-117031318D01*
X196860059Y-113846260D02*
X196860059Y-81290059D01*
X193675000Y-117031318D02*
X196860059Y-113846260D01*
X186740001Y-76784999D02*
X185420000Y-78105000D01*
X192354999Y-76784999D02*
X186740001Y-76784999D01*
X196860059Y-81290059D02*
X192354999Y-76784999D01*
%TO.N,Net-(R14-Pad1)*%
X189865000Y-118745000D02*
X191770000Y-116840000D01*
X192678366Y-116840000D02*
X196020049Y-113498317D01*
X191770000Y-116840000D02*
X192678366Y-116840000D01*
X196020049Y-113498317D02*
X196020049Y-86800049D01*
X187960000Y-78740000D02*
X187960000Y-78105000D01*
X196020049Y-86800049D02*
X187960000Y-78740000D01*
%TO.N,Net-(R15-Pad1)*%
X195180041Y-90487088D02*
X191687953Y-86995000D01*
X192350394Y-115980020D02*
X195180041Y-113150373D01*
X195180041Y-113150373D02*
X195180041Y-90487088D01*
X186055000Y-118745000D02*
X188819980Y-115980020D01*
X188819980Y-115980020D02*
X192350394Y-115980020D01*
X186740001Y-87045001D02*
X185420000Y-85725000D01*
X191637952Y-87045001D02*
X186740001Y-87045001D01*
X191687953Y-86995000D02*
X191637952Y-87045001D01*
%TO.N,Net-(R16-Pad1)*%
X192002451Y-115140010D02*
X194340031Y-112802430D01*
X194340031Y-112802430D02*
X194340031Y-90835031D01*
X182245000Y-118745000D02*
X185849990Y-115140010D01*
X185849990Y-115140010D02*
X192002451Y-115140010D01*
X194340031Y-90835031D02*
X192405000Y-88900000D01*
X186055000Y-88900000D02*
X182880000Y-85725000D01*
X192405000Y-88900000D02*
X186055000Y-88900000D01*
%TO.N,Net-(R17-Pad1)*%
X178435000Y-118745000D02*
X182880000Y-114300000D01*
X186153603Y-92125001D02*
X184200001Y-92125001D01*
X184200001Y-92125001D02*
X182880000Y-90805000D01*
X193500021Y-112454487D02*
X193500021Y-99471419D01*
X193500021Y-99471419D02*
X186153603Y-92125001D01*
X191654508Y-114300000D02*
X193500021Y-112454487D01*
X182880000Y-114300000D02*
X191654508Y-114300000D01*
%TO.N,Net-(R18-Pad1)*%
X186740001Y-99745001D02*
X185420000Y-98425000D01*
X189881556Y-99745001D02*
X186740001Y-99745001D01*
X192660011Y-102523456D02*
X189881556Y-99745001D01*
X191481544Y-113285011D02*
X192660011Y-112106544D01*
X192660011Y-112106544D02*
X192660011Y-102523456D01*
X180084989Y-113285011D02*
X191481544Y-113285011D01*
X174625000Y-118745000D02*
X180084989Y-113285011D01*
%TO.N,Net-(R19-Pad1)*%
X191133601Y-102184999D02*
X181025001Y-102184999D01*
X170815000Y-118745000D02*
X177114999Y-112445001D01*
X191133601Y-112445001D02*
X191820001Y-111758601D01*
X177114999Y-112445001D02*
X191133601Y-112445001D01*
X191820001Y-111758601D02*
X191820001Y-102871399D01*
X191820001Y-102871399D02*
X191133601Y-102184999D01*
X180340000Y-101499998D02*
X180340000Y-98425000D01*
X181025001Y-102184999D02*
X180340000Y-101499998D01*
%TO.N,Net-(R20-Pad1)*%
X167005000Y-118745000D02*
X167005000Y-117475000D01*
X167005000Y-117475000D02*
X172720000Y-111760000D01*
X177800000Y-106048998D02*
X177800000Y-103505000D01*
X172720000Y-111128998D02*
X177800000Y-106048998D01*
X172720000Y-111760000D02*
X172720000Y-111128998D01*
%TO.N,Net-(R21-Pad1)*%
X163195000Y-118745000D02*
X173355000Y-108585000D01*
X173355000Y-108585000D02*
X173355000Y-102870000D01*
X179019999Y-102184999D02*
X180340000Y-103505000D01*
X174040001Y-102184999D02*
X179019999Y-102184999D01*
X173355000Y-102870000D02*
X174040001Y-102184999D01*
%TO.N,Net-(R1-Pad2)*%
X121920000Y-110490000D02*
X121920000Y-111760000D01*
X129540000Y-102870000D02*
X121920000Y-110490000D01*
X132718998Y-118745000D02*
X125095000Y-111121002D01*
X144145000Y-118745000D02*
X132718998Y-118745000D01*
X125095000Y-111121002D02*
X125095000Y-109220000D01*
X129540000Y-104775000D02*
X129540000Y-102870000D01*
X125095000Y-109220000D02*
X129540000Y-104775000D01*
%TD*%
M02*
