%TF.GenerationSoftware,KiCad,Pcbnew,(6.0.0)*%
%TF.CreationDate,2022-01-09T16:02:52-08:00*%
%TF.ProjectId,Full555Timer,46756c6c-3535-4355-9469-6d65722e6b69,rev?*%
%TF.SameCoordinates,Original*%
%TF.FileFunction,Legend,Top*%
%TF.FilePolarity,Positive*%
%FSLAX46Y46*%
G04 Gerber Fmt 4.6, Leading zero omitted, Abs format (unit mm)*
G04 Created by KiCad (PCBNEW (6.0.0)) date 2022-01-09 16:02:52*
%MOMM*%
%LPD*%
G01*
G04 APERTURE LIST*
%ADD10C,0.150000*%
%ADD11C,0.141000*%
%ADD12C,0.015000*%
%ADD13C,0.120000*%
%ADD14C,0.152400*%
%ADD15C,0.127000*%
%ADD16C,0.200000*%
G04 APERTURE END LIST*
D10*
X198755952Y-74042380D02*
X198279761Y-74042380D01*
X198232142Y-74518571D01*
X198279761Y-74470952D01*
X198375000Y-74423333D01*
X198613095Y-74423333D01*
X198708333Y-74470952D01*
X198755952Y-74518571D01*
X198803571Y-74613809D01*
X198803571Y-74851904D01*
X198755952Y-74947142D01*
X198708333Y-74994761D01*
X198613095Y-75042380D01*
X198375000Y-75042380D01*
X198279761Y-74994761D01*
X198232142Y-74947142D01*
X199708333Y-74042380D02*
X199232142Y-74042380D01*
X199184523Y-74518571D01*
X199232142Y-74470952D01*
X199327380Y-74423333D01*
X199565476Y-74423333D01*
X199660714Y-74470952D01*
X199708333Y-74518571D01*
X199755952Y-74613809D01*
X199755952Y-74851904D01*
X199708333Y-74947142D01*
X199660714Y-74994761D01*
X199565476Y-75042380D01*
X199327380Y-75042380D01*
X199232142Y-74994761D01*
X199184523Y-74947142D01*
X200660714Y-74042380D02*
X200184523Y-74042380D01*
X200136904Y-74518571D01*
X200184523Y-74470952D01*
X200279761Y-74423333D01*
X200517857Y-74423333D01*
X200613095Y-74470952D01*
X200660714Y-74518571D01*
X200708333Y-74613809D01*
X200708333Y-74851904D01*
X200660714Y-74947142D01*
X200613095Y-74994761D01*
X200517857Y-75042380D01*
X200279761Y-75042380D01*
X200184523Y-74994761D01*
X200136904Y-74947142D01*
X201755952Y-74042380D02*
X202327380Y-74042380D01*
X202041666Y-75042380D02*
X202041666Y-74042380D01*
X202660714Y-75042380D02*
X202660714Y-74375714D01*
X202660714Y-74042380D02*
X202613095Y-74090000D01*
X202660714Y-74137619D01*
X202708333Y-74090000D01*
X202660714Y-74042380D01*
X202660714Y-74137619D01*
X203136904Y-75042380D02*
X203136904Y-74375714D01*
X203136904Y-74470952D02*
X203184523Y-74423333D01*
X203279761Y-74375714D01*
X203422619Y-74375714D01*
X203517857Y-74423333D01*
X203565476Y-74518571D01*
X203565476Y-75042380D01*
X203565476Y-74518571D02*
X203613095Y-74423333D01*
X203708333Y-74375714D01*
X203851190Y-74375714D01*
X203946428Y-74423333D01*
X203994047Y-74518571D01*
X203994047Y-75042380D01*
X204851190Y-74994761D02*
X204755952Y-75042380D01*
X204565476Y-75042380D01*
X204470238Y-74994761D01*
X204422619Y-74899523D01*
X204422619Y-74518571D01*
X204470238Y-74423333D01*
X204565476Y-74375714D01*
X204755952Y-74375714D01*
X204851190Y-74423333D01*
X204898809Y-74518571D01*
X204898809Y-74613809D01*
X204422619Y-74709047D01*
X205327380Y-75042380D02*
X205327380Y-74375714D01*
X205327380Y-74566190D02*
X205375000Y-74470952D01*
X205422619Y-74423333D01*
X205517857Y-74375714D01*
X205613095Y-74375714D01*
X207041666Y-74518571D02*
X207184523Y-74566190D01*
X207232142Y-74613809D01*
X207279761Y-74709047D01*
X207279761Y-74851904D01*
X207232142Y-74947142D01*
X207184523Y-74994761D01*
X207089285Y-75042380D01*
X206708333Y-75042380D01*
X206708333Y-74042380D01*
X207041666Y-74042380D01*
X207136904Y-74090000D01*
X207184523Y-74137619D01*
X207232142Y-74232857D01*
X207232142Y-74328095D01*
X207184523Y-74423333D01*
X207136904Y-74470952D01*
X207041666Y-74518571D01*
X206708333Y-74518571D01*
X207851190Y-75042380D02*
X207755952Y-74994761D01*
X207708333Y-74947142D01*
X207660714Y-74851904D01*
X207660714Y-74566190D01*
X207708333Y-74470952D01*
X207755952Y-74423333D01*
X207851190Y-74375714D01*
X207994047Y-74375714D01*
X208089285Y-74423333D01*
X208136904Y-74470952D01*
X208184523Y-74566190D01*
X208184523Y-74851904D01*
X208136904Y-74947142D01*
X208089285Y-74994761D01*
X207994047Y-75042380D01*
X207851190Y-75042380D01*
X209041666Y-75042380D02*
X209041666Y-74518571D01*
X208994047Y-74423333D01*
X208898809Y-74375714D01*
X208708333Y-74375714D01*
X208613095Y-74423333D01*
X209041666Y-74994761D02*
X208946428Y-75042380D01*
X208708333Y-75042380D01*
X208613095Y-74994761D01*
X208565476Y-74899523D01*
X208565476Y-74804285D01*
X208613095Y-74709047D01*
X208708333Y-74661428D01*
X208946428Y-74661428D01*
X209041666Y-74613809D01*
X209517857Y-75042380D02*
X209517857Y-74375714D01*
X209517857Y-74566190D02*
X209565476Y-74470952D01*
X209613095Y-74423333D01*
X209708333Y-74375714D01*
X209803571Y-74375714D01*
X210565476Y-75042380D02*
X210565476Y-74042380D01*
X210565476Y-74994761D02*
X210470238Y-75042380D01*
X210279761Y-75042380D01*
X210184523Y-74994761D01*
X210136904Y-74947142D01*
X210089285Y-74851904D01*
X210089285Y-74566190D01*
X210136904Y-74470952D01*
X210184523Y-74423333D01*
X210279761Y-74375714D01*
X210470238Y-74375714D01*
X210565476Y-74423333D01*
X211708333Y-74375714D02*
X211946428Y-75042380D01*
X212184523Y-74375714D01*
X212755952Y-74042380D02*
X212851190Y-74042380D01*
X212946428Y-74090000D01*
X212994047Y-74137619D01*
X213041666Y-74232857D01*
X213089285Y-74423333D01*
X213089285Y-74661428D01*
X213041666Y-74851904D01*
X212994047Y-74947142D01*
X212946428Y-74994761D01*
X212851190Y-75042380D01*
X212755952Y-75042380D01*
X212660714Y-74994761D01*
X212613095Y-74947142D01*
X212565476Y-74851904D01*
X212517857Y-74661428D01*
X212517857Y-74423333D01*
X212565476Y-74232857D01*
X212613095Y-74137619D01*
X212660714Y-74090000D01*
X212755952Y-74042380D01*
X213517857Y-74947142D02*
X213565476Y-74994761D01*
X213517857Y-75042380D01*
X213470238Y-74994761D01*
X213517857Y-74947142D01*
X213517857Y-75042380D01*
X214517857Y-75042380D02*
X213946428Y-75042380D01*
X214232142Y-75042380D02*
X214232142Y-74042380D01*
X214136904Y-74185238D01*
X214041666Y-74280476D01*
X213946428Y-74328095D01*
X203232142Y-76652380D02*
X202660714Y-76652380D01*
X202946428Y-76652380D02*
X202946428Y-75652380D01*
X202851190Y-75795238D01*
X202755952Y-75890476D01*
X202660714Y-75938095D01*
X204375000Y-75604761D02*
X203517857Y-76890476D01*
X204755952Y-76652380D02*
X204946428Y-76652380D01*
X205041666Y-76604761D01*
X205089285Y-76557142D01*
X205184523Y-76414285D01*
X205232142Y-76223809D01*
X205232142Y-75842857D01*
X205184523Y-75747619D01*
X205136904Y-75700000D01*
X205041666Y-75652380D01*
X204851190Y-75652380D01*
X204755952Y-75700000D01*
X204708333Y-75747619D01*
X204660714Y-75842857D01*
X204660714Y-76080952D01*
X204708333Y-76176190D01*
X204755952Y-76223809D01*
X204851190Y-76271428D01*
X205041666Y-76271428D01*
X205136904Y-76223809D01*
X205184523Y-76176190D01*
X205232142Y-76080952D01*
X206375000Y-75604761D02*
X205517857Y-76890476D01*
X206660714Y-75747619D02*
X206708333Y-75700000D01*
X206803571Y-75652380D01*
X207041666Y-75652380D01*
X207136904Y-75700000D01*
X207184523Y-75747619D01*
X207232142Y-75842857D01*
X207232142Y-75938095D01*
X207184523Y-76080952D01*
X206613095Y-76652380D01*
X207232142Y-76652380D01*
X207851190Y-75652380D02*
X207946428Y-75652380D01*
X208041666Y-75700000D01*
X208089285Y-75747619D01*
X208136904Y-75842857D01*
X208184523Y-76033333D01*
X208184523Y-76271428D01*
X208136904Y-76461904D01*
X208089285Y-76557142D01*
X208041666Y-76604761D01*
X207946428Y-76652380D01*
X207851190Y-76652380D01*
X207755952Y-76604761D01*
X207708333Y-76557142D01*
X207660714Y-76461904D01*
X207613095Y-76271428D01*
X207613095Y-76033333D01*
X207660714Y-75842857D01*
X207708333Y-75747619D01*
X207755952Y-75700000D01*
X207851190Y-75652380D01*
X208565476Y-75747619D02*
X208613095Y-75700000D01*
X208708333Y-75652380D01*
X208946428Y-75652380D01*
X209041666Y-75700000D01*
X209089285Y-75747619D01*
X209136904Y-75842857D01*
X209136904Y-75938095D01*
X209089285Y-76080952D01*
X208517857Y-76652380D01*
X209136904Y-76652380D01*
X209517857Y-75747619D02*
X209565476Y-75700000D01*
X209660714Y-75652380D01*
X209898809Y-75652380D01*
X209994047Y-75700000D01*
X210041666Y-75747619D01*
X210089285Y-75842857D01*
X210089285Y-75938095D01*
X210041666Y-76080952D01*
X209470238Y-76652380D01*
X210089285Y-76652380D01*
X197470238Y-77262380D02*
X198041666Y-77262380D01*
X197755952Y-78262380D02*
X197755952Y-77262380D01*
X198517857Y-78262380D02*
X198422619Y-78214761D01*
X198375000Y-78167142D01*
X198327380Y-78071904D01*
X198327380Y-77786190D01*
X198375000Y-77690952D01*
X198422619Y-77643333D01*
X198517857Y-77595714D01*
X198660714Y-77595714D01*
X198755952Y-77643333D01*
X198803571Y-77690952D01*
X198851190Y-77786190D01*
X198851190Y-78071904D01*
X198803571Y-78167142D01*
X198755952Y-78214761D01*
X198660714Y-78262380D01*
X198517857Y-78262380D01*
X199279761Y-78262380D02*
X199279761Y-77262380D01*
X199279761Y-77643333D02*
X199375000Y-77595714D01*
X199565476Y-77595714D01*
X199660714Y-77643333D01*
X199708333Y-77690952D01*
X199755952Y-77786190D01*
X199755952Y-78071904D01*
X199708333Y-78167142D01*
X199660714Y-78214761D01*
X199565476Y-78262380D01*
X199375000Y-78262380D01*
X199279761Y-78214761D01*
X200565476Y-78214761D02*
X200470238Y-78262380D01*
X200279761Y-78262380D01*
X200184523Y-78214761D01*
X200136904Y-78119523D01*
X200136904Y-77738571D01*
X200184523Y-77643333D01*
X200279761Y-77595714D01*
X200470238Y-77595714D01*
X200565476Y-77643333D01*
X200613095Y-77738571D01*
X200613095Y-77833809D01*
X200136904Y-77929047D01*
X201041666Y-78262380D02*
X201041666Y-77595714D01*
X201041666Y-77786190D02*
X201089285Y-77690952D01*
X201136904Y-77643333D01*
X201232142Y-77595714D01*
X201327380Y-77595714D01*
X202089285Y-78262380D02*
X202089285Y-77262380D01*
X202089285Y-78214761D02*
X201994047Y-78262380D01*
X201803571Y-78262380D01*
X201708333Y-78214761D01*
X201660714Y-78167142D01*
X201613095Y-78071904D01*
X201613095Y-77786190D01*
X201660714Y-77690952D01*
X201708333Y-77643333D01*
X201803571Y-77595714D01*
X201994047Y-77595714D01*
X202089285Y-77643333D01*
X202470238Y-77595714D02*
X202708333Y-78262380D01*
X202946428Y-77595714D02*
X202708333Y-78262380D01*
X202613095Y-78500476D01*
X202565476Y-78548095D01*
X202470238Y-78595714D01*
X203327380Y-77595714D02*
X203327380Y-78262380D01*
X203327380Y-77690952D02*
X203375000Y-77643333D01*
X203470238Y-77595714D01*
X203613095Y-77595714D01*
X203708333Y-77643333D01*
X203755952Y-77738571D01*
X203755952Y-78262380D01*
X204613095Y-78214761D02*
X204517857Y-78262380D01*
X204327380Y-78262380D01*
X204232142Y-78214761D01*
X204184523Y-78119523D01*
X204184523Y-77738571D01*
X204232142Y-77643333D01*
X204327380Y-77595714D01*
X204517857Y-77595714D01*
X204613095Y-77643333D01*
X204660714Y-77738571D01*
X204660714Y-77833809D01*
X204184523Y-77929047D01*
X205803571Y-77214761D02*
X204946428Y-78500476D01*
X205994047Y-77262380D02*
X206565476Y-77262380D01*
X206279761Y-78262380D02*
X206279761Y-77262380D01*
X207041666Y-78262380D02*
X206946428Y-78214761D01*
X206898809Y-78167142D01*
X206851190Y-78071904D01*
X206851190Y-77786190D01*
X206898809Y-77690952D01*
X206946428Y-77643333D01*
X207041666Y-77595714D01*
X207184523Y-77595714D01*
X207279761Y-77643333D01*
X207327380Y-77690952D01*
X207375000Y-77786190D01*
X207375000Y-78071904D01*
X207327380Y-78167142D01*
X207279761Y-78214761D01*
X207184523Y-78262380D01*
X207041666Y-78262380D01*
X207803571Y-78262380D02*
X207803571Y-77595714D01*
X207803571Y-77690952D02*
X207851190Y-77643333D01*
X207946428Y-77595714D01*
X208089285Y-77595714D01*
X208184523Y-77643333D01*
X208232142Y-77738571D01*
X208232142Y-78262380D01*
X208232142Y-77738571D02*
X208279761Y-77643333D01*
X208375000Y-77595714D01*
X208517857Y-77595714D01*
X208613095Y-77643333D01*
X208660714Y-77738571D01*
X208660714Y-78262380D01*
X209803571Y-77262380D02*
X210041666Y-78262380D01*
X210232142Y-77548095D01*
X210422619Y-78262380D01*
X210660714Y-77262380D01*
X211041666Y-78262380D02*
X211041666Y-77262380D01*
X211470238Y-78262380D02*
X211470238Y-77738571D01*
X211422619Y-77643333D01*
X211327380Y-77595714D01*
X211184523Y-77595714D01*
X211089285Y-77643333D01*
X211041666Y-77690952D01*
X211946428Y-78262380D02*
X211946428Y-77595714D01*
X211946428Y-77262380D02*
X211898809Y-77310000D01*
X211946428Y-77357619D01*
X211994047Y-77310000D01*
X211946428Y-77262380D01*
X211946428Y-77357619D01*
X212279761Y-77595714D02*
X212660714Y-77595714D01*
X212422619Y-77262380D02*
X212422619Y-78119523D01*
X212470238Y-78214761D01*
X212565476Y-78262380D01*
X212660714Y-78262380D01*
X212946428Y-78214761D02*
X213041666Y-78262380D01*
X213232142Y-78262380D01*
X213327380Y-78214761D01*
X213375000Y-78119523D01*
X213375000Y-78071904D01*
X213327380Y-77976666D01*
X213232142Y-77929047D01*
X213089285Y-77929047D01*
X212994047Y-77881428D01*
X212946428Y-77786190D01*
X212946428Y-77738571D01*
X212994047Y-77643333D01*
X213089285Y-77595714D01*
X213232142Y-77595714D01*
X213327380Y-77643333D01*
X213946428Y-78262380D02*
X213851190Y-78214761D01*
X213803571Y-78167142D01*
X213755952Y-78071904D01*
X213755952Y-77786190D01*
X213803571Y-77690952D01*
X213851190Y-77643333D01*
X213946428Y-77595714D01*
X214089285Y-77595714D01*
X214184523Y-77643333D01*
X214232142Y-77690952D01*
X214279761Y-77786190D01*
X214279761Y-78071904D01*
X214232142Y-78167142D01*
X214184523Y-78214761D01*
X214089285Y-78262380D01*
X213946428Y-78262380D01*
X214708333Y-77595714D02*
X214708333Y-78262380D01*
X214708333Y-77690952D02*
X214755952Y-77643333D01*
X214851190Y-77595714D01*
X214994047Y-77595714D01*
X215089285Y-77643333D01*
X215136904Y-77738571D01*
X215136904Y-78262380D01*
%TO.C,C1*%
X156612142Y-94801666D02*
X156659761Y-94849285D01*
X156707380Y-94992142D01*
X156707380Y-95087380D01*
X156659761Y-95230238D01*
X156564523Y-95325476D01*
X156469285Y-95373095D01*
X156278809Y-95420714D01*
X156135952Y-95420714D01*
X155945476Y-95373095D01*
X155850238Y-95325476D01*
X155755000Y-95230238D01*
X155707380Y-95087380D01*
X155707380Y-94992142D01*
X155755000Y-94849285D01*
X155802619Y-94801666D01*
X156707380Y-93849285D02*
X156707380Y-94420714D01*
X156707380Y-94135000D02*
X155707380Y-94135000D01*
X155850238Y-94230238D01*
X155945476Y-94325476D01*
X155993095Y-94420714D01*
%TO.C,C2*%
X141327142Y-106806666D02*
X141374761Y-106854285D01*
X141422380Y-106997142D01*
X141422380Y-107092380D01*
X141374761Y-107235238D01*
X141279523Y-107330476D01*
X141184285Y-107378095D01*
X140993809Y-107425714D01*
X140850952Y-107425714D01*
X140660476Y-107378095D01*
X140565238Y-107330476D01*
X140470000Y-107235238D01*
X140422380Y-107092380D01*
X140422380Y-106997142D01*
X140470000Y-106854285D01*
X140517619Y-106806666D01*
X140517619Y-106425714D02*
X140470000Y-106378095D01*
X140422380Y-106282857D01*
X140422380Y-106044761D01*
X140470000Y-105949523D01*
X140517619Y-105901904D01*
X140612857Y-105854285D01*
X140708095Y-105854285D01*
X140850952Y-105901904D01*
X141422380Y-106473333D01*
X141422380Y-105854285D01*
%TO.C,C3*%
X150157142Y-106826666D02*
X150204761Y-106874285D01*
X150252380Y-107017142D01*
X150252380Y-107112380D01*
X150204761Y-107255238D01*
X150109523Y-107350476D01*
X150014285Y-107398095D01*
X149823809Y-107445714D01*
X149680952Y-107445714D01*
X149490476Y-107398095D01*
X149395238Y-107350476D01*
X149300000Y-107255238D01*
X149252380Y-107112380D01*
X149252380Y-107017142D01*
X149300000Y-106874285D01*
X149347619Y-106826666D01*
X149252380Y-106493333D02*
X149252380Y-105874285D01*
X149633333Y-106207619D01*
X149633333Y-106064761D01*
X149680952Y-105969523D01*
X149728571Y-105921904D01*
X149823809Y-105874285D01*
X150061904Y-105874285D01*
X150157142Y-105921904D01*
X150204761Y-105969523D01*
X150252380Y-106064761D01*
X150252380Y-106350476D01*
X150204761Y-106445714D01*
X150157142Y-106493333D01*
D11*
%TO.C,C5*%
X141305714Y-94176666D02*
X141350476Y-94221428D01*
X141395238Y-94355714D01*
X141395238Y-94445238D01*
X141350476Y-94579523D01*
X141260952Y-94669047D01*
X141171428Y-94713809D01*
X140992380Y-94758571D01*
X140858095Y-94758571D01*
X140679047Y-94713809D01*
X140589523Y-94669047D01*
X140500000Y-94579523D01*
X140455238Y-94445238D01*
X140455238Y-94355714D01*
X140500000Y-94221428D01*
X140544761Y-94176666D01*
X140455238Y-93326190D02*
X140455238Y-93773809D01*
X140902857Y-93818571D01*
X140858095Y-93773809D01*
X140813333Y-93684285D01*
X140813333Y-93460476D01*
X140858095Y-93370952D01*
X140902857Y-93326190D01*
X140992380Y-93281428D01*
X141216190Y-93281428D01*
X141305714Y-93326190D01*
X141350476Y-93370952D01*
X141395238Y-93460476D01*
X141395238Y-93684285D01*
X141350476Y-93773809D01*
X141305714Y-93818571D01*
D10*
%TO.C,C6*%
X141327142Y-81406666D02*
X141374761Y-81454285D01*
X141422380Y-81597142D01*
X141422380Y-81692380D01*
X141374761Y-81835238D01*
X141279523Y-81930476D01*
X141184285Y-81978095D01*
X140993809Y-82025714D01*
X140850952Y-82025714D01*
X140660476Y-81978095D01*
X140565238Y-81930476D01*
X140470000Y-81835238D01*
X140422380Y-81692380D01*
X140422380Y-81597142D01*
X140470000Y-81454285D01*
X140517619Y-81406666D01*
X140422380Y-80549523D02*
X140422380Y-80740000D01*
X140470000Y-80835238D01*
X140517619Y-80882857D01*
X140660476Y-80978095D01*
X140850952Y-81025714D01*
X141231904Y-81025714D01*
X141327142Y-80978095D01*
X141374761Y-80930476D01*
X141422380Y-80835238D01*
X141422380Y-80644761D01*
X141374761Y-80549523D01*
X141327142Y-80501904D01*
X141231904Y-80454285D01*
X140993809Y-80454285D01*
X140898571Y-80501904D01*
X140850952Y-80549523D01*
X140803333Y-80644761D01*
X140803333Y-80835238D01*
X140850952Y-80930476D01*
X140898571Y-80978095D01*
X140993809Y-81025714D01*
%TO.C,C7*%
X171767142Y-107441666D02*
X171814761Y-107489285D01*
X171862380Y-107632142D01*
X171862380Y-107727380D01*
X171814761Y-107870238D01*
X171719523Y-107965476D01*
X171624285Y-108013095D01*
X171433809Y-108060714D01*
X171290952Y-108060714D01*
X171100476Y-108013095D01*
X171005238Y-107965476D01*
X170910000Y-107870238D01*
X170862380Y-107727380D01*
X170862380Y-107632142D01*
X170910000Y-107489285D01*
X170957619Y-107441666D01*
X170862380Y-107108333D02*
X170862380Y-106441666D01*
X171862380Y-106870238D01*
%TO.C,D1*%
X108402380Y-120753095D02*
X107402380Y-120753095D01*
X107402380Y-120515000D01*
X107450000Y-120372142D01*
X107545238Y-120276904D01*
X107640476Y-120229285D01*
X107830952Y-120181666D01*
X107973809Y-120181666D01*
X108164285Y-120229285D01*
X108259523Y-120276904D01*
X108354761Y-120372142D01*
X108402380Y-120515000D01*
X108402380Y-120753095D01*
X108402380Y-119229285D02*
X108402380Y-119800714D01*
X108402380Y-119515000D02*
X107402380Y-119515000D01*
X107545238Y-119610238D01*
X107640476Y-119705476D01*
X107688095Y-119800714D01*
%TO.C,D2*%
X108402380Y-100433095D02*
X107402380Y-100433095D01*
X107402380Y-100195000D01*
X107450000Y-100052142D01*
X107545238Y-99956904D01*
X107640476Y-99909285D01*
X107830952Y-99861666D01*
X107973809Y-99861666D01*
X108164285Y-99909285D01*
X108259523Y-99956904D01*
X108354761Y-100052142D01*
X108402380Y-100195000D01*
X108402380Y-100433095D01*
X107497619Y-99480714D02*
X107450000Y-99433095D01*
X107402380Y-99337857D01*
X107402380Y-99099761D01*
X107450000Y-99004523D01*
X107497619Y-98956904D01*
X107592857Y-98909285D01*
X107688095Y-98909285D01*
X107830952Y-98956904D01*
X108402380Y-99528333D01*
X108402380Y-98909285D01*
%TO.C,D4*%
X200477380Y-106148095D02*
X199477380Y-106148095D01*
X199477380Y-105910000D01*
X199525000Y-105767142D01*
X199620238Y-105671904D01*
X199715476Y-105624285D01*
X199905952Y-105576666D01*
X200048809Y-105576666D01*
X200239285Y-105624285D01*
X200334523Y-105671904D01*
X200429761Y-105767142D01*
X200477380Y-105910000D01*
X200477380Y-106148095D01*
X199810714Y-104719523D02*
X200477380Y-104719523D01*
X199429761Y-104957619D02*
X200144047Y-105195714D01*
X200144047Y-104576666D01*
X206938571Y-106719523D02*
X206986190Y-106576666D01*
X207033809Y-106529047D01*
X207129047Y-106481428D01*
X207271904Y-106481428D01*
X207367142Y-106529047D01*
X207414761Y-106576666D01*
X207462380Y-106671904D01*
X207462380Y-107052857D01*
X206462380Y-107052857D01*
X206462380Y-106719523D01*
X206510000Y-106624285D01*
X206557619Y-106576666D01*
X206652857Y-106529047D01*
X206748095Y-106529047D01*
X206843333Y-106576666D01*
X206890952Y-106624285D01*
X206938571Y-106719523D01*
X206938571Y-107052857D01*
X207462380Y-105576666D02*
X207462380Y-106052857D01*
X206462380Y-106052857D01*
X206462380Y-105243333D02*
X207271904Y-105243333D01*
X207367142Y-105195714D01*
X207414761Y-105148095D01*
X207462380Y-105052857D01*
X207462380Y-104862380D01*
X207414761Y-104767142D01*
X207367142Y-104719523D01*
X207271904Y-104671904D01*
X206462380Y-104671904D01*
X206938571Y-104195714D02*
X206938571Y-103862380D01*
X207462380Y-103719523D02*
X207462380Y-104195714D01*
X206462380Y-104195714D01*
X206462380Y-103719523D01*
%TO.C,J3*%
X199477380Y-94948333D02*
X200191666Y-94948333D01*
X200334523Y-94995952D01*
X200429761Y-95091190D01*
X200477380Y-95234047D01*
X200477380Y-95329285D01*
X199477380Y-94567380D02*
X199477380Y-93948333D01*
X199858333Y-94281666D01*
X199858333Y-94138809D01*
X199905952Y-94043571D01*
X199953571Y-93995952D01*
X200048809Y-93948333D01*
X200286904Y-93948333D01*
X200382142Y-93995952D01*
X200429761Y-94043571D01*
X200477380Y-94138809D01*
X200477380Y-94424523D01*
X200429761Y-94519761D01*
X200382142Y-94567380D01*
X205557380Y-95686428D02*
X204557380Y-95686428D01*
X205033571Y-95686428D02*
X205033571Y-95115000D01*
X205557380Y-95115000D02*
X204557380Y-95115000D01*
X205557380Y-94162619D02*
X205557380Y-94638809D01*
X204557380Y-94638809D01*
X204557380Y-93972142D02*
X204557380Y-93400714D01*
X205557380Y-93686428D02*
X204557380Y-93686428D01*
%TO.C,J5*%
X199477380Y-99393333D02*
X200191666Y-99393333D01*
X200334523Y-99440952D01*
X200429761Y-99536190D01*
X200477380Y-99679047D01*
X200477380Y-99774285D01*
X199477380Y-98440952D02*
X199477380Y-98917142D01*
X199953571Y-98964761D01*
X199905952Y-98917142D01*
X199858333Y-98821904D01*
X199858333Y-98583809D01*
X199905952Y-98488571D01*
X199953571Y-98440952D01*
X200048809Y-98393333D01*
X200286904Y-98393333D01*
X200382142Y-98440952D01*
X200429761Y-98488571D01*
X200477380Y-98583809D01*
X200477380Y-98821904D01*
X200429761Y-98917142D01*
X200382142Y-98964761D01*
X205462142Y-99655238D02*
X205509761Y-99702857D01*
X205557380Y-99845714D01*
X205557380Y-99940952D01*
X205509761Y-100083809D01*
X205414523Y-100179047D01*
X205319285Y-100226666D01*
X205128809Y-100274285D01*
X204985952Y-100274285D01*
X204795476Y-100226666D01*
X204700238Y-100179047D01*
X204605000Y-100083809D01*
X204557380Y-99940952D01*
X204557380Y-99845714D01*
X204605000Y-99702857D01*
X204652619Y-99655238D01*
X205557380Y-98750476D02*
X205557380Y-99226666D01*
X204557380Y-99226666D01*
X205557380Y-98417142D02*
X204557380Y-98417142D01*
X205557380Y-97845714D02*
X204985952Y-98274285D01*
X204557380Y-97845714D02*
X205128809Y-98417142D01*
%TO.C,R1*%
X122372380Y-106846666D02*
X121896190Y-107180000D01*
X122372380Y-107418095D02*
X121372380Y-107418095D01*
X121372380Y-107037142D01*
X121420000Y-106941904D01*
X121467619Y-106894285D01*
X121562857Y-106846666D01*
X121705714Y-106846666D01*
X121800952Y-106894285D01*
X121848571Y-106941904D01*
X121896190Y-107037142D01*
X121896190Y-107418095D01*
X122372380Y-105894285D02*
X122372380Y-106465714D01*
X122372380Y-106180000D02*
X121372380Y-106180000D01*
X121515238Y-106275238D01*
X121610476Y-106370476D01*
X121658095Y-106465714D01*
%TO.C,R2*%
X144597380Y-123991666D02*
X144121190Y-124325000D01*
X144597380Y-124563095D02*
X143597380Y-124563095D01*
X143597380Y-124182142D01*
X143645000Y-124086904D01*
X143692619Y-124039285D01*
X143787857Y-123991666D01*
X143930714Y-123991666D01*
X144025952Y-124039285D01*
X144073571Y-124086904D01*
X144121190Y-124182142D01*
X144121190Y-124563095D01*
X143692619Y-123610714D02*
X143645000Y-123563095D01*
X143597380Y-123467857D01*
X143597380Y-123229761D01*
X143645000Y-123134523D01*
X143692619Y-123086904D01*
X143787857Y-123039285D01*
X143883095Y-123039285D01*
X144025952Y-123086904D01*
X144597380Y-123658333D01*
X144597380Y-123039285D01*
%TO.C,R4*%
X152217380Y-123991666D02*
X151741190Y-124325000D01*
X152217380Y-124563095D02*
X151217380Y-124563095D01*
X151217380Y-124182142D01*
X151265000Y-124086904D01*
X151312619Y-124039285D01*
X151407857Y-123991666D01*
X151550714Y-123991666D01*
X151645952Y-124039285D01*
X151693571Y-124086904D01*
X151741190Y-124182142D01*
X151741190Y-124563095D01*
X151550714Y-123134523D02*
X152217380Y-123134523D01*
X151169761Y-123372619D02*
X151884047Y-123610714D01*
X151884047Y-122991666D01*
%TO.C,R5*%
X156027380Y-123991666D02*
X155551190Y-124325000D01*
X156027380Y-124563095D02*
X155027380Y-124563095D01*
X155027380Y-124182142D01*
X155075000Y-124086904D01*
X155122619Y-124039285D01*
X155217857Y-123991666D01*
X155360714Y-123991666D01*
X155455952Y-124039285D01*
X155503571Y-124086904D01*
X155551190Y-124182142D01*
X155551190Y-124563095D01*
X155027380Y-123086904D02*
X155027380Y-123563095D01*
X155503571Y-123610714D01*
X155455952Y-123563095D01*
X155408333Y-123467857D01*
X155408333Y-123229761D01*
X155455952Y-123134523D01*
X155503571Y-123086904D01*
X155598809Y-123039285D01*
X155836904Y-123039285D01*
X155932142Y-123086904D01*
X155979761Y-123134523D01*
X156027380Y-123229761D01*
X156027380Y-123467857D01*
X155979761Y-123563095D01*
X155932142Y-123610714D01*
%TO.C,R6*%
X159837380Y-123991666D02*
X159361190Y-124325000D01*
X159837380Y-124563095D02*
X158837380Y-124563095D01*
X158837380Y-124182142D01*
X158885000Y-124086904D01*
X158932619Y-124039285D01*
X159027857Y-123991666D01*
X159170714Y-123991666D01*
X159265952Y-124039285D01*
X159313571Y-124086904D01*
X159361190Y-124182142D01*
X159361190Y-124563095D01*
X158837380Y-123134523D02*
X158837380Y-123325000D01*
X158885000Y-123420238D01*
X158932619Y-123467857D01*
X159075476Y-123563095D01*
X159265952Y-123610714D01*
X159646904Y-123610714D01*
X159742142Y-123563095D01*
X159789761Y-123515476D01*
X159837380Y-123420238D01*
X159837380Y-123229761D01*
X159789761Y-123134523D01*
X159742142Y-123086904D01*
X159646904Y-123039285D01*
X159408809Y-123039285D01*
X159313571Y-123086904D01*
X159265952Y-123134523D01*
X159218333Y-123229761D01*
X159218333Y-123420238D01*
X159265952Y-123515476D01*
X159313571Y-123563095D01*
X159408809Y-123610714D01*
%TO.C,R7*%
X117292380Y-122086666D02*
X116816190Y-122420000D01*
X117292380Y-122658095D02*
X116292380Y-122658095D01*
X116292380Y-122277142D01*
X116340000Y-122181904D01*
X116387619Y-122134285D01*
X116482857Y-122086666D01*
X116625714Y-122086666D01*
X116720952Y-122134285D01*
X116768571Y-122181904D01*
X116816190Y-122277142D01*
X116816190Y-122658095D01*
X116292380Y-121753333D02*
X116292380Y-121086666D01*
X117292380Y-121515238D01*
%TO.C,R8*%
X117927380Y-106846666D02*
X117451190Y-107180000D01*
X117927380Y-107418095D02*
X116927380Y-107418095D01*
X116927380Y-107037142D01*
X116975000Y-106941904D01*
X117022619Y-106894285D01*
X117117857Y-106846666D01*
X117260714Y-106846666D01*
X117355952Y-106894285D01*
X117403571Y-106941904D01*
X117451190Y-107037142D01*
X117451190Y-107418095D01*
X117355952Y-106275238D02*
X117308333Y-106370476D01*
X117260714Y-106418095D01*
X117165476Y-106465714D01*
X117117857Y-106465714D01*
X117022619Y-106418095D01*
X116975000Y-106370476D01*
X116927380Y-106275238D01*
X116927380Y-106084761D01*
X116975000Y-105989523D01*
X117022619Y-105941904D01*
X117117857Y-105894285D01*
X117165476Y-105894285D01*
X117260714Y-105941904D01*
X117308333Y-105989523D01*
X117355952Y-106084761D01*
X117355952Y-106275238D01*
X117403571Y-106370476D01*
X117451190Y-106418095D01*
X117546428Y-106465714D01*
X117736904Y-106465714D01*
X117832142Y-106418095D01*
X117879761Y-106370476D01*
X117927380Y-106275238D01*
X117927380Y-106084761D01*
X117879761Y-105989523D01*
X117832142Y-105941904D01*
X117736904Y-105894285D01*
X117546428Y-105894285D01*
X117451190Y-105941904D01*
X117403571Y-105989523D01*
X117355952Y-106084761D01*
%TO.C,U1*%
X138247380Y-108846666D02*
X137247380Y-108846666D01*
X138247380Y-108275238D01*
X137247380Y-108275238D01*
X137723571Y-107799047D02*
X137723571Y-107465714D01*
X138247380Y-107322857D02*
X138247380Y-107799047D01*
X137247380Y-107799047D01*
X137247380Y-107322857D01*
X137247380Y-106418095D02*
X137247380Y-106894285D01*
X137723571Y-106941904D01*
X137675952Y-106894285D01*
X137628333Y-106799047D01*
X137628333Y-106560952D01*
X137675952Y-106465714D01*
X137723571Y-106418095D01*
X137818809Y-106370476D01*
X138056904Y-106370476D01*
X138152142Y-106418095D01*
X138199761Y-106465714D01*
X138247380Y-106560952D01*
X138247380Y-106799047D01*
X138199761Y-106894285D01*
X138152142Y-106941904D01*
X137247380Y-105465714D02*
X137247380Y-105941904D01*
X137723571Y-105989523D01*
X137675952Y-105941904D01*
X137628333Y-105846666D01*
X137628333Y-105608571D01*
X137675952Y-105513333D01*
X137723571Y-105465714D01*
X137818809Y-105418095D01*
X138056904Y-105418095D01*
X138152142Y-105465714D01*
X138199761Y-105513333D01*
X138247380Y-105608571D01*
X138247380Y-105846666D01*
X138199761Y-105941904D01*
X138152142Y-105989523D01*
X137247380Y-104513333D02*
X137247380Y-104989523D01*
X137723571Y-105037142D01*
X137675952Y-104989523D01*
X137628333Y-104894285D01*
X137628333Y-104656190D01*
X137675952Y-104560952D01*
X137723571Y-104513333D01*
X137818809Y-104465714D01*
X138056904Y-104465714D01*
X138152142Y-104513333D01*
X138199761Y-104560952D01*
X138247380Y-104656190D01*
X138247380Y-104894285D01*
X138199761Y-104989523D01*
X138152142Y-105037142D01*
X130262380Y-107441904D02*
X131071904Y-107441904D01*
X131167142Y-107394285D01*
X131214761Y-107346666D01*
X131262380Y-107251428D01*
X131262380Y-107060952D01*
X131214761Y-106965714D01*
X131167142Y-106918095D01*
X131071904Y-106870476D01*
X130262380Y-106870476D01*
X131262380Y-105870476D02*
X131262380Y-106441904D01*
X131262380Y-106156190D02*
X130262380Y-106156190D01*
X130405238Y-106251428D01*
X130500476Y-106346666D01*
X130548095Y-106441904D01*
%TO.C,U2*%
X138247380Y-96146666D02*
X137247380Y-96146666D01*
X138247380Y-95575238D01*
X137247380Y-95575238D01*
X137723571Y-95099047D02*
X137723571Y-94765714D01*
X138247380Y-94622857D02*
X138247380Y-95099047D01*
X137247380Y-95099047D01*
X137247380Y-94622857D01*
X137247380Y-93718095D02*
X137247380Y-94194285D01*
X137723571Y-94241904D01*
X137675952Y-94194285D01*
X137628333Y-94099047D01*
X137628333Y-93860952D01*
X137675952Y-93765714D01*
X137723571Y-93718095D01*
X137818809Y-93670476D01*
X138056904Y-93670476D01*
X138152142Y-93718095D01*
X138199761Y-93765714D01*
X138247380Y-93860952D01*
X138247380Y-94099047D01*
X138199761Y-94194285D01*
X138152142Y-94241904D01*
X137247380Y-92765714D02*
X137247380Y-93241904D01*
X137723571Y-93289523D01*
X137675952Y-93241904D01*
X137628333Y-93146666D01*
X137628333Y-92908571D01*
X137675952Y-92813333D01*
X137723571Y-92765714D01*
X137818809Y-92718095D01*
X138056904Y-92718095D01*
X138152142Y-92765714D01*
X138199761Y-92813333D01*
X138247380Y-92908571D01*
X138247380Y-93146666D01*
X138199761Y-93241904D01*
X138152142Y-93289523D01*
X137247380Y-91813333D02*
X137247380Y-92289523D01*
X137723571Y-92337142D01*
X137675952Y-92289523D01*
X137628333Y-92194285D01*
X137628333Y-91956190D01*
X137675952Y-91860952D01*
X137723571Y-91813333D01*
X137818809Y-91765714D01*
X138056904Y-91765714D01*
X138152142Y-91813333D01*
X138199761Y-91860952D01*
X138247380Y-91956190D01*
X138247380Y-92194285D01*
X138199761Y-92289523D01*
X138152142Y-92337142D01*
X130262380Y-94741904D02*
X131071904Y-94741904D01*
X131167142Y-94694285D01*
X131214761Y-94646666D01*
X131262380Y-94551428D01*
X131262380Y-94360952D01*
X131214761Y-94265714D01*
X131167142Y-94218095D01*
X131071904Y-94170476D01*
X130262380Y-94170476D01*
X130357619Y-93741904D02*
X130310000Y-93694285D01*
X130262380Y-93599047D01*
X130262380Y-93360952D01*
X130310000Y-93265714D01*
X130357619Y-93218095D01*
X130452857Y-93170476D01*
X130548095Y-93170476D01*
X130690952Y-93218095D01*
X131262380Y-93789523D01*
X131262380Y-93170476D01*
%TO.C,U3*%
X138247380Y-83446666D02*
X137247380Y-83446666D01*
X138247380Y-82875238D01*
X137247380Y-82875238D01*
X137723571Y-82399047D02*
X137723571Y-82065714D01*
X138247380Y-81922857D02*
X138247380Y-82399047D01*
X137247380Y-82399047D01*
X137247380Y-81922857D01*
X137247380Y-81018095D02*
X137247380Y-81494285D01*
X137723571Y-81541904D01*
X137675952Y-81494285D01*
X137628333Y-81399047D01*
X137628333Y-81160952D01*
X137675952Y-81065714D01*
X137723571Y-81018095D01*
X137818809Y-80970476D01*
X138056904Y-80970476D01*
X138152142Y-81018095D01*
X138199761Y-81065714D01*
X138247380Y-81160952D01*
X138247380Y-81399047D01*
X138199761Y-81494285D01*
X138152142Y-81541904D01*
X137247380Y-80065714D02*
X137247380Y-80541904D01*
X137723571Y-80589523D01*
X137675952Y-80541904D01*
X137628333Y-80446666D01*
X137628333Y-80208571D01*
X137675952Y-80113333D01*
X137723571Y-80065714D01*
X137818809Y-80018095D01*
X138056904Y-80018095D01*
X138152142Y-80065714D01*
X138199761Y-80113333D01*
X138247380Y-80208571D01*
X138247380Y-80446666D01*
X138199761Y-80541904D01*
X138152142Y-80589523D01*
X137247380Y-79113333D02*
X137247380Y-79589523D01*
X137723571Y-79637142D01*
X137675952Y-79589523D01*
X137628333Y-79494285D01*
X137628333Y-79256190D01*
X137675952Y-79160952D01*
X137723571Y-79113333D01*
X137818809Y-79065714D01*
X138056904Y-79065714D01*
X138152142Y-79113333D01*
X138199761Y-79160952D01*
X138247380Y-79256190D01*
X138247380Y-79494285D01*
X138199761Y-79589523D01*
X138152142Y-79637142D01*
X130262380Y-82041904D02*
X131071904Y-82041904D01*
X131167142Y-81994285D01*
X131214761Y-81946666D01*
X131262380Y-81851428D01*
X131262380Y-81660952D01*
X131214761Y-81565714D01*
X131167142Y-81518095D01*
X131071904Y-81470476D01*
X130262380Y-81470476D01*
X130262380Y-81089523D02*
X130262380Y-80470476D01*
X130643333Y-80803809D01*
X130643333Y-80660952D01*
X130690952Y-80565714D01*
X130738571Y-80518095D01*
X130833809Y-80470476D01*
X131071904Y-80470476D01*
X131167142Y-80518095D01*
X131214761Y-80565714D01*
X131262380Y-80660952D01*
X131262380Y-80946666D01*
X131214761Y-81041904D01*
X131167142Y-81089523D01*
%TO.C,U5*%
X193127380Y-97257857D02*
X193127380Y-96591190D01*
X194127380Y-97019761D01*
X193460714Y-95781666D02*
X194127380Y-95781666D01*
X193079761Y-96019761D02*
X193794047Y-96257857D01*
X193794047Y-95638809D01*
X194127380Y-94781666D02*
X194127380Y-95257857D01*
X193127380Y-95257857D01*
X194079761Y-94495952D02*
X194127380Y-94353095D01*
X194127380Y-94115000D01*
X194079761Y-94019761D01*
X194032142Y-93972142D01*
X193936904Y-93924523D01*
X193841666Y-93924523D01*
X193746428Y-93972142D01*
X193698809Y-94019761D01*
X193651190Y-94115000D01*
X193603571Y-94305476D01*
X193555952Y-94400714D01*
X193508333Y-94448333D01*
X193413095Y-94495952D01*
X193317857Y-94495952D01*
X193222619Y-94448333D01*
X193175000Y-94400714D01*
X193127380Y-94305476D01*
X193127380Y-94067380D01*
X193175000Y-93924523D01*
X193127380Y-93305476D02*
X193127380Y-93210238D01*
X193175000Y-93115000D01*
X193222619Y-93067380D01*
X193317857Y-93019761D01*
X193508333Y-92972142D01*
X193746428Y-92972142D01*
X193936904Y-93019761D01*
X194032142Y-93067380D01*
X194079761Y-93115000D01*
X194127380Y-93210238D01*
X194127380Y-93305476D01*
X194079761Y-93400714D01*
X194032142Y-93448333D01*
X193936904Y-93495952D01*
X193746428Y-93543571D01*
X193508333Y-93543571D01*
X193317857Y-93495952D01*
X193222619Y-93448333D01*
X193175000Y-93400714D01*
X193127380Y-93305476D01*
X193460714Y-92115000D02*
X194127380Y-92115000D01*
X193079761Y-92353095D02*
X193794047Y-92591190D01*
X193794047Y-91972142D01*
X182332380Y-95376904D02*
X183141904Y-95376904D01*
X183237142Y-95329285D01*
X183284761Y-95281666D01*
X183332380Y-95186428D01*
X183332380Y-94995952D01*
X183284761Y-94900714D01*
X183237142Y-94853095D01*
X183141904Y-94805476D01*
X182332380Y-94805476D01*
X182332380Y-93853095D02*
X182332380Y-94329285D01*
X182808571Y-94376904D01*
X182760952Y-94329285D01*
X182713333Y-94234047D01*
X182713333Y-93995952D01*
X182760952Y-93900714D01*
X182808571Y-93853095D01*
X182903809Y-93805476D01*
X183141904Y-93805476D01*
X183237142Y-93853095D01*
X183284761Y-93900714D01*
X183332380Y-93995952D01*
X183332380Y-94234047D01*
X183284761Y-94329285D01*
X183237142Y-94376904D01*
%TO.C,U6*%
X193127380Y-84557857D02*
X193127380Y-83891190D01*
X194127380Y-84319761D01*
X193460714Y-83081666D02*
X194127380Y-83081666D01*
X193079761Y-83319761D02*
X193794047Y-83557857D01*
X193794047Y-82938809D01*
X194127380Y-82081666D02*
X194127380Y-82557857D01*
X193127380Y-82557857D01*
X194079761Y-81795952D02*
X194127380Y-81653095D01*
X194127380Y-81415000D01*
X194079761Y-81319761D01*
X194032142Y-81272142D01*
X193936904Y-81224523D01*
X193841666Y-81224523D01*
X193746428Y-81272142D01*
X193698809Y-81319761D01*
X193651190Y-81415000D01*
X193603571Y-81605476D01*
X193555952Y-81700714D01*
X193508333Y-81748333D01*
X193413095Y-81795952D01*
X193317857Y-81795952D01*
X193222619Y-81748333D01*
X193175000Y-81700714D01*
X193127380Y-81605476D01*
X193127380Y-81367380D01*
X193175000Y-81224523D01*
X193127380Y-80891190D02*
X193127380Y-80272142D01*
X193508333Y-80605476D01*
X193508333Y-80462619D01*
X193555952Y-80367380D01*
X193603571Y-80319761D01*
X193698809Y-80272142D01*
X193936904Y-80272142D01*
X194032142Y-80319761D01*
X194079761Y-80367380D01*
X194127380Y-80462619D01*
X194127380Y-80748333D01*
X194079761Y-80843571D01*
X194032142Y-80891190D01*
X193222619Y-79891190D02*
X193175000Y-79843571D01*
X193127380Y-79748333D01*
X193127380Y-79510238D01*
X193175000Y-79415000D01*
X193222619Y-79367380D01*
X193317857Y-79319761D01*
X193413095Y-79319761D01*
X193555952Y-79367380D01*
X194127380Y-79938809D01*
X194127380Y-79319761D01*
X182332380Y-82676904D02*
X183141904Y-82676904D01*
X183237142Y-82629285D01*
X183284761Y-82581666D01*
X183332380Y-82486428D01*
X183332380Y-82295952D01*
X183284761Y-82200714D01*
X183237142Y-82153095D01*
X183141904Y-82105476D01*
X182332380Y-82105476D01*
X182332380Y-81200714D02*
X182332380Y-81391190D01*
X182380000Y-81486428D01*
X182427619Y-81534047D01*
X182570476Y-81629285D01*
X182760952Y-81676904D01*
X183141904Y-81676904D01*
X183237142Y-81629285D01*
X183284761Y-81581666D01*
X183332380Y-81486428D01*
X183332380Y-81295952D01*
X183284761Y-81200714D01*
X183237142Y-81153095D01*
X183141904Y-81105476D01*
X182903809Y-81105476D01*
X182808571Y-81153095D01*
X182760952Y-81200714D01*
X182713333Y-81295952D01*
X182713333Y-81486428D01*
X182760952Y-81581666D01*
X182808571Y-81629285D01*
X182903809Y-81676904D01*
%TO.C,SW1*%
X102294760Y-101103334D02*
X102342379Y-100960477D01*
X102342379Y-100722381D01*
X102294760Y-100627143D01*
X102247141Y-100579524D01*
X102151903Y-100531905D01*
X102056665Y-100531905D01*
X101961427Y-100579524D01*
X101913808Y-100627143D01*
X101866189Y-100722381D01*
X101818570Y-100912858D01*
X101770951Y-101008096D01*
X101723332Y-101055715D01*
X101628094Y-101103334D01*
X101532856Y-101103334D01*
X101437618Y-101055715D01*
X101389999Y-101008096D01*
X101342379Y-100912858D01*
X101342379Y-100674762D01*
X101389999Y-100531905D01*
X101342379Y-100198572D02*
X102342379Y-99960477D01*
X101628094Y-99770001D01*
X102342379Y-99579524D01*
X101342379Y-99341429D01*
X102342379Y-98436667D02*
X102342379Y-99008096D01*
X102342379Y-98722381D02*
X101342379Y-98722381D01*
X101485237Y-98817620D01*
X101580475Y-98912858D01*
X101628094Y-99008096D01*
%TO.C,J2*%
X157567380Y-101298333D02*
X158281666Y-101298333D01*
X158424523Y-101345952D01*
X158519761Y-101441190D01*
X158567380Y-101584047D01*
X158567380Y-101679285D01*
X157662619Y-100869761D02*
X157615000Y-100822142D01*
X157567380Y-100726904D01*
X157567380Y-100488809D01*
X157615000Y-100393571D01*
X157662619Y-100345952D01*
X157757857Y-100298333D01*
X157853095Y-100298333D01*
X157995952Y-100345952D01*
X158567380Y-100917380D01*
X158567380Y-100298333D01*
X153757380Y-101155476D02*
X153757380Y-101631666D01*
X154233571Y-101679285D01*
X154185952Y-101631666D01*
X154138333Y-101536428D01*
X154138333Y-101298333D01*
X154185952Y-101203095D01*
X154233571Y-101155476D01*
X154328809Y-101107857D01*
X154566904Y-101107857D01*
X154662142Y-101155476D01*
X154709761Y-101203095D01*
X154757380Y-101298333D01*
X154757380Y-101536428D01*
X154709761Y-101631666D01*
X154662142Y-101679285D01*
X153757380Y-100822142D02*
X154757380Y-100488809D01*
X153757380Y-100155476D01*
%TO.C,U4*%
X193127380Y-109957857D02*
X193127380Y-109291190D01*
X194127380Y-109719761D01*
X193460714Y-108481666D02*
X194127380Y-108481666D01*
X193079761Y-108719761D02*
X193794047Y-108957857D01*
X193794047Y-108338809D01*
X194127380Y-107481666D02*
X194127380Y-107957857D01*
X193127380Y-107957857D01*
X194079761Y-107195952D02*
X194127380Y-107053095D01*
X194127380Y-106815000D01*
X194079761Y-106719761D01*
X194032142Y-106672142D01*
X193936904Y-106624523D01*
X193841666Y-106624523D01*
X193746428Y-106672142D01*
X193698809Y-106719761D01*
X193651190Y-106815000D01*
X193603571Y-107005476D01*
X193555952Y-107100714D01*
X193508333Y-107148333D01*
X193413095Y-107195952D01*
X193317857Y-107195952D01*
X193222619Y-107148333D01*
X193175000Y-107100714D01*
X193127380Y-107005476D01*
X193127380Y-106767380D01*
X193175000Y-106624523D01*
X193127380Y-106005476D02*
X193127380Y-105910238D01*
X193175000Y-105815000D01*
X193222619Y-105767380D01*
X193317857Y-105719761D01*
X193508333Y-105672142D01*
X193746428Y-105672142D01*
X193936904Y-105719761D01*
X194032142Y-105767380D01*
X194079761Y-105815000D01*
X194127380Y-105910238D01*
X194127380Y-106005476D01*
X194079761Y-106100714D01*
X194032142Y-106148333D01*
X193936904Y-106195952D01*
X193746428Y-106243571D01*
X193508333Y-106243571D01*
X193317857Y-106195952D01*
X193222619Y-106148333D01*
X193175000Y-106100714D01*
X193127380Y-106005476D01*
X193555952Y-105100714D02*
X193508333Y-105195952D01*
X193460714Y-105243571D01*
X193365476Y-105291190D01*
X193317857Y-105291190D01*
X193222619Y-105243571D01*
X193175000Y-105195952D01*
X193127380Y-105100714D01*
X193127380Y-104910238D01*
X193175000Y-104815000D01*
X193222619Y-104767380D01*
X193317857Y-104719761D01*
X193365476Y-104719761D01*
X193460714Y-104767380D01*
X193508333Y-104815000D01*
X193555952Y-104910238D01*
X193555952Y-105100714D01*
X193603571Y-105195952D01*
X193651190Y-105243571D01*
X193746428Y-105291190D01*
X193936904Y-105291190D01*
X194032142Y-105243571D01*
X194079761Y-105195952D01*
X194127380Y-105100714D01*
X194127380Y-104910238D01*
X194079761Y-104815000D01*
X194032142Y-104767380D01*
X193936904Y-104719761D01*
X193746428Y-104719761D01*
X193651190Y-104767380D01*
X193603571Y-104815000D01*
X193555952Y-104910238D01*
X182332380Y-108076904D02*
X183141904Y-108076904D01*
X183237142Y-108029285D01*
X183284761Y-107981666D01*
X183332380Y-107886428D01*
X183332380Y-107695952D01*
X183284761Y-107600714D01*
X183237142Y-107553095D01*
X183141904Y-107505476D01*
X182332380Y-107505476D01*
X182665714Y-106600714D02*
X183332380Y-106600714D01*
X182284761Y-106838809D02*
X182999047Y-107076904D01*
X182999047Y-106457857D01*
%TO.C,C9*%
X171767142Y-82041666D02*
X171814761Y-82089285D01*
X171862380Y-82232142D01*
X171862380Y-82327380D01*
X171814761Y-82470238D01*
X171719523Y-82565476D01*
X171624285Y-82613095D01*
X171433809Y-82660714D01*
X171290952Y-82660714D01*
X171100476Y-82613095D01*
X171005238Y-82565476D01*
X170910000Y-82470238D01*
X170862380Y-82327380D01*
X170862380Y-82232142D01*
X170910000Y-82089285D01*
X170957619Y-82041666D01*
X171862380Y-81565476D02*
X171862380Y-81375000D01*
X171814761Y-81279761D01*
X171767142Y-81232142D01*
X171624285Y-81136904D01*
X171433809Y-81089285D01*
X171052857Y-81089285D01*
X170957619Y-81136904D01*
X170910000Y-81184523D01*
X170862380Y-81279761D01*
X170862380Y-81470238D01*
X170910000Y-81565476D01*
X170957619Y-81613095D01*
X171052857Y-81660714D01*
X171290952Y-81660714D01*
X171386190Y-81613095D01*
X171433809Y-81565476D01*
X171481428Y-81470238D01*
X171481428Y-81279761D01*
X171433809Y-81184523D01*
X171386190Y-81136904D01*
X171290952Y-81089285D01*
%TO.C,C8*%
X171767142Y-94741666D02*
X171814761Y-94789285D01*
X171862380Y-94932142D01*
X171862380Y-95027380D01*
X171814761Y-95170238D01*
X171719523Y-95265476D01*
X171624285Y-95313095D01*
X171433809Y-95360714D01*
X171290952Y-95360714D01*
X171100476Y-95313095D01*
X171005238Y-95265476D01*
X170910000Y-95170238D01*
X170862380Y-95027380D01*
X170862380Y-94932142D01*
X170910000Y-94789285D01*
X170957619Y-94741666D01*
X171290952Y-94170238D02*
X171243333Y-94265476D01*
X171195714Y-94313095D01*
X171100476Y-94360714D01*
X171052857Y-94360714D01*
X170957619Y-94313095D01*
X170910000Y-94265476D01*
X170862380Y-94170238D01*
X170862380Y-93979761D01*
X170910000Y-93884523D01*
X170957619Y-93836904D01*
X171052857Y-93789285D01*
X171100476Y-93789285D01*
X171195714Y-93836904D01*
X171243333Y-93884523D01*
X171290952Y-93979761D01*
X171290952Y-94170238D01*
X171338571Y-94265476D01*
X171386190Y-94313095D01*
X171481428Y-94360714D01*
X171671904Y-94360714D01*
X171767142Y-94313095D01*
X171814761Y-94265476D01*
X171862380Y-94170238D01*
X171862380Y-93979761D01*
X171814761Y-93884523D01*
X171767142Y-93836904D01*
X171671904Y-93789285D01*
X171481428Y-93789285D01*
X171386190Y-93836904D01*
X171338571Y-93884523D01*
X171290952Y-93979761D01*
%TO.C,R9*%
X117927380Y-88431666D02*
X117451190Y-88765000D01*
X117927380Y-89003095D02*
X116927380Y-89003095D01*
X116927380Y-88622142D01*
X116975000Y-88526904D01*
X117022619Y-88479285D01*
X117117857Y-88431666D01*
X117260714Y-88431666D01*
X117355952Y-88479285D01*
X117403571Y-88526904D01*
X117451190Y-88622142D01*
X117451190Y-89003095D01*
X117927380Y-87955476D02*
X117927380Y-87765000D01*
X117879761Y-87669761D01*
X117832142Y-87622142D01*
X117689285Y-87526904D01*
X117498809Y-87479285D01*
X117117857Y-87479285D01*
X117022619Y-87526904D01*
X116975000Y-87574523D01*
X116927380Y-87669761D01*
X116927380Y-87860238D01*
X116975000Y-87955476D01*
X117022619Y-88003095D01*
X117117857Y-88050714D01*
X117355952Y-88050714D01*
X117451190Y-88003095D01*
X117498809Y-87955476D01*
X117546428Y-87860238D01*
X117546428Y-87669761D01*
X117498809Y-87574523D01*
X117451190Y-87526904D01*
X117355952Y-87479285D01*
%TO.C,R11*%
X201747380Y-124467857D02*
X201271190Y-124801190D01*
X201747380Y-125039285D02*
X200747380Y-125039285D01*
X200747380Y-124658333D01*
X200795000Y-124563095D01*
X200842619Y-124515476D01*
X200937857Y-124467857D01*
X201080714Y-124467857D01*
X201175952Y-124515476D01*
X201223571Y-124563095D01*
X201271190Y-124658333D01*
X201271190Y-125039285D01*
X201747380Y-123515476D02*
X201747380Y-124086904D01*
X201747380Y-123801190D02*
X200747380Y-123801190D01*
X200890238Y-123896428D01*
X200985476Y-123991666D01*
X201033095Y-124086904D01*
X201747380Y-122563095D02*
X201747380Y-123134523D01*
X201747380Y-122848809D02*
X200747380Y-122848809D01*
X200890238Y-122944047D01*
X200985476Y-123039285D01*
X201033095Y-123134523D01*
%TO.C,R12*%
X197937380Y-124467857D02*
X197461190Y-124801190D01*
X197937380Y-125039285D02*
X196937380Y-125039285D01*
X196937380Y-124658333D01*
X196985000Y-124563095D01*
X197032619Y-124515476D01*
X197127857Y-124467857D01*
X197270714Y-124467857D01*
X197365952Y-124515476D01*
X197413571Y-124563095D01*
X197461190Y-124658333D01*
X197461190Y-125039285D01*
X197937380Y-123515476D02*
X197937380Y-124086904D01*
X197937380Y-123801190D02*
X196937380Y-123801190D01*
X197080238Y-123896428D01*
X197175476Y-123991666D01*
X197223095Y-124086904D01*
X197032619Y-123134523D02*
X196985000Y-123086904D01*
X196937380Y-122991666D01*
X196937380Y-122753571D01*
X196985000Y-122658333D01*
X197032619Y-122610714D01*
X197127857Y-122563095D01*
X197223095Y-122563095D01*
X197365952Y-122610714D01*
X197937380Y-123182142D01*
X197937380Y-122563095D01*
%TO.C,R13*%
X194127380Y-124467857D02*
X193651190Y-124801190D01*
X194127380Y-125039285D02*
X193127380Y-125039285D01*
X193127380Y-124658333D01*
X193175000Y-124563095D01*
X193222619Y-124515476D01*
X193317857Y-124467857D01*
X193460714Y-124467857D01*
X193555952Y-124515476D01*
X193603571Y-124563095D01*
X193651190Y-124658333D01*
X193651190Y-125039285D01*
X194127380Y-123515476D02*
X194127380Y-124086904D01*
X194127380Y-123801190D02*
X193127380Y-123801190D01*
X193270238Y-123896428D01*
X193365476Y-123991666D01*
X193413095Y-124086904D01*
X193127380Y-123182142D02*
X193127380Y-122563095D01*
X193508333Y-122896428D01*
X193508333Y-122753571D01*
X193555952Y-122658333D01*
X193603571Y-122610714D01*
X193698809Y-122563095D01*
X193936904Y-122563095D01*
X194032142Y-122610714D01*
X194079761Y-122658333D01*
X194127380Y-122753571D01*
X194127380Y-123039285D01*
X194079761Y-123134523D01*
X194032142Y-123182142D01*
%TO.C,R15*%
X186507380Y-124467857D02*
X186031190Y-124801190D01*
X186507380Y-125039285D02*
X185507380Y-125039285D01*
X185507380Y-124658333D01*
X185555000Y-124563095D01*
X185602619Y-124515476D01*
X185697857Y-124467857D01*
X185840714Y-124467857D01*
X185935952Y-124515476D01*
X185983571Y-124563095D01*
X186031190Y-124658333D01*
X186031190Y-125039285D01*
X186507380Y-123515476D02*
X186507380Y-124086904D01*
X186507380Y-123801190D02*
X185507380Y-123801190D01*
X185650238Y-123896428D01*
X185745476Y-123991666D01*
X185793095Y-124086904D01*
X185507380Y-122610714D02*
X185507380Y-123086904D01*
X185983571Y-123134523D01*
X185935952Y-123086904D01*
X185888333Y-122991666D01*
X185888333Y-122753571D01*
X185935952Y-122658333D01*
X185983571Y-122610714D01*
X186078809Y-122563095D01*
X186316904Y-122563095D01*
X186412142Y-122610714D01*
X186459761Y-122658333D01*
X186507380Y-122753571D01*
X186507380Y-122991666D01*
X186459761Y-123086904D01*
X186412142Y-123134523D01*
%TO.C,R16*%
X182697380Y-124467857D02*
X182221190Y-124801190D01*
X182697380Y-125039285D02*
X181697380Y-125039285D01*
X181697380Y-124658333D01*
X181745000Y-124563095D01*
X181792619Y-124515476D01*
X181887857Y-124467857D01*
X182030714Y-124467857D01*
X182125952Y-124515476D01*
X182173571Y-124563095D01*
X182221190Y-124658333D01*
X182221190Y-125039285D01*
X182697380Y-123515476D02*
X182697380Y-124086904D01*
X182697380Y-123801190D02*
X181697380Y-123801190D01*
X181840238Y-123896428D01*
X181935476Y-123991666D01*
X181983095Y-124086904D01*
X181697380Y-122658333D02*
X181697380Y-122848809D01*
X181745000Y-122944047D01*
X181792619Y-122991666D01*
X181935476Y-123086904D01*
X182125952Y-123134523D01*
X182506904Y-123134523D01*
X182602142Y-123086904D01*
X182649761Y-123039285D01*
X182697380Y-122944047D01*
X182697380Y-122753571D01*
X182649761Y-122658333D01*
X182602142Y-122610714D01*
X182506904Y-122563095D01*
X182268809Y-122563095D01*
X182173571Y-122610714D01*
X182125952Y-122658333D01*
X182078333Y-122753571D01*
X182078333Y-122944047D01*
X182125952Y-123039285D01*
X182173571Y-123086904D01*
X182268809Y-123134523D01*
%TO.C,R18*%
X175077380Y-124467857D02*
X174601190Y-124801190D01*
X175077380Y-125039285D02*
X174077380Y-125039285D01*
X174077380Y-124658333D01*
X174125000Y-124563095D01*
X174172619Y-124515476D01*
X174267857Y-124467857D01*
X174410714Y-124467857D01*
X174505952Y-124515476D01*
X174553571Y-124563095D01*
X174601190Y-124658333D01*
X174601190Y-125039285D01*
X175077380Y-123515476D02*
X175077380Y-124086904D01*
X175077380Y-123801190D02*
X174077380Y-123801190D01*
X174220238Y-123896428D01*
X174315476Y-123991666D01*
X174363095Y-124086904D01*
X174505952Y-122944047D02*
X174458333Y-123039285D01*
X174410714Y-123086904D01*
X174315476Y-123134523D01*
X174267857Y-123134523D01*
X174172619Y-123086904D01*
X174125000Y-123039285D01*
X174077380Y-122944047D01*
X174077380Y-122753571D01*
X174125000Y-122658333D01*
X174172619Y-122610714D01*
X174267857Y-122563095D01*
X174315476Y-122563095D01*
X174410714Y-122610714D01*
X174458333Y-122658333D01*
X174505952Y-122753571D01*
X174505952Y-122944047D01*
X174553571Y-123039285D01*
X174601190Y-123086904D01*
X174696428Y-123134523D01*
X174886904Y-123134523D01*
X174982142Y-123086904D01*
X175029761Y-123039285D01*
X175077380Y-122944047D01*
X175077380Y-122753571D01*
X175029761Y-122658333D01*
X174982142Y-122610714D01*
X174886904Y-122563095D01*
X174696428Y-122563095D01*
X174601190Y-122610714D01*
X174553571Y-122658333D01*
X174505952Y-122753571D01*
%TO.C,R19*%
X171267380Y-124467857D02*
X170791190Y-124801190D01*
X171267380Y-125039285D02*
X170267380Y-125039285D01*
X170267380Y-124658333D01*
X170315000Y-124563095D01*
X170362619Y-124515476D01*
X170457857Y-124467857D01*
X170600714Y-124467857D01*
X170695952Y-124515476D01*
X170743571Y-124563095D01*
X170791190Y-124658333D01*
X170791190Y-125039285D01*
X171267380Y-123515476D02*
X171267380Y-124086904D01*
X171267380Y-123801190D02*
X170267380Y-123801190D01*
X170410238Y-123896428D01*
X170505476Y-123991666D01*
X170553095Y-124086904D01*
X171267380Y-123039285D02*
X171267380Y-122848809D01*
X171219761Y-122753571D01*
X171172142Y-122705952D01*
X171029285Y-122610714D01*
X170838809Y-122563095D01*
X170457857Y-122563095D01*
X170362619Y-122610714D01*
X170315000Y-122658333D01*
X170267380Y-122753571D01*
X170267380Y-122944047D01*
X170315000Y-123039285D01*
X170362619Y-123086904D01*
X170457857Y-123134523D01*
X170695952Y-123134523D01*
X170791190Y-123086904D01*
X170838809Y-123039285D01*
X170886428Y-122944047D01*
X170886428Y-122753571D01*
X170838809Y-122658333D01*
X170791190Y-122610714D01*
X170695952Y-122563095D01*
%TO.C,R20*%
X167457380Y-124467857D02*
X166981190Y-124801190D01*
X167457380Y-125039285D02*
X166457380Y-125039285D01*
X166457380Y-124658333D01*
X166505000Y-124563095D01*
X166552619Y-124515476D01*
X166647857Y-124467857D01*
X166790714Y-124467857D01*
X166885952Y-124515476D01*
X166933571Y-124563095D01*
X166981190Y-124658333D01*
X166981190Y-125039285D01*
X166552619Y-124086904D02*
X166505000Y-124039285D01*
X166457380Y-123944047D01*
X166457380Y-123705952D01*
X166505000Y-123610714D01*
X166552619Y-123563095D01*
X166647857Y-123515476D01*
X166743095Y-123515476D01*
X166885952Y-123563095D01*
X167457380Y-124134523D01*
X167457380Y-123515476D01*
X166457380Y-122896428D02*
X166457380Y-122801190D01*
X166505000Y-122705952D01*
X166552619Y-122658333D01*
X166647857Y-122610714D01*
X166838333Y-122563095D01*
X167076428Y-122563095D01*
X167266904Y-122610714D01*
X167362142Y-122658333D01*
X167409761Y-122705952D01*
X167457380Y-122801190D01*
X167457380Y-122896428D01*
X167409761Y-122991666D01*
X167362142Y-123039285D01*
X167266904Y-123086904D01*
X167076428Y-123134523D01*
X166838333Y-123134523D01*
X166647857Y-123086904D01*
X166552619Y-123039285D01*
X166505000Y-122991666D01*
X166457380Y-122896428D01*
%TO.C,R21*%
X163647380Y-124467857D02*
X163171190Y-124801190D01*
X163647380Y-125039285D02*
X162647380Y-125039285D01*
X162647380Y-124658333D01*
X162695000Y-124563095D01*
X162742619Y-124515476D01*
X162837857Y-124467857D01*
X162980714Y-124467857D01*
X163075952Y-124515476D01*
X163123571Y-124563095D01*
X163171190Y-124658333D01*
X163171190Y-125039285D01*
X162742619Y-124086904D02*
X162695000Y-124039285D01*
X162647380Y-123944047D01*
X162647380Y-123705952D01*
X162695000Y-123610714D01*
X162742619Y-123563095D01*
X162837857Y-123515476D01*
X162933095Y-123515476D01*
X163075952Y-123563095D01*
X163647380Y-124134523D01*
X163647380Y-123515476D01*
X163647380Y-122563095D02*
X163647380Y-123134523D01*
X163647380Y-122848809D02*
X162647380Y-122848809D01*
X162790238Y-122944047D01*
X162885476Y-123039285D01*
X162933095Y-123134523D01*
%TO.C,R14*%
X190317380Y-124467857D02*
X189841190Y-124801190D01*
X190317380Y-125039285D02*
X189317380Y-125039285D01*
X189317380Y-124658333D01*
X189365000Y-124563095D01*
X189412619Y-124515476D01*
X189507857Y-124467857D01*
X189650714Y-124467857D01*
X189745952Y-124515476D01*
X189793571Y-124563095D01*
X189841190Y-124658333D01*
X189841190Y-125039285D01*
X190317380Y-123515476D02*
X190317380Y-124086904D01*
X190317380Y-123801190D02*
X189317380Y-123801190D01*
X189460238Y-123896428D01*
X189555476Y-123991666D01*
X189603095Y-124086904D01*
X189650714Y-122658333D02*
X190317380Y-122658333D01*
X189269761Y-122896428D02*
X189984047Y-123134523D01*
X189984047Y-122515476D01*
%TO.C,R17*%
X178887380Y-124467857D02*
X178411190Y-124801190D01*
X178887380Y-125039285D02*
X177887380Y-125039285D01*
X177887380Y-124658333D01*
X177935000Y-124563095D01*
X177982619Y-124515476D01*
X178077857Y-124467857D01*
X178220714Y-124467857D01*
X178315952Y-124515476D01*
X178363571Y-124563095D01*
X178411190Y-124658333D01*
X178411190Y-125039285D01*
X178887380Y-123515476D02*
X178887380Y-124086904D01*
X178887380Y-123801190D02*
X177887380Y-123801190D01*
X178030238Y-123896428D01*
X178125476Y-123991666D01*
X178173095Y-124086904D01*
X177887380Y-123182142D02*
X177887380Y-122515476D01*
X178887380Y-122944047D01*
%TO.C,J6*%
X209002380Y-103203333D02*
X209716666Y-103203333D01*
X209859523Y-103250952D01*
X209954761Y-103346190D01*
X210002380Y-103489047D01*
X210002380Y-103584285D01*
X209002380Y-102298571D02*
X209002380Y-102489047D01*
X209050000Y-102584285D01*
X209097619Y-102631904D01*
X209240476Y-102727142D01*
X209430952Y-102774761D01*
X209811904Y-102774761D01*
X209907142Y-102727142D01*
X209954761Y-102679523D01*
X210002380Y-102584285D01*
X210002380Y-102393809D01*
X209954761Y-102298571D01*
X209907142Y-102250952D01*
X209811904Y-102203333D01*
X209573809Y-102203333D01*
X209478571Y-102250952D01*
X209430952Y-102298571D01*
X209383333Y-102393809D01*
X209383333Y-102584285D01*
X209430952Y-102679523D01*
X209478571Y-102727142D01*
X209573809Y-102774761D01*
X214447380Y-105465238D02*
X213447380Y-105465238D01*
X213923571Y-105465238D02*
X213923571Y-104893809D01*
X214447380Y-104893809D02*
X213447380Y-104893809D01*
X214447380Y-103941428D02*
X214447380Y-104417619D01*
X213447380Y-104417619D01*
X213447380Y-103750952D02*
X213447380Y-103179523D01*
X214447380Y-103465238D02*
X213447380Y-103465238D01*
X213495000Y-102322380D02*
X213447380Y-102417619D01*
X213447380Y-102560476D01*
X213495000Y-102703333D01*
X213590238Y-102798571D01*
X213685476Y-102846190D01*
X213875952Y-102893809D01*
X214018809Y-102893809D01*
X214209285Y-102846190D01*
X214304523Y-102798571D01*
X214399761Y-102703333D01*
X214447380Y-102560476D01*
X214447380Y-102465238D01*
X214399761Y-102322380D01*
X214352142Y-102274761D01*
X214018809Y-102274761D01*
X214018809Y-102465238D01*
X214447380Y-101846190D02*
X213447380Y-101846190D01*
X214447380Y-101274761D01*
X213447380Y-101274761D01*
X214447380Y-100798571D02*
X213447380Y-100798571D01*
X213447380Y-100560476D01*
X213495000Y-100417619D01*
X213590238Y-100322380D01*
X213685476Y-100274761D01*
X213875952Y-100227142D01*
X214018809Y-100227142D01*
X214209285Y-100274761D01*
X214304523Y-100322380D01*
X214399761Y-100417619D01*
X214447380Y-100560476D01*
X214447380Y-100798571D01*
%TO.C,J7*%
X209002380Y-96218333D02*
X209716666Y-96218333D01*
X209859523Y-96265952D01*
X209954761Y-96361190D01*
X210002380Y-96504047D01*
X210002380Y-96599285D01*
X209002380Y-95837380D02*
X209002380Y-95170714D01*
X210002380Y-95599285D01*
X214447380Y-97861190D02*
X213447380Y-97861190D01*
X213923571Y-97861190D02*
X213923571Y-97289761D01*
X214447380Y-97289761D02*
X213447380Y-97289761D01*
X214447380Y-96337380D02*
X214447380Y-96813571D01*
X213447380Y-96813571D01*
X213447380Y-96146904D02*
X213447380Y-95575476D01*
X214447380Y-95861190D02*
X213447380Y-95861190D01*
X213447380Y-94765952D02*
X213447380Y-95242142D01*
X213923571Y-95289761D01*
X213875952Y-95242142D01*
X213828333Y-95146904D01*
X213828333Y-94908809D01*
X213875952Y-94813571D01*
X213923571Y-94765952D01*
X214018809Y-94718333D01*
X214256904Y-94718333D01*
X214352142Y-94765952D01*
X214399761Y-94813571D01*
X214447380Y-94908809D01*
X214447380Y-95146904D01*
X214399761Y-95242142D01*
X214352142Y-95289761D01*
X213447380Y-94432619D02*
X214447380Y-94099285D01*
X213447380Y-93765952D01*
%TO.C,C4*%
X145137142Y-94186666D02*
X145184761Y-94234285D01*
X145232380Y-94377142D01*
X145232380Y-94472380D01*
X145184761Y-94615238D01*
X145089523Y-94710476D01*
X144994285Y-94758095D01*
X144803809Y-94805714D01*
X144660952Y-94805714D01*
X144470476Y-94758095D01*
X144375238Y-94710476D01*
X144280000Y-94615238D01*
X144232380Y-94472380D01*
X144232380Y-94377142D01*
X144280000Y-94234285D01*
X144327619Y-94186666D01*
X144565714Y-93329523D02*
X145232380Y-93329523D01*
X144184761Y-93567619D02*
X144899047Y-93805714D01*
X144899047Y-93186666D01*
%TO.C,J1*%
X157567380Y-88598333D02*
X158281666Y-88598333D01*
X158424523Y-88645952D01*
X158519761Y-88741190D01*
X158567380Y-88884047D01*
X158567380Y-88979285D01*
X158567380Y-87598333D02*
X158567380Y-88169761D01*
X158567380Y-87884047D02*
X157567380Y-87884047D01*
X157710238Y-87979285D01*
X157805476Y-88074523D01*
X157853095Y-88169761D01*
X153805000Y-89026904D02*
X153757380Y-89122142D01*
X153757380Y-89265000D01*
X153805000Y-89407857D01*
X153900238Y-89503095D01*
X153995476Y-89550714D01*
X154185952Y-89598333D01*
X154328809Y-89598333D01*
X154519285Y-89550714D01*
X154614523Y-89503095D01*
X154709761Y-89407857D01*
X154757380Y-89265000D01*
X154757380Y-89169761D01*
X154709761Y-89026904D01*
X154662142Y-88979285D01*
X154328809Y-88979285D01*
X154328809Y-89169761D01*
X154757380Y-88550714D02*
X153757380Y-88550714D01*
X154757380Y-87979285D01*
X153757380Y-87979285D01*
X154757380Y-87503095D02*
X153757380Y-87503095D01*
X153757380Y-87265000D01*
X153805000Y-87122142D01*
X153900238Y-87026904D01*
X153995476Y-86979285D01*
X154185952Y-86931666D01*
X154328809Y-86931666D01*
X154519285Y-86979285D01*
X154614523Y-87026904D01*
X154709761Y-87122142D01*
X154757380Y-87265000D01*
X154757380Y-87503095D01*
%TO.C,R10*%
X205557380Y-124467857D02*
X205081190Y-124801190D01*
X205557380Y-125039285D02*
X204557380Y-125039285D01*
X204557380Y-124658333D01*
X204605000Y-124563095D01*
X204652619Y-124515476D01*
X204747857Y-124467857D01*
X204890714Y-124467857D01*
X204985952Y-124515476D01*
X205033571Y-124563095D01*
X205081190Y-124658333D01*
X205081190Y-125039285D01*
X205557380Y-123515476D02*
X205557380Y-124086904D01*
X205557380Y-123801190D02*
X204557380Y-123801190D01*
X204700238Y-123896428D01*
X204795476Y-123991666D01*
X204843095Y-124086904D01*
X204557380Y-122896428D02*
X204557380Y-122801190D01*
X204605000Y-122705952D01*
X204652619Y-122658333D01*
X204747857Y-122610714D01*
X204938333Y-122563095D01*
X205176428Y-122563095D01*
X205366904Y-122610714D01*
X205462142Y-122658333D01*
X205509761Y-122705952D01*
X205557380Y-122801190D01*
X205557380Y-122896428D01*
X205509761Y-122991666D01*
X205462142Y-123039285D01*
X205366904Y-123086904D01*
X205176428Y-123134523D01*
X204938333Y-123134523D01*
X204747857Y-123086904D01*
X204652619Y-123039285D01*
X204605000Y-122991666D01*
X204557380Y-122896428D01*
%TO.C,R3*%
X148407380Y-123991666D02*
X147931190Y-124325000D01*
X148407380Y-124563095D02*
X147407380Y-124563095D01*
X147407380Y-124182142D01*
X147455000Y-124086904D01*
X147502619Y-124039285D01*
X147597857Y-123991666D01*
X147740714Y-123991666D01*
X147835952Y-124039285D01*
X147883571Y-124086904D01*
X147931190Y-124182142D01*
X147931190Y-124563095D01*
X147407380Y-123658333D02*
X147407380Y-123039285D01*
X147788333Y-123372619D01*
X147788333Y-123229761D01*
X147835952Y-123134523D01*
X147883571Y-123086904D01*
X147978809Y-123039285D01*
X148216904Y-123039285D01*
X148312142Y-123086904D01*
X148359761Y-123134523D01*
X148407380Y-123229761D01*
X148407380Y-123515476D01*
X148359761Y-123610714D01*
X148312142Y-123658333D01*
%TO.C,D3*%
X109037380Y-87098095D02*
X108037380Y-87098095D01*
X108037380Y-86860000D01*
X108085000Y-86717142D01*
X108180238Y-86621904D01*
X108275476Y-86574285D01*
X108465952Y-86526666D01*
X108608809Y-86526666D01*
X108799285Y-86574285D01*
X108894523Y-86621904D01*
X108989761Y-86717142D01*
X109037380Y-86860000D01*
X109037380Y-87098095D01*
X108037380Y-86193333D02*
X108037380Y-85574285D01*
X108418333Y-85907619D01*
X108418333Y-85764761D01*
X108465952Y-85669523D01*
X108513571Y-85621904D01*
X108608809Y-85574285D01*
X108846904Y-85574285D01*
X108942142Y-85621904D01*
X108989761Y-85669523D01*
X109037380Y-85764761D01*
X109037380Y-86050476D01*
X108989761Y-86145714D01*
X108942142Y-86193333D01*
D12*
%TO.C,SW2*%
X102171666Y-79144761D02*
X102314523Y-79192380D01*
X102552619Y-79192380D01*
X102647857Y-79144761D01*
X102695476Y-79097142D01*
X102743095Y-79001904D01*
X102743095Y-78906666D01*
X102695476Y-78811428D01*
X102647857Y-78763809D01*
X102552619Y-78716190D01*
X102362142Y-78668571D01*
X102266904Y-78620952D01*
X102219285Y-78573333D01*
X102171666Y-78478095D01*
X102171666Y-78382857D01*
X102219285Y-78287619D01*
X102266904Y-78240000D01*
X102362142Y-78192380D01*
X102600238Y-78192380D01*
X102743095Y-78240000D01*
X103076428Y-78192380D02*
X103314523Y-79192380D01*
X103505000Y-78478095D01*
X103695476Y-79192380D01*
X103933571Y-78192380D01*
X104266904Y-78287619D02*
X104314523Y-78240000D01*
X104409761Y-78192380D01*
X104647857Y-78192380D01*
X104743095Y-78240000D01*
X104790714Y-78287619D01*
X104838333Y-78382857D01*
X104838333Y-78478095D01*
X104790714Y-78620952D01*
X104219285Y-79192380D01*
X104838333Y-79192380D01*
D10*
%TO.C,J4*%
X199477380Y-89233333D02*
X200191666Y-89233333D01*
X200334523Y-89280952D01*
X200429761Y-89376190D01*
X200477380Y-89519047D01*
X200477380Y-89614285D01*
X199810714Y-88328571D02*
X200477380Y-88328571D01*
X199429761Y-88566666D02*
X200144047Y-88804761D01*
X200144047Y-88185714D01*
X204509761Y-89876190D02*
X205795476Y-90733333D01*
X205462142Y-88971428D02*
X205509761Y-89019047D01*
X205557380Y-89161904D01*
X205557380Y-89257142D01*
X205509761Y-89400000D01*
X205414523Y-89495238D01*
X205319285Y-89542857D01*
X205128809Y-89590476D01*
X204985952Y-89590476D01*
X204795476Y-89542857D01*
X204700238Y-89495238D01*
X204605000Y-89400000D01*
X204557380Y-89257142D01*
X204557380Y-89161904D01*
X204605000Y-89019047D01*
X204652619Y-88971428D01*
X205557380Y-88066666D02*
X205557380Y-88542857D01*
X204557380Y-88542857D01*
X205557380Y-87733333D02*
X204557380Y-87733333D01*
X205557380Y-87161904D02*
X204985952Y-87590476D01*
X204557380Y-87161904D02*
X205128809Y-87733333D01*
%TO.C,RV1*%
X102274761Y-116357380D02*
X101941428Y-115881190D01*
X101703333Y-116357380D02*
X101703333Y-115357380D01*
X102084285Y-115357380D01*
X102179523Y-115405000D01*
X102227142Y-115452619D01*
X102274761Y-115547857D01*
X102274761Y-115690714D01*
X102227142Y-115785952D01*
X102179523Y-115833571D01*
X102084285Y-115881190D01*
X101703333Y-115881190D01*
X102560476Y-115357380D02*
X102893809Y-116357380D01*
X103227142Y-115357380D01*
X104084285Y-116357380D02*
X103512857Y-116357380D01*
X103798571Y-116357380D02*
X103798571Y-115357380D01*
X103703333Y-115500238D01*
X103608095Y-115595476D01*
X103512857Y-115643095D01*
D13*
%TO.C,C1*%
X158239000Y-92474000D02*
X159615000Y-92474000D01*
X161695000Y-93554000D02*
X163702000Y-93554000D01*
X161695000Y-92434000D02*
X163035000Y-92434000D01*
X161695000Y-93914000D02*
X163805000Y-93914000D01*
X161695000Y-93714000D02*
X163753000Y-93714000D01*
X157991000Y-92794000D02*
X159615000Y-92794000D01*
X161695000Y-92594000D02*
X163171000Y-92594000D01*
X161695000Y-92834000D02*
X163345000Y-92834000D01*
X161695000Y-92714000D02*
X163262000Y-92714000D01*
X159490000Y-91594000D02*
X161820000Y-91594000D01*
X161695000Y-93514000D02*
X163688000Y-93514000D01*
X157739000Y-93234000D02*
X159615000Y-93234000D01*
X158275000Y-92434000D02*
X159615000Y-92434000D01*
X157425000Y-94635000D02*
X163885000Y-94635000D01*
X157569000Y-93674000D02*
X159615000Y-93674000D01*
X159074000Y-91794000D02*
X162236000Y-91794000D01*
X161695000Y-93634000D02*
X163729000Y-93634000D01*
X157454000Y-94195000D02*
X159615000Y-94195000D01*
X161695000Y-94395000D02*
X163877000Y-94395000D01*
X158171000Y-92554000D02*
X159615000Y-92554000D01*
X161695000Y-94275000D02*
X163866000Y-94275000D01*
X161695000Y-92394000D02*
X162998000Y-92394000D01*
X161695000Y-93874000D02*
X163796000Y-93874000D01*
X161695000Y-92914000D02*
X163397000Y-92914000D01*
X161695000Y-94075000D02*
X163837000Y-94075000D01*
X157425000Y-94555000D02*
X163885000Y-94555000D01*
X159223000Y-91714000D02*
X162087000Y-91714000D01*
X161695000Y-92754000D02*
X163291000Y-92754000D01*
X157437000Y-94355000D02*
X159615000Y-94355000D01*
X158660000Y-92074000D02*
X162650000Y-92074000D01*
X161695000Y-92674000D02*
X163233000Y-92674000D01*
X157594000Y-93594000D02*
X159615000Y-93594000D01*
X158350000Y-92354000D02*
X159615000Y-92354000D01*
X157444000Y-94275000D02*
X159615000Y-94275000D01*
X157460000Y-94155000D02*
X159615000Y-94155000D01*
X161695000Y-94195000D02*
X163856000Y-94195000D01*
X161695000Y-94115000D02*
X163844000Y-94115000D01*
X161695000Y-94315000D02*
X163870000Y-94315000D01*
X159596000Y-91554000D02*
X161714000Y-91554000D01*
X157669000Y-93394000D02*
X159615000Y-93394000D01*
X161695000Y-93474000D02*
X163673000Y-93474000D01*
X157779000Y-93154000D02*
X159615000Y-93154000D01*
X158473000Y-92234000D02*
X162837000Y-92234000D01*
X157496000Y-93955000D02*
X159615000Y-93955000D01*
X157425000Y-94595000D02*
X163885000Y-94595000D01*
X161695000Y-94355000D02*
X163873000Y-94355000D01*
X160253000Y-91394000D02*
X161057000Y-91394000D01*
X161695000Y-93114000D02*
X163511000Y-93114000D01*
X161695000Y-92514000D02*
X163105000Y-92514000D01*
X160022000Y-91434000D02*
X161288000Y-91434000D01*
X161695000Y-92874000D02*
X163371000Y-92874000D01*
X157865000Y-92994000D02*
X159615000Y-92994000D01*
X161695000Y-93234000D02*
X163571000Y-93234000D01*
X158431000Y-92274000D02*
X162879000Y-92274000D01*
X158077000Y-92674000D02*
X159615000Y-92674000D01*
X158139000Y-92594000D02*
X159615000Y-92594000D01*
X158563000Y-92154000D02*
X162747000Y-92154000D01*
X161695000Y-93074000D02*
X163489000Y-93074000D01*
X161695000Y-93834000D02*
X163786000Y-93834000D01*
X161695000Y-93314000D02*
X163607000Y-93314000D01*
X161695000Y-93955000D02*
X163814000Y-93955000D01*
X161695000Y-94235000D02*
X163861000Y-94235000D01*
X158205000Y-92514000D02*
X159615000Y-92514000D01*
X159005000Y-91834000D02*
X162305000Y-91834000D01*
X158501000Y-97820241D02*
X159131000Y-97820241D01*
X157653000Y-93434000D02*
X159615000Y-93434000D01*
X157821000Y-93074000D02*
X159615000Y-93074000D01*
X157965000Y-92834000D02*
X159615000Y-92834000D01*
X159305000Y-91674000D02*
X162005000Y-91674000D01*
X161695000Y-93754000D02*
X163765000Y-93754000D01*
X157721000Y-93274000D02*
X159615000Y-93274000D01*
X157466000Y-94115000D02*
X159615000Y-94115000D01*
X157799000Y-93114000D02*
X159615000Y-93114000D01*
X161695000Y-92554000D02*
X163139000Y-92554000D01*
X159715000Y-91514000D02*
X161595000Y-91514000D01*
X161695000Y-93154000D02*
X163531000Y-93154000D01*
X157480000Y-94035000D02*
X159615000Y-94035000D01*
X161695000Y-93594000D02*
X163716000Y-93594000D01*
X161695000Y-93394000D02*
X163641000Y-93394000D01*
X158611000Y-92114000D02*
X162699000Y-92114000D01*
X161695000Y-93194000D02*
X163551000Y-93194000D01*
X158312000Y-92394000D02*
X159615000Y-92394000D01*
X158879000Y-91914000D02*
X162431000Y-91914000D01*
X157427000Y-94515000D02*
X163883000Y-94515000D01*
X158518000Y-92194000D02*
X162792000Y-92194000D01*
X157759000Y-93194000D02*
X159615000Y-93194000D01*
X157889000Y-92954000D02*
X159615000Y-92954000D01*
X161695000Y-93794000D02*
X163776000Y-93794000D01*
X157488000Y-93995000D02*
X159615000Y-93995000D01*
X159393000Y-91634000D02*
X161917000Y-91634000D01*
X157557000Y-93714000D02*
X159615000Y-93714000D01*
X157581000Y-93634000D02*
X159615000Y-93634000D01*
X161695000Y-92794000D02*
X163319000Y-92794000D01*
X157524000Y-93834000D02*
X159615000Y-93834000D01*
X157505000Y-93914000D02*
X159615000Y-93914000D01*
X161695000Y-93274000D02*
X163589000Y-93274000D01*
X158941000Y-91874000D02*
X162369000Y-91874000D01*
X161695000Y-92474000D02*
X163071000Y-92474000D01*
X158821000Y-91954000D02*
X162489000Y-91954000D01*
X157843000Y-93034000D02*
X159615000Y-93034000D01*
X157608000Y-93554000D02*
X159615000Y-93554000D01*
X161695000Y-93034000D02*
X163467000Y-93034000D01*
X158019000Y-92754000D02*
X159615000Y-92754000D01*
X159146000Y-91754000D02*
X162164000Y-91754000D01*
X159853000Y-91474000D02*
X161457000Y-91474000D01*
X157440000Y-94315000D02*
X159615000Y-94315000D01*
X157449000Y-94235000D02*
X159615000Y-94235000D01*
X158390000Y-92314000D02*
X162920000Y-92314000D01*
X161695000Y-93434000D02*
X163657000Y-93434000D01*
X157939000Y-92874000D02*
X159615000Y-92874000D01*
X157685000Y-93354000D02*
X159615000Y-93354000D01*
X161695000Y-92994000D02*
X163445000Y-92994000D01*
X158711000Y-92034000D02*
X162599000Y-92034000D01*
X158107000Y-92634000D02*
X159615000Y-92634000D01*
X161695000Y-93354000D02*
X163625000Y-93354000D01*
X157534000Y-93794000D02*
X159615000Y-93794000D01*
X158765000Y-91994000D02*
X162545000Y-91994000D01*
X157428000Y-94475000D02*
X163882000Y-94475000D01*
X157473000Y-94075000D02*
X159615000Y-94075000D01*
X161695000Y-93674000D02*
X163741000Y-93674000D01*
X161695000Y-92354000D02*
X162960000Y-92354000D01*
X161695000Y-94035000D02*
X163830000Y-94035000D01*
X157433000Y-94395000D02*
X159615000Y-94395000D01*
X161695000Y-92954000D02*
X163421000Y-92954000D01*
X161695000Y-92634000D02*
X163203000Y-92634000D01*
X161695000Y-94155000D02*
X163850000Y-94155000D01*
X157637000Y-93474000D02*
X159615000Y-93474000D01*
X157545000Y-93754000D02*
X159615000Y-93754000D01*
X158816000Y-98135241D02*
X158816000Y-97505241D01*
X157913000Y-92914000D02*
X159615000Y-92914000D01*
X161695000Y-93995000D02*
X163822000Y-93995000D01*
X157514000Y-93874000D02*
X159615000Y-93874000D01*
X158048000Y-92714000D02*
X159615000Y-92714000D01*
X157431000Y-94435000D02*
X163879000Y-94435000D01*
X157622000Y-93514000D02*
X159615000Y-93514000D01*
X157703000Y-93314000D02*
X159615000Y-93314000D01*
X163925000Y-94635000D02*
G75*
G03*
X163925000Y-94635000I-3270000J0D01*
G01*
%TO.C,C2*%
X142340000Y-103520000D02*
X142340000Y-109760000D01*
X140045000Y-103520000D02*
X139600000Y-103520000D01*
X142340000Y-109760000D02*
X141895000Y-109760000D01*
X142340000Y-103520000D02*
X141895000Y-103520000D01*
X139600000Y-103520000D02*
X139600000Y-109760000D01*
X140045000Y-109760000D02*
X139600000Y-109760000D01*
%TO.C,C3*%
X145010000Y-108381000D02*
X144113000Y-108381000D01*
X145010000Y-108901000D02*
X144731000Y-108901000D01*
X147793000Y-108581000D02*
X147090000Y-108581000D01*
X148518000Y-107421000D02*
X147090000Y-107421000D01*
X147369000Y-108901000D02*
X147090000Y-108901000D01*
X147228000Y-108981000D02*
X144872000Y-108981000D01*
X148172000Y-108141000D02*
X147090000Y-108141000D01*
X145010000Y-108181000D02*
X143955000Y-108181000D01*
X146965000Y-109101000D02*
X145135000Y-109101000D01*
X148628000Y-106780000D02*
X143472000Y-106780000D01*
X145010000Y-107941000D02*
X143803000Y-107941000D01*
X145010000Y-107180000D02*
X143522000Y-107180000D01*
X145010000Y-107701000D02*
X143685000Y-107701000D01*
X145010000Y-107901000D02*
X143782000Y-107901000D01*
X145010000Y-107381000D02*
X143570000Y-107381000D01*
X148432000Y-107661000D02*
X147090000Y-107661000D01*
X146334000Y-109261000D02*
X145766000Y-109261000D01*
X148318000Y-107901000D02*
X147090000Y-107901000D01*
X145010000Y-106900000D02*
X143481000Y-106900000D01*
X148611000Y-106980000D02*
X147090000Y-106980000D01*
X145010000Y-107541000D02*
X143622000Y-107541000D01*
X145010000Y-107421000D02*
X143582000Y-107421000D01*
X148530000Y-107381000D02*
X147090000Y-107381000D01*
X147525000Y-103855225D02*
X147525000Y-104355225D01*
X145010000Y-107781000D02*
X143721000Y-107781000D01*
X148379000Y-107781000D02*
X147090000Y-107781000D01*
X145010000Y-107020000D02*
X143494000Y-107020000D01*
X148600000Y-107060000D02*
X147090000Y-107060000D01*
X148578000Y-107180000D02*
X147090000Y-107180000D01*
X145010000Y-108461000D02*
X144186000Y-108461000D01*
X145010000Y-108741000D02*
X144496000Y-108741000D01*
X145010000Y-108141000D02*
X143928000Y-108141000D01*
X148145000Y-108181000D02*
X147090000Y-108181000D01*
X145010000Y-107300000D02*
X143549000Y-107300000D01*
X145010000Y-107821000D02*
X143740000Y-107821000D01*
X148360000Y-107821000D02*
X147090000Y-107821000D01*
X148225000Y-108061000D02*
X147090000Y-108061000D01*
X148250000Y-108021000D02*
X147090000Y-108021000D01*
X147775000Y-104105225D02*
X147275000Y-104105225D01*
X145010000Y-108341000D02*
X144079000Y-108341000D01*
X145010000Y-108861000D02*
X144667000Y-108861000D01*
X145010000Y-108061000D02*
X143875000Y-108061000D01*
X145010000Y-107100000D02*
X143507000Y-107100000D01*
X148478000Y-107541000D02*
X147090000Y-107541000D01*
X145010000Y-107581000D02*
X143636000Y-107581000D01*
X145010000Y-108621000D02*
X144351000Y-108621000D01*
X148297000Y-107941000D02*
X147090000Y-107941000D01*
X148606000Y-107020000D02*
X147090000Y-107020000D01*
X148619000Y-106900000D02*
X147090000Y-106900000D01*
X145010000Y-108941000D02*
X144799000Y-108941000D01*
X148398000Y-107741000D02*
X147090000Y-107741000D01*
X148630000Y-106660000D02*
X143470000Y-106660000D01*
X147987000Y-108381000D02*
X147090000Y-108381000D01*
X148593000Y-107100000D02*
X147090000Y-107100000D01*
X148115000Y-108221000D02*
X147090000Y-108221000D01*
X147301000Y-108941000D02*
X147090000Y-108941000D01*
X147655000Y-108701000D02*
X147090000Y-108701000D01*
X147703000Y-108661000D02*
X147090000Y-108661000D01*
X148492000Y-107501000D02*
X147090000Y-107501000D01*
X147493000Y-108821000D02*
X147090000Y-108821000D01*
X148448000Y-107621000D02*
X147090000Y-107621000D01*
X148561000Y-107260000D02*
X147090000Y-107260000D01*
X147835000Y-108541000D02*
X147090000Y-108541000D01*
X145010000Y-108421000D02*
X144149000Y-108421000D01*
X148415000Y-107701000D02*
X147090000Y-107701000D01*
X148541000Y-107340000D02*
X147090000Y-107340000D01*
X148085000Y-108261000D02*
X147090000Y-108261000D01*
X145010000Y-107461000D02*
X143595000Y-107461000D01*
X145010000Y-108221000D02*
X143985000Y-108221000D01*
X148274000Y-107981000D02*
X147090000Y-107981000D01*
X145010000Y-107340000D02*
X143559000Y-107340000D01*
X145010000Y-108781000D02*
X144550000Y-108781000D01*
X148626000Y-106820000D02*
X143474000Y-106820000D01*
X148630000Y-106700000D02*
X143470000Y-106700000D01*
X147148000Y-109021000D02*
X144952000Y-109021000D01*
X148505000Y-107461000D02*
X147090000Y-107461000D01*
X148340000Y-107861000D02*
X147090000Y-107861000D01*
X147749000Y-108621000D02*
X147090000Y-108621000D01*
X148623000Y-106860000D02*
X143477000Y-106860000D01*
X145010000Y-107060000D02*
X143500000Y-107060000D01*
X147951000Y-108421000D02*
X147090000Y-108421000D01*
X145010000Y-107981000D02*
X143826000Y-107981000D01*
X146727000Y-109181000D02*
X145373000Y-109181000D01*
X148629000Y-106740000D02*
X143471000Y-106740000D01*
X145010000Y-107621000D02*
X143652000Y-107621000D01*
X145010000Y-107260000D02*
X143539000Y-107260000D01*
X148054000Y-108301000D02*
X147090000Y-108301000D01*
X145010000Y-107741000D02*
X143702000Y-107741000D01*
X148570000Y-107220000D02*
X147090000Y-107220000D01*
X145010000Y-107861000D02*
X143760000Y-107861000D01*
X146855000Y-109141000D02*
X145245000Y-109141000D01*
X148586000Y-107140000D02*
X147090000Y-107140000D01*
X148551000Y-107300000D02*
X147090000Y-107300000D01*
X145010000Y-106980000D02*
X143489000Y-106980000D01*
X148615000Y-106940000D02*
X147090000Y-106940000D01*
X145010000Y-108101000D02*
X143901000Y-108101000D01*
X147914000Y-108461000D02*
X147090000Y-108461000D01*
X145010000Y-108821000D02*
X144607000Y-108821000D01*
X145010000Y-107140000D02*
X143514000Y-107140000D01*
X145010000Y-108301000D02*
X144046000Y-108301000D01*
X145010000Y-108701000D02*
X144445000Y-108701000D01*
X147061000Y-109061000D02*
X145039000Y-109061000D01*
X145010000Y-107220000D02*
X143530000Y-107220000D01*
X148021000Y-108341000D02*
X147090000Y-108341000D01*
X148464000Y-107581000D02*
X147090000Y-107581000D01*
X147550000Y-108781000D02*
X147090000Y-108781000D01*
X147604000Y-108741000D02*
X147090000Y-108741000D01*
X145010000Y-108581000D02*
X144307000Y-108581000D01*
X147433000Y-108861000D02*
X147090000Y-108861000D01*
X145010000Y-107661000D02*
X143668000Y-107661000D01*
X147876000Y-108501000D02*
X147090000Y-108501000D01*
X145010000Y-108501000D02*
X144224000Y-108501000D01*
X145010000Y-108541000D02*
X144265000Y-108541000D01*
X145010000Y-108661000D02*
X144397000Y-108661000D01*
X145010000Y-106940000D02*
X143485000Y-106940000D01*
X145010000Y-108261000D02*
X144015000Y-108261000D01*
X145010000Y-107501000D02*
X143608000Y-107501000D01*
X148199000Y-108101000D02*
X147090000Y-108101000D01*
X145010000Y-108021000D02*
X143850000Y-108021000D01*
X146568000Y-109221000D02*
X145532000Y-109221000D01*
X148670000Y-106660000D02*
G75*
G03*
X148670000Y-106660000I-2620000J0D01*
G01*
%TO.C,C5*%
X142340000Y-96490000D02*
X142340000Y-91550000D01*
X139600000Y-96490000D02*
X139600000Y-91550000D01*
X142025000Y-91550000D02*
X142340000Y-91550000D01*
X139600000Y-96490000D02*
X139915000Y-96490000D01*
X142025000Y-96490000D02*
X142340000Y-96490000D01*
X139600000Y-91550000D02*
X139915000Y-91550000D01*
%TO.C,C6*%
X140045000Y-84360000D02*
X139600000Y-84360000D01*
X139600000Y-78120000D02*
X139600000Y-84360000D01*
X140045000Y-78120000D02*
X139600000Y-78120000D01*
X142340000Y-84360000D02*
X141895000Y-84360000D01*
X142340000Y-78120000D02*
X142340000Y-84360000D01*
X142340000Y-78120000D02*
X141895000Y-78120000D01*
%TO.C,C7*%
X170280000Y-104155000D02*
X169835000Y-104155000D01*
X167985000Y-110395000D02*
X167540000Y-110395000D01*
X170280000Y-104155000D02*
X170280000Y-110395000D01*
X170280000Y-110395000D02*
X169835000Y-110395000D01*
X167540000Y-104155000D02*
X167540000Y-110395000D01*
X167985000Y-104155000D02*
X167540000Y-104155000D01*
%TO.C,D1*%
X112205000Y-121575000D02*
X112361000Y-121575000D01*
X109889000Y-121575000D02*
X110045000Y-121575000D01*
X112360516Y-121575000D02*
G75*
G03*
X112203608Y-118342665I-1235517J1560000D01*
G01*
X110045163Y-118973870D02*
G75*
G03*
X110045000Y-121055961I1079837J-1041130D01*
G01*
X110046392Y-118342665D02*
G75*
G03*
X109889484Y-121575000I1078609J-1672335D01*
G01*
X112205000Y-121055961D02*
G75*
G03*
X112204837Y-118973870I-1080000J1040961D01*
G01*
%TO.C,D2*%
X112205000Y-101255000D02*
X112361000Y-101255000D01*
X109889000Y-101255000D02*
X110045000Y-101255000D01*
X110046392Y-98022665D02*
G75*
G03*
X109889484Y-101255000I1078609J-1672335D01*
G01*
X112205000Y-100735961D02*
G75*
G03*
X112204837Y-98653870I-1080000J1040961D01*
G01*
X110045163Y-98653870D02*
G75*
G03*
X110045000Y-100735961I1079837J-1041130D01*
G01*
X112360516Y-101255000D02*
G75*
G03*
X112203608Y-98022665I-1235517J1560000D01*
G01*
%TO.C,D4*%
X204436000Y-103850000D02*
X204280000Y-103850000D01*
X202120000Y-103850000D02*
X201964000Y-103850000D01*
X204278608Y-107082335D02*
G75*
G03*
X204435516Y-103850000I-1078609J1672335D01*
G01*
X204279837Y-106451130D02*
G75*
G03*
X204280000Y-104369039I-1079837J1041130D01*
G01*
X202120000Y-104369039D02*
G75*
G03*
X202120163Y-106451130I1080000J-1040961D01*
G01*
X201964484Y-103850000D02*
G75*
G03*
X202121392Y-107082335I1235517J-1560000D01*
G01*
%TO.C,J3*%
X203250000Y-93920000D02*
X203125000Y-93920000D01*
X201880000Y-95310000D02*
X201880000Y-94615000D01*
X203250000Y-94006724D02*
X203250000Y-93920000D01*
X202565000Y-95310000D02*
X201880000Y-95310000D01*
X203250000Y-95310000D02*
X203125000Y-95310000D01*
X203250000Y-95310000D02*
X203250000Y-95223276D01*
X203250000Y-95310000D02*
X203250000Y-93920000D01*
%TO.C,J5*%
X203250000Y-99755000D02*
X203250000Y-98365000D01*
X203250000Y-99755000D02*
X203250000Y-99668276D01*
X201880000Y-99755000D02*
X201880000Y-99060000D01*
X203250000Y-98365000D02*
X203125000Y-98365000D01*
X202565000Y-99755000D02*
X201880000Y-99755000D01*
X203250000Y-99755000D02*
X203125000Y-99755000D01*
X203250000Y-98451724D02*
X203250000Y-98365000D01*
%TO.C,R1*%
X121920000Y-110720000D02*
X121920000Y-109950000D01*
X121920000Y-102640000D02*
X121920000Y-103410000D01*
X120550000Y-103410000D02*
X120550000Y-109950000D01*
X123290000Y-103410000D02*
X120550000Y-103410000D01*
X120550000Y-109950000D02*
X123290000Y-109950000D01*
X123290000Y-109950000D02*
X123290000Y-103410000D01*
%TO.C,R2*%
X142775000Y-127095000D02*
X145515000Y-127095000D01*
X142775000Y-120555000D02*
X142775000Y-127095000D01*
X144145000Y-127865000D02*
X144145000Y-127095000D01*
X144145000Y-119785000D02*
X144145000Y-120555000D01*
X145515000Y-127095000D02*
X145515000Y-120555000D01*
X145515000Y-120555000D02*
X142775000Y-120555000D01*
%TO.C,R4*%
X151765000Y-127865000D02*
X151765000Y-127095000D01*
X150395000Y-127095000D02*
X153135000Y-127095000D01*
X153135000Y-120555000D02*
X150395000Y-120555000D01*
X153135000Y-127095000D02*
X153135000Y-120555000D01*
X150395000Y-120555000D02*
X150395000Y-127095000D01*
X151765000Y-119785000D02*
X151765000Y-120555000D01*
%TO.C,R5*%
X154205000Y-120555000D02*
X154205000Y-127095000D01*
X155575000Y-119785000D02*
X155575000Y-120555000D01*
X156945000Y-120555000D02*
X154205000Y-120555000D01*
X155575000Y-127865000D02*
X155575000Y-127095000D01*
X156945000Y-127095000D02*
X156945000Y-120555000D01*
X154205000Y-127095000D02*
X156945000Y-127095000D01*
%TO.C,R6*%
X159385000Y-127865000D02*
X159385000Y-127095000D01*
X158015000Y-127095000D02*
X160755000Y-127095000D01*
X160755000Y-120555000D02*
X158015000Y-120555000D01*
X159385000Y-119785000D02*
X159385000Y-120555000D01*
X158015000Y-120555000D02*
X158015000Y-127095000D01*
X160755000Y-127095000D02*
X160755000Y-120555000D01*
%TO.C,R7*%
X115470000Y-125190000D02*
X118210000Y-125190000D01*
X118210000Y-118650000D02*
X115470000Y-118650000D01*
X115470000Y-118650000D02*
X115470000Y-125190000D01*
X116840000Y-117880000D02*
X116840000Y-118650000D01*
X118210000Y-125190000D02*
X118210000Y-118650000D01*
X116840000Y-125960000D02*
X116840000Y-125190000D01*
%TO.C,R8*%
X117475000Y-110720000D02*
X117475000Y-109950000D01*
X118845000Y-109950000D02*
X118845000Y-103410000D01*
X116105000Y-103410000D02*
X116105000Y-109950000D01*
X116105000Y-109950000D02*
X118845000Y-109950000D01*
X118845000Y-103410000D02*
X116105000Y-103410000D01*
X117475000Y-102640000D02*
X117475000Y-103410000D01*
%TO.C,U1*%
X125670000Y-104030000D02*
X125670000Y-105680000D01*
X125670000Y-107680000D02*
X125670000Y-109330000D01*
X135950000Y-109330000D02*
X135950000Y-104030000D01*
X125670000Y-109330000D02*
X135950000Y-109330000D01*
X135950000Y-104030000D02*
X125670000Y-104030000D01*
X125670000Y-107680000D02*
G75*
G03*
X125670000Y-105680000I0J1000000D01*
G01*
%TO.C,U2*%
X135950000Y-96630000D02*
X135950000Y-91330000D01*
X125670000Y-91330000D02*
X125670000Y-92980000D01*
X125670000Y-94980000D02*
X125670000Y-96630000D01*
X125670000Y-96630000D02*
X135950000Y-96630000D01*
X135950000Y-91330000D02*
X125670000Y-91330000D01*
X125670000Y-94980000D02*
G75*
G03*
X125670000Y-92980000I0J1000000D01*
G01*
%TO.C,U3*%
X125670000Y-83930000D02*
X135950000Y-83930000D01*
X125670000Y-78630000D02*
X125670000Y-80280000D01*
X135950000Y-78630000D02*
X125670000Y-78630000D01*
X135950000Y-83930000D02*
X135950000Y-78630000D01*
X125670000Y-82280000D02*
X125670000Y-83930000D01*
X125670000Y-82280000D02*
G75*
G03*
X125670000Y-80280000I0J1000000D01*
G01*
%TO.C,U5*%
X173930000Y-97265000D02*
X191830000Y-97265000D01*
X173930000Y-91965000D02*
X173930000Y-93615000D01*
X173930000Y-95615000D02*
X173930000Y-97265000D01*
X191830000Y-97265000D02*
X191830000Y-91965000D01*
X191830000Y-91965000D02*
X173930000Y-91965000D01*
X173930000Y-95615000D02*
G75*
G03*
X173930000Y-93615000I0J1000000D01*
G01*
%TO.C,U6*%
X173930000Y-84565000D02*
X191830000Y-84565000D01*
X191830000Y-79265000D02*
X173930000Y-79265000D01*
X191830000Y-84565000D02*
X191830000Y-79265000D01*
X173930000Y-79265000D02*
X173930000Y-80915000D01*
X173930000Y-82915000D02*
X173930000Y-84565000D01*
X173930000Y-82915000D02*
G75*
G03*
X173930000Y-80915000I0J1000000D01*
G01*
D14*
%TO.C,SW1*%
X105017001Y-102378230D02*
X105017001Y-97161772D01*
X98762998Y-97161772D02*
X98762998Y-102378230D01*
X100719755Y-102897003D02*
X103060244Y-102897003D01*
X103060244Y-96642999D02*
X100719755Y-96642999D01*
X106807000Y-96520000D02*
G75*
G03*
X106807000Y-96520000I-127000J0D01*
G01*
D13*
%TO.C,J2*%
X156895000Y-100356724D02*
X156895000Y-100270000D01*
X156895000Y-101660000D02*
X156895000Y-100270000D01*
X156895000Y-100270000D02*
X156770000Y-100270000D01*
X156895000Y-101660000D02*
X156770000Y-101660000D01*
X155525000Y-101660000D02*
X155525000Y-100965000D01*
X156210000Y-101660000D02*
X155525000Y-101660000D01*
X156895000Y-101660000D02*
X156895000Y-101573276D01*
%TO.C,U4*%
X173930000Y-109965000D02*
X191830000Y-109965000D01*
X173930000Y-104665000D02*
X173930000Y-106315000D01*
X173930000Y-108315000D02*
X173930000Y-109965000D01*
X191830000Y-109965000D02*
X191830000Y-104665000D01*
X191830000Y-104665000D02*
X173930000Y-104665000D01*
X173930000Y-108315000D02*
G75*
G03*
X173930000Y-106315000I0J1000000D01*
G01*
%TO.C,C9*%
X167985000Y-78755000D02*
X167540000Y-78755000D01*
X170280000Y-84995000D02*
X169835000Y-84995000D01*
X167540000Y-78755000D02*
X167540000Y-84995000D01*
X170280000Y-78755000D02*
X170280000Y-84995000D01*
X167985000Y-84995000D02*
X167540000Y-84995000D01*
X170280000Y-78755000D02*
X169835000Y-78755000D01*
%TO.C,C8*%
X167985000Y-97695000D02*
X167540000Y-97695000D01*
X167985000Y-91455000D02*
X167540000Y-91455000D01*
X170280000Y-97695000D02*
X169835000Y-97695000D01*
X170280000Y-91455000D02*
X169835000Y-91455000D01*
X167540000Y-91455000D02*
X167540000Y-97695000D01*
X170280000Y-91455000D02*
X170280000Y-97695000D01*
%TO.C,R9*%
X118845000Y-84995000D02*
X116105000Y-84995000D01*
X118845000Y-91535000D02*
X118845000Y-84995000D01*
X117475000Y-84225000D02*
X117475000Y-84995000D01*
X117475000Y-92305000D02*
X117475000Y-91535000D01*
X116105000Y-84995000D02*
X116105000Y-91535000D01*
X116105000Y-91535000D02*
X118845000Y-91535000D01*
%TO.C,R11*%
X201295000Y-119785000D02*
X201295000Y-120555000D01*
X201295000Y-127865000D02*
X201295000Y-127095000D01*
X199925000Y-120555000D02*
X199925000Y-127095000D01*
X199925000Y-127095000D02*
X202665000Y-127095000D01*
X202665000Y-127095000D02*
X202665000Y-120555000D01*
X202665000Y-120555000D02*
X199925000Y-120555000D01*
%TO.C,R12*%
X198855000Y-127095000D02*
X198855000Y-120555000D01*
X197485000Y-127865000D02*
X197485000Y-127095000D01*
X197485000Y-119785000D02*
X197485000Y-120555000D01*
X196115000Y-127095000D02*
X198855000Y-127095000D01*
X196115000Y-120555000D02*
X196115000Y-127095000D01*
X198855000Y-120555000D02*
X196115000Y-120555000D01*
%TO.C,R13*%
X195045000Y-120555000D02*
X192305000Y-120555000D01*
X193675000Y-119785000D02*
X193675000Y-120555000D01*
X192305000Y-120555000D02*
X192305000Y-127095000D01*
X195045000Y-127095000D02*
X195045000Y-120555000D01*
X193675000Y-127865000D02*
X193675000Y-127095000D01*
X192305000Y-127095000D02*
X195045000Y-127095000D01*
%TO.C,R15*%
X184685000Y-120555000D02*
X184685000Y-127095000D01*
X184685000Y-127095000D02*
X187425000Y-127095000D01*
X186055000Y-127865000D02*
X186055000Y-127095000D01*
X187425000Y-120555000D02*
X184685000Y-120555000D01*
X187425000Y-127095000D02*
X187425000Y-120555000D01*
X186055000Y-119785000D02*
X186055000Y-120555000D01*
%TO.C,R16*%
X180875000Y-127095000D02*
X183615000Y-127095000D01*
X183615000Y-127095000D02*
X183615000Y-120555000D01*
X180875000Y-120555000D02*
X180875000Y-127095000D01*
X182245000Y-119785000D02*
X182245000Y-120555000D01*
X182245000Y-127865000D02*
X182245000Y-127095000D01*
X183615000Y-120555000D02*
X180875000Y-120555000D01*
%TO.C,R18*%
X173255000Y-127095000D02*
X175995000Y-127095000D01*
X175995000Y-127095000D02*
X175995000Y-120555000D01*
X175995000Y-120555000D02*
X173255000Y-120555000D01*
X173255000Y-120555000D02*
X173255000Y-127095000D01*
X174625000Y-127865000D02*
X174625000Y-127095000D01*
X174625000Y-119785000D02*
X174625000Y-120555000D01*
%TO.C,R19*%
X172185000Y-120555000D02*
X169445000Y-120555000D01*
X169445000Y-120555000D02*
X169445000Y-127095000D01*
X170815000Y-127865000D02*
X170815000Y-127095000D01*
X169445000Y-127095000D02*
X172185000Y-127095000D01*
X170815000Y-119785000D02*
X170815000Y-120555000D01*
X172185000Y-127095000D02*
X172185000Y-120555000D01*
%TO.C,R20*%
X167005000Y-127865000D02*
X167005000Y-127095000D01*
X167005000Y-119785000D02*
X167005000Y-120555000D01*
X165635000Y-120555000D02*
X165635000Y-127095000D01*
X168375000Y-120555000D02*
X165635000Y-120555000D01*
X168375000Y-127095000D02*
X168375000Y-120555000D01*
X165635000Y-127095000D02*
X168375000Y-127095000D01*
%TO.C,R21*%
X164565000Y-127095000D02*
X164565000Y-120555000D01*
X164565000Y-120555000D02*
X161825000Y-120555000D01*
X161825000Y-120555000D02*
X161825000Y-127095000D01*
X161825000Y-127095000D02*
X164565000Y-127095000D01*
X163195000Y-127865000D02*
X163195000Y-127095000D01*
X163195000Y-119785000D02*
X163195000Y-120555000D01*
%TO.C,R14*%
X188495000Y-120555000D02*
X188495000Y-127095000D01*
X189865000Y-119785000D02*
X189865000Y-120555000D01*
X188495000Y-127095000D02*
X191235000Y-127095000D01*
X191235000Y-120555000D02*
X188495000Y-120555000D01*
X191235000Y-127095000D02*
X191235000Y-120555000D01*
X189865000Y-127865000D02*
X189865000Y-127095000D01*
%TO.C,R17*%
X179805000Y-127095000D02*
X179805000Y-120555000D01*
X177065000Y-120555000D02*
X177065000Y-127095000D01*
X179805000Y-120555000D02*
X177065000Y-120555000D01*
X178435000Y-127865000D02*
X178435000Y-127095000D01*
X177065000Y-127095000D02*
X179805000Y-127095000D01*
X178435000Y-119785000D02*
X178435000Y-120555000D01*
%TO.C,J6*%
X211014999Y-103565000D02*
X211139999Y-103565000D01*
X211014999Y-102175000D02*
X211139999Y-102175000D01*
X211014999Y-102175000D02*
X211014999Y-103565000D01*
X211014999Y-102175000D02*
X211014999Y-102261724D01*
X211699999Y-102175000D02*
X212384999Y-102175000D01*
X211014999Y-103478276D02*
X211014999Y-103565000D01*
X212384999Y-102175000D02*
X212384999Y-102870000D01*
%TO.C,J7*%
X211014999Y-95190000D02*
X211139999Y-95190000D01*
X211014999Y-96493276D02*
X211014999Y-96580000D01*
X212384999Y-95190000D02*
X212384999Y-95885000D01*
X211014999Y-95190000D02*
X211014999Y-96580000D01*
X211014999Y-95190000D02*
X211014999Y-95276724D01*
X211699999Y-95190000D02*
X212384999Y-95190000D01*
X211014999Y-96580000D02*
X211139999Y-96580000D01*
%TO.C,C4*%
X143410000Y-97140000D02*
X143855000Y-97140000D01*
X146150000Y-97140000D02*
X146150000Y-90900000D01*
X145705000Y-97140000D02*
X146150000Y-97140000D01*
X143410000Y-97140000D02*
X143410000Y-90900000D01*
X143410000Y-90900000D02*
X143855000Y-90900000D01*
X145705000Y-90900000D02*
X146150000Y-90900000D01*
%TO.C,J1*%
X156895000Y-88960000D02*
X156895000Y-88873276D01*
X156895000Y-88960000D02*
X156895000Y-87570000D01*
X156895000Y-87570000D02*
X156770000Y-87570000D01*
X156210000Y-88960000D02*
X155525000Y-88960000D01*
X156895000Y-87656724D02*
X156895000Y-87570000D01*
X155525000Y-88960000D02*
X155525000Y-88265000D01*
X156895000Y-88960000D02*
X156770000Y-88960000D01*
%TO.C,R10*%
X206475000Y-127095000D02*
X206475000Y-120555000D01*
X205105000Y-127865000D02*
X205105000Y-127095000D01*
X203735000Y-120555000D02*
X203735000Y-127095000D01*
X205105000Y-119785000D02*
X205105000Y-120555000D01*
X206475000Y-120555000D02*
X203735000Y-120555000D01*
X203735000Y-127095000D02*
X206475000Y-127095000D01*
%TO.C,R3*%
X149325000Y-120555000D02*
X146585000Y-120555000D01*
X146585000Y-120555000D02*
X146585000Y-127095000D01*
X146585000Y-127095000D02*
X149325000Y-127095000D01*
X149325000Y-127095000D02*
X149325000Y-120555000D01*
X147955000Y-119785000D02*
X147955000Y-120555000D01*
X147955000Y-127865000D02*
X147955000Y-127095000D01*
%TO.C,D3*%
X110680000Y-84800000D02*
X110524000Y-84800000D01*
X112996000Y-84800000D02*
X112840000Y-84800000D01*
X112839837Y-87401130D02*
G75*
G03*
X112840000Y-85319039I-1079837J1041130D01*
G01*
X112838608Y-88032335D02*
G75*
G03*
X112995516Y-84800000I-1078609J1672335D01*
G01*
X110680000Y-85319039D02*
G75*
G03*
X110680163Y-87401130I1080000J-1040961D01*
G01*
X110524484Y-84800000D02*
G75*
G03*
X110681392Y-88032335I1235517J-1560000D01*
G01*
D15*
%TO.C,SW2*%
X105505000Y-79975000D02*
X105505000Y-91475000D01*
X101505000Y-91475000D02*
X101505000Y-79975000D01*
X105505000Y-91475000D02*
X101505000Y-91475000D01*
X101505000Y-79975000D02*
X105505000Y-79975000D01*
D16*
X106255000Y-88265000D02*
G75*
G03*
X106255000Y-88265000I-100000J0D01*
G01*
D13*
%TO.C,J4*%
X201880000Y-89595000D02*
X201880000Y-88900000D01*
X203250000Y-89595000D02*
X203125000Y-89595000D01*
X203250000Y-88291724D02*
X203250000Y-88205000D01*
X202565000Y-89595000D02*
X201880000Y-89595000D01*
X203250000Y-89595000D02*
X203250000Y-88205000D01*
X203250000Y-89595000D02*
X203250000Y-89508276D01*
X203250000Y-88205000D02*
X203125000Y-88205000D01*
%TO.C,RV1*%
X105405000Y-117035000D02*
X105405000Y-126805000D01*
X100335000Y-117035000D02*
X105405000Y-117035000D01*
X100335000Y-117035000D02*
X100335000Y-126805000D01*
X100335000Y-126805000D02*
X105405000Y-126805000D01*
%TD*%
M02*
