M48
; DRILL file {KiCad (6.0.0)} date Sun Jan  9 16:02:58 2022
; FORMAT={-:-/ absolute / inch / decimal}
; #@! TF.CreationDate,2022-01-09T16:02:58-08:00
; #@! TF.GenerationSoftware,Kicad,Pcbnew,(6.0.0)
; #@! TF.FileFunction,Plated,1,4,PTH
FMAT,2
INCH
; #@! TA.AperFunction,Plated,PTH,ComponentDrill
T1C0.0197
; #@! TA.AperFunction,Plated,PTH,ComponentDrill
T2C0.0315
; #@! TA.AperFunction,Plated,PTH,ComponentDrill
T3C0.0354
; #@! TA.AperFunction,Plated,PTH,ComponentDrill
T4C0.0358
; #@! TA.AperFunction,Plated,PTH,ComponentDrill
T5C0.0394
%
G90
G05
T1
X6.15Y-3.475
X6.15Y-3.975
X7.975Y-3.5
X7.975Y-3.725
X7.975Y-3.9
X8.3346Y-3.775
X8.3346Y-4.05
T2
X4.05Y-4.7
X4.05Y-4.8
X4.05Y-4.9
X4.6Y-4.6
X4.6Y-5.0
X4.625Y-3.275
X4.625Y-3.675
X4.625Y-4.0
X4.625Y-4.4
X4.8Y-4.0
X4.8Y-4.4
X5.0Y-3.05
X5.0Y-3.35
X5.0Y-3.55
X5.0Y-3.85
X5.0Y-4.05
X5.0Y-4.35
X5.1Y-3.05
X5.1Y-3.35
X5.1Y-3.55
X5.1Y-3.85
X5.1Y-4.05
X5.1Y-4.35
X5.2Y-3.05
X5.2Y-3.35
X5.2Y-3.55
X5.2Y-3.85
X5.2Y-4.05
X5.2Y-4.35
X5.3Y-3.05
X5.3Y-3.35
X5.3Y-3.55
X5.3Y-3.85
X5.3Y-4.05
X5.3Y-4.35
X5.55Y-3.1
X5.55Y-3.2969
X5.55Y-3.6031
X5.55Y-3.8
X5.55Y-4.1
X5.55Y-4.2969
X5.675Y-4.675
X5.675Y-5.075
X5.7Y-3.6031
X5.7Y-3.8
X5.75Y-4.15
X5.75Y-4.2484
X5.825Y-4.675
X5.825Y-5.075
X5.975Y-4.675
X5.975Y-5.075
X6.125Y-4.675
X6.125Y-5.075
X6.275Y-4.675
X6.275Y-5.075
X6.325Y-3.6766
X6.325Y-3.775
X6.425Y-4.675
X6.425Y-5.075
X6.575Y-4.675
X6.575Y-5.075
X6.65Y-3.125
X6.65Y-3.3219
X6.65Y-3.625
X6.65Y-3.8219
X6.65Y-4.125
X6.65Y-4.3219
X6.725Y-4.675
X6.725Y-5.075
X6.875Y-4.675
X6.875Y-5.075
X6.9Y-3.075
X6.9Y-3.375
X6.9Y-3.575
X6.9Y-3.875
X6.9Y-4.075
X6.9Y-4.375
X7.0Y-3.075
X7.0Y-3.375
X7.0Y-3.575
X7.0Y-3.875
X7.0Y-4.075
X7.0Y-4.375
X7.025Y-4.675
X7.025Y-5.075
X7.1Y-3.075
X7.1Y-3.375
X7.1Y-3.575
X7.1Y-3.875
X7.1Y-4.075
X7.1Y-4.375
X7.175Y-4.675
X7.175Y-5.075
X7.2Y-3.075
X7.2Y-3.375
X7.2Y-3.575
X7.2Y-3.875
X7.2Y-4.075
X7.2Y-4.375
X7.3Y-3.075
X7.3Y-3.375
X7.3Y-3.575
X7.3Y-3.875
X7.3Y-4.075
X7.3Y-4.375
X7.325Y-4.675
X7.325Y-5.075
X7.4Y-3.075
X7.4Y-3.375
X7.4Y-3.575
X7.4Y-3.875
X7.4Y-4.075
X7.4Y-4.375
X7.475Y-4.675
X7.475Y-5.075
X7.5Y-3.075
X7.5Y-3.375
X7.5Y-3.575
X7.5Y-3.875
X7.5Y-4.075
X7.5Y-4.375
X7.625Y-4.675
X7.625Y-5.075
X7.775Y-4.675
X7.775Y-5.075
X7.925Y-4.675
X7.925Y-5.075
X8.075Y-4.675
X8.075Y-5.075
T3
X4.375Y-3.875
X4.375Y-3.975
X4.375Y-4.675
X4.375Y-4.775
X4.4Y-3.35
X4.4Y-3.45
X8.0Y-4.1
X8.0Y-4.2
T4
X4.075Y-3.275
X4.075Y-3.375
X4.075Y-3.475
T5
X3.9228Y-3.8
X3.9228Y-4.0559
X4.1Y-3.8
X4.1Y-4.0559
T0
M30
