M48
; DRILL file {KiCad (5.1.6)-1} date 10/04/20 13:29:00
; FORMAT={-:-/ absolute / metric / decimal}
; #@! TF.CreationDate,2020-10-04T13:29:00-07:00
; #@! TF.GenerationSoftware,Kicad,Pcbnew,(5.1.6)-1
; #@! TF.FileFunction,Plated,1,4,PTH
FMAT,2
METRIC
T1C0.500
T2C0.800
T3C0.900
T4C0.910
T5C1.000
%
G90
G05
T1
X211.7Y-102.87
X211.7Y-95.885
X202.565Y-88.9
X156.21Y-100.965
X202.565Y-94.615
X156.21Y-88.265
X202.565Y-99.06
T2
X197.485Y-118.745
X197.485Y-128.905
X205.105Y-118.745
X205.105Y-128.905
X182.245Y-118.745
X182.245Y-128.905
X117.475Y-101.6
X117.475Y-111.76
X140.97Y-91.52
X140.97Y-96.52
X151.765Y-118.745
X151.765Y-128.905
X121.92Y-101.6
X121.92Y-111.76
X146.05Y-105.41
X146.05Y-107.91
X155.575Y-118.745
X155.575Y-128.905
X178.435Y-118.745
X178.435Y-128.905
X159.385Y-118.745
X159.385Y-128.905
X168.91Y-79.375
X168.91Y-84.375
X144.145Y-118.745
X144.145Y-128.905
X186.055Y-118.745
X186.055Y-128.905
X127.0Y-102.87
X127.0Y-110.49
X129.54Y-102.87
X129.54Y-110.49
X132.08Y-102.87
X132.08Y-110.49
X134.62Y-102.87
X134.62Y-110.49
X144.78Y-91.52
X144.78Y-96.52
X175.26Y-78.105
X175.26Y-85.725
X177.8Y-78.105
X177.8Y-85.725
X180.34Y-78.105
X180.34Y-85.725
X182.88Y-78.105
X182.88Y-85.725
X185.42Y-78.105
X185.42Y-85.725
X187.96Y-78.105
X187.96Y-85.725
X190.5Y-78.105
X190.5Y-85.725
X174.625Y-118.745
X174.625Y-128.905
X168.91Y-92.075
X168.91Y-97.075
X140.97Y-104.14
X140.97Y-109.14
X175.26Y-90.805
X175.26Y-98.425
X177.8Y-90.805
X177.8Y-98.425
X180.34Y-90.805
X180.34Y-98.425
X182.88Y-90.805
X182.88Y-98.425
X185.42Y-90.805
X185.42Y-98.425
X187.96Y-90.805
X187.96Y-98.425
X190.5Y-90.805
X190.5Y-98.425
X168.91Y-104.775
X168.91Y-109.775
X167.005Y-118.745
X167.005Y-128.905
X193.675Y-118.745
X193.675Y-128.905
X116.84Y-116.84
X116.84Y-127.0
X175.26Y-103.505
X175.26Y-111.125
X177.8Y-103.505
X177.8Y-111.125
X180.34Y-103.505
X180.34Y-111.125
X182.88Y-103.505
X182.88Y-111.125
X185.42Y-103.505
X185.42Y-111.125
X187.96Y-103.505
X187.96Y-111.125
X190.5Y-103.505
X190.5Y-111.125
X201.295Y-118.745
X201.295Y-128.905
X140.97Y-78.74
X140.97Y-83.74
X170.815Y-118.745
X170.815Y-128.905
X117.475Y-83.185
X117.475Y-93.345
X189.865Y-118.745
X189.865Y-128.905
X147.955Y-118.745
X147.955Y-128.905
X127.0Y-77.47
X127.0Y-85.09
X129.54Y-77.47
X129.54Y-85.09
X132.08Y-77.47
X132.08Y-85.09
X134.62Y-77.47
X134.62Y-85.09
X160.655Y-93.385
X160.655Y-95.885
X127.0Y-90.17
X127.0Y-97.79
X129.54Y-90.17
X129.54Y-97.79
X132.08Y-90.17
X132.08Y-97.79
X134.62Y-90.17
X134.62Y-97.79
X102.87Y-119.38
X102.87Y-121.92
X102.87Y-124.46
X163.195Y-118.745
X163.195Y-128.905
T3
X111.125Y-98.425
X111.125Y-100.965
X111.76Y-85.09
X111.76Y-87.63
X111.125Y-118.745
X111.125Y-121.285
X201.93Y-105.41
X204.47Y-105.41
T4
X103.505Y-83.185
X103.505Y-85.725
X103.505Y-88.265
T5
X99.64Y-96.52
X99.64Y-103.02
X104.14Y-96.52
X104.14Y-103.02
T0
M30
