%FSLAX45Y45*%
G04 Gerber Fmt 4.5, Leading zero omitted, Abs format (unit mm)*
G04 Created by KiCad (PCBNEW (6.0.0)) date 2022-01-09 16:02:59*
%MOMM*%
%LPD*%
G01*
G04 APERTURE LIST*
%TA.AperFunction,Profile*%
%ADD10C,0.050000*%
%TD*%
%ADD11C,0.200000*%
G04 APERTURE END LIST*
D10*
X9207500Y-13398500D02*
X9207500Y-6985000D01*
X9207500Y-6985000D02*
X22225000Y-6985000D01*
X9207500Y-13398500D02*
X22225000Y-13398500D01*
X22225000Y-6985000D02*
X22225000Y-13398500D01*
D11*
X9462619Y-13711476D02*
X9462619Y-13511476D01*
X9510238Y-13511476D01*
X9538810Y-13521000D01*
X9557857Y-13540048D01*
X9567381Y-13559095D01*
X9576905Y-13597190D01*
X9576905Y-13625762D01*
X9567381Y-13663857D01*
X9557857Y-13682905D01*
X9538810Y-13701952D01*
X9510238Y-13711476D01*
X9462619Y-13711476D01*
X9662619Y-13711476D02*
X9662619Y-13578143D01*
X9662619Y-13616238D02*
X9672143Y-13597190D01*
X9681667Y-13587667D01*
X9700714Y-13578143D01*
X9719762Y-13578143D01*
X9786429Y-13711476D02*
X9786429Y-13578143D01*
X9786429Y-13511476D02*
X9776905Y-13521000D01*
X9786429Y-13530524D01*
X9795952Y-13521000D01*
X9786429Y-13511476D01*
X9786429Y-13530524D01*
X9910238Y-13711476D02*
X9891190Y-13701952D01*
X9881667Y-13682905D01*
X9881667Y-13511476D01*
X10015000Y-13711476D02*
X9995952Y-13701952D01*
X9986429Y-13682905D01*
X9986429Y-13511476D01*
X10243571Y-13711476D02*
X10243571Y-13511476D01*
X10310238Y-13654333D01*
X10376905Y-13511476D01*
X10376905Y-13711476D01*
X10557857Y-13711476D02*
X10557857Y-13606714D01*
X10548333Y-13587667D01*
X10529286Y-13578143D01*
X10491190Y-13578143D01*
X10472143Y-13587667D01*
X10557857Y-13701952D02*
X10538810Y-13711476D01*
X10491190Y-13711476D01*
X10472143Y-13701952D01*
X10462619Y-13682905D01*
X10462619Y-13663857D01*
X10472143Y-13644809D01*
X10491190Y-13635286D01*
X10538810Y-13635286D01*
X10557857Y-13625762D01*
X10653095Y-13578143D02*
X10653095Y-13778143D01*
X10653095Y-13587667D02*
X10672143Y-13578143D01*
X10710238Y-13578143D01*
X10729286Y-13587667D01*
X10738810Y-13597190D01*
X10748333Y-13616238D01*
X10748333Y-13673381D01*
X10738810Y-13692428D01*
X10729286Y-13701952D01*
X10710238Y-13711476D01*
X10672143Y-13711476D01*
X10653095Y-13701952D01*
X10834048Y-13692428D02*
X10843571Y-13701952D01*
X10834048Y-13711476D01*
X10824524Y-13701952D01*
X10834048Y-13692428D01*
X10834048Y-13711476D01*
X10834048Y-13587667D02*
X10843571Y-13597190D01*
X10834048Y-13606714D01*
X10824524Y-13597190D01*
X10834048Y-13587667D01*
X10834048Y-13606714D01*
M02*
