%TF.GenerationSoftware,KiCad,Pcbnew,(5.1.6)-1*%
%TF.CreationDate,2020-10-04T13:32:31-07:00*%
%TF.ProjectId,Full555Timer,46756c6c-3535-4355-9469-6d65722e6b69,rev?*%
%TF.SameCoordinates,Original*%
%TF.FileFunction,Copper,L1,Top*%
%TF.FilePolarity,Positive*%
%FSLAX46Y46*%
G04 Gerber Fmt 4.6, Leading zero omitted, Abs format (unit mm)*
G04 Created by KiCad (PCBNEW (5.1.6)-1) date 2020-10-04 13:32:31*
%MOMM*%
%LPD*%
G01*
G04 APERTURE LIST*
%TA.AperFunction,ComponentPad*%
%ADD10R,1.600000X1.600000*%
%TD*%
%TA.AperFunction,ComponentPad*%
%ADD11O,1.600000X1.600000*%
%TD*%
%TA.AperFunction,ComponentPad*%
%ADD12C,1.440000*%
%TD*%
%TA.AperFunction,ComponentPad*%
%ADD13C,1.600000*%
%TD*%
%TA.AperFunction,ComponentPad*%
%ADD14C,1.507998*%
%TD*%
%TA.AperFunction,ComponentPad*%
%ADD15C,1.800000*%
%TD*%
%TA.AperFunction,ComponentPad*%
%ADD16R,1.800000X1.800000*%
%TD*%
%TA.AperFunction,ComponentPad*%
%ADD17R,0.850000X0.850000*%
%TD*%
%TA.AperFunction,ComponentPad*%
%ADD18R,1.370000X1.370000*%
%TD*%
%TA.AperFunction,ComponentPad*%
%ADD19C,1.370000*%
%TD*%
%TA.AperFunction,Conductor*%
%ADD20C,0.250000*%
%TD*%
G04 APERTURE END LIST*
D10*
%TO.P,U6,1*%
%TO.N,Net-(U4-Pad3)*%
X175260000Y-85725000D03*
D11*
%TO.P,U6,8*%
%TO.N,Net-(U6-Pad8)*%
X190500000Y-78105000D03*
%TO.P,U6,2*%
%TO.N,Net-(U4-Pad6)*%
X177800000Y-85725000D03*
%TO.P,U6,9*%
%TO.N,Net-(R14-Pad1)*%
X187960000Y-78105000D03*
%TO.P,U6,3*%
%TO.N,Net-(U4-Pad9)*%
X180340000Y-85725000D03*
%TO.P,U6,10*%
%TO.N,Net-(R13-Pad1)*%
X185420000Y-78105000D03*
%TO.P,U6,4*%
%TO.N,Net-(R16-Pad1)*%
X182880000Y-85725000D03*
%TO.P,U6,11*%
%TO.N,Net-(U6-Pad11)*%
X182880000Y-78105000D03*
%TO.P,U6,5*%
%TO.N,Net-(R15-Pad1)*%
X185420000Y-85725000D03*
%TO.P,U6,12*%
%TO.N,Net-(R12-Pad1)*%
X180340000Y-78105000D03*
%TO.P,U6,6*%
%TO.N,Net-(U6-Pad6)*%
X187960000Y-85725000D03*
%TO.P,U6,13*%
%TO.N,Net-(R11-Pad1)*%
X177800000Y-78105000D03*
%TO.P,U6,7*%
%TO.N,GND*%
X190500000Y-85725000D03*
%TO.P,U6,14*%
%TO.N,+5V*%
X175260000Y-78105000D03*
%TD*%
D10*
%TO.P,U4,1*%
%TO.N,Net-(D1-Pad2)*%
X175260000Y-111125000D03*
D11*
%TO.P,U4,8*%
%TO.N,Net-(D4-Pad2)*%
X190500000Y-103505000D03*
%TO.P,U4,2*%
%TO.N,Net-(D3-Pad2)*%
X177800000Y-111125000D03*
%TO.P,U4,9*%
%TO.N,Net-(U4-Pad9)*%
X187960000Y-103505000D03*
%TO.P,U4,3*%
%TO.N,Net-(U4-Pad3)*%
X180340000Y-111125000D03*
%TO.P,U4,10*%
%TO.N,Net-(U4-Pad10)*%
X185420000Y-103505000D03*
%TO.P,U4,4*%
%TO.N,Net-(U4-Pad4)*%
X182880000Y-111125000D03*
%TO.P,U4,11*%
%TO.N,Net-(U4-Pad11)*%
X182880000Y-103505000D03*
%TO.P,U4,5*%
%TO.N,Net-(D2-Pad2)*%
X185420000Y-111125000D03*
%TO.P,U4,12*%
%TO.N,Net-(R21-Pad1)*%
X180340000Y-103505000D03*
%TO.P,U4,6*%
%TO.N,Net-(U4-Pad6)*%
X187960000Y-111125000D03*
%TO.P,U4,13*%
%TO.N,Net-(R20-Pad1)*%
X177800000Y-103505000D03*
%TO.P,U4,7*%
%TO.N,GND*%
X190500000Y-111125000D03*
%TO.P,U4,14*%
%TO.N,+5V*%
X175260000Y-103505000D03*
%TD*%
D12*
%TO.P,RV1,3*%
%TO.N,Net-(RV1-Pad3)*%
X102870000Y-124460000D03*
%TO.P,RV1,2*%
%TO.N,Net-(R1-Pad1)*%
X102870000Y-121920000D03*
%TO.P,RV1,1*%
%TO.N,Net-(C3-Pad1)*%
X102870000Y-119380000D03*
%TD*%
D11*
%TO.P,R1,2*%
%TO.N,Net-(R1-Pad2)*%
X121920000Y-111760000D03*
D13*
%TO.P,R1,1*%
%TO.N,Net-(R1-Pad1)*%
X121920000Y-101600000D03*
%TD*%
D11*
%TO.P,R9,2*%
%TO.N,GND*%
X117475000Y-93345000D03*
D13*
%TO.P,R9,1*%
%TO.N,Net-(D3-Pad1)*%
X117475000Y-83185000D03*
%TD*%
D14*
%TO.P,SW1,2*%
%TO.N,Net-(R3-Pad1)*%
X104140000Y-103020002D03*
%TO.P,SW1,4*%
%TO.N,N/C*%
X99639999Y-103020002D03*
%TO.P,SW1,3*%
X99639999Y-96520000D03*
%TO.P,SW1,1*%
%TO.N,GND*%
X104140000Y-96520000D03*
%TD*%
D11*
%TO.P,R21,2*%
%TO.N,+5V*%
X163195000Y-128905000D03*
D13*
%TO.P,R21,1*%
%TO.N,Net-(R21-Pad1)*%
X163195000Y-118745000D03*
%TD*%
D11*
%TO.P,R20,2*%
%TO.N,+5V*%
X167005000Y-128905000D03*
D13*
%TO.P,R20,1*%
%TO.N,Net-(R20-Pad1)*%
X167005000Y-118745000D03*
%TD*%
D11*
%TO.P,R19,2*%
%TO.N,+5V*%
X170815000Y-128905000D03*
D13*
%TO.P,R19,1*%
%TO.N,Net-(R19-Pad1)*%
X170815000Y-118745000D03*
%TD*%
D11*
%TO.P,R18,2*%
%TO.N,+5V*%
X174625000Y-128905000D03*
D13*
%TO.P,R18,1*%
%TO.N,Net-(R18-Pad1)*%
X174625000Y-118745000D03*
%TD*%
D11*
%TO.P,R17,2*%
%TO.N,+5V*%
X178435000Y-128905000D03*
D13*
%TO.P,R17,1*%
%TO.N,Net-(R17-Pad1)*%
X178435000Y-118745000D03*
%TD*%
D11*
%TO.P,R16,2*%
%TO.N,+5V*%
X182245000Y-128905000D03*
D13*
%TO.P,R16,1*%
%TO.N,Net-(R16-Pad1)*%
X182245000Y-118745000D03*
%TD*%
D11*
%TO.P,R15,2*%
%TO.N,+5V*%
X186055000Y-128905000D03*
D13*
%TO.P,R15,1*%
%TO.N,Net-(R15-Pad1)*%
X186055000Y-118745000D03*
%TD*%
D11*
%TO.P,R14,2*%
%TO.N,+5V*%
X189865000Y-128905000D03*
D13*
%TO.P,R14,1*%
%TO.N,Net-(R14-Pad1)*%
X189865000Y-118745000D03*
%TD*%
D11*
%TO.P,R13,2*%
%TO.N,+5V*%
X193675000Y-128905000D03*
D13*
%TO.P,R13,1*%
%TO.N,Net-(R13-Pad1)*%
X193675000Y-118745000D03*
%TD*%
D11*
%TO.P,R12,2*%
%TO.N,+5V*%
X197485000Y-128905000D03*
D13*
%TO.P,R12,1*%
%TO.N,Net-(R12-Pad1)*%
X197485000Y-118745000D03*
%TD*%
D11*
%TO.P,R11,2*%
%TO.N,+5V*%
X201295000Y-128905000D03*
D13*
%TO.P,R11,1*%
%TO.N,Net-(R11-Pad1)*%
X201295000Y-118745000D03*
%TD*%
%TO.P,C1,2*%
%TO.N,GND*%
X160655000Y-93385000D03*
D10*
%TO.P,C1,1*%
%TO.N,+5V*%
X160655000Y-95885000D03*
%TD*%
D13*
%TO.P,C2,2*%
%TO.N,GND*%
X140970000Y-109140000D03*
%TO.P,C2,1*%
%TO.N,Net-(C2-Pad1)*%
X140970000Y-104140000D03*
%TD*%
%TO.P,C3,2*%
%TO.N,GND*%
X146050000Y-107910000D03*
D10*
%TO.P,C3,1*%
%TO.N,Net-(C3-Pad1)*%
X146050000Y-105410000D03*
%TD*%
D13*
%TO.P,C4,1*%
%TO.N,Net-(C4-Pad1)*%
X144780000Y-96520000D03*
%TO.P,C4,2*%
%TO.N,GND*%
X144780000Y-91520000D03*
%TD*%
%TO.P,C5,1*%
%TO.N,Net-(C5-Pad1)*%
X140970000Y-96520000D03*
%TO.P,C5,2*%
%TO.N,GND*%
X140970000Y-91520000D03*
%TD*%
%TO.P,C6,2*%
%TO.N,GND*%
X140970000Y-83740000D03*
%TO.P,C6,1*%
%TO.N,Net-(C6-Pad1)*%
X140970000Y-78740000D03*
%TD*%
%TO.P,C7,1*%
%TO.N,+5V*%
X168910000Y-104775000D03*
%TO.P,C7,2*%
%TO.N,GND*%
X168910000Y-109775000D03*
%TD*%
%TO.P,C8,2*%
%TO.N,GND*%
X168910000Y-97075000D03*
%TO.P,C8,1*%
%TO.N,+5V*%
X168910000Y-92075000D03*
%TD*%
%TO.P,C9,1*%
%TO.N,+5V*%
X168910000Y-79375000D03*
%TO.P,C9,2*%
%TO.N,GND*%
X168910000Y-84375000D03*
%TD*%
D15*
%TO.P,D1,2*%
%TO.N,Net-(D1-Pad2)*%
X111125000Y-118745000D03*
D16*
%TO.P,D1,1*%
%TO.N,Net-(D1-Pad1)*%
X111125000Y-121285000D03*
%TD*%
%TO.P,D2,1*%
%TO.N,Net-(D2-Pad1)*%
X111125000Y-100965000D03*
D15*
%TO.P,D2,2*%
%TO.N,Net-(D2-Pad2)*%
X111125000Y-98425000D03*
%TD*%
%TO.P,D3,2*%
%TO.N,Net-(D3-Pad2)*%
X111760000Y-87630000D03*
D16*
%TO.P,D3,1*%
%TO.N,Net-(D3-Pad1)*%
X111760000Y-85090000D03*
%TD*%
%TO.P,D4,1*%
%TO.N,Net-(D4-Pad1)*%
X204470000Y-105410000D03*
D15*
%TO.P,D4,2*%
%TO.N,Net-(D4-Pad2)*%
X201930000Y-105410000D03*
%TD*%
D17*
%TO.P,J1,1*%
%TO.N,GND*%
X156210000Y-88265000D03*
%TD*%
%TO.P,J2,1*%
%TO.N,+5V*%
X156210000Y-100965000D03*
%TD*%
%TO.P,J3,1*%
%TO.N,Net-(J3-Pad1)*%
X202565000Y-94615000D03*
%TD*%
%TO.P,J4,1*%
%TO.N,Net-(J4-Pad1)*%
X202565000Y-88900000D03*
%TD*%
%TO.P,J5,1*%
%TO.N,Net-(D4-Pad2)*%
X202565000Y-99060000D03*
%TD*%
D13*
%TO.P,R2,1*%
%TO.N,Net-(R1-Pad2)*%
X144145000Y-118745000D03*
D11*
%TO.P,R2,2*%
%TO.N,+5V*%
X144145000Y-128905000D03*
%TD*%
%TO.P,R3,2*%
%TO.N,+5V*%
X147955000Y-128905000D03*
D13*
%TO.P,R3,1*%
%TO.N,Net-(R3-Pad1)*%
X147955000Y-118745000D03*
%TD*%
%TO.P,R4,1*%
%TO.N,Net-(C5-Pad1)*%
X151765000Y-118745000D03*
D11*
%TO.P,R4,2*%
%TO.N,+5V*%
X151765000Y-128905000D03*
%TD*%
%TO.P,R5,2*%
%TO.N,+5V*%
X155575000Y-128905000D03*
D13*
%TO.P,R5,1*%
%TO.N,Net-(R5-Pad1)*%
X155575000Y-118745000D03*
%TD*%
%TO.P,R6,1*%
%TO.N,Net-(R6-Pad1)*%
X159385000Y-118745000D03*
D11*
%TO.P,R6,2*%
%TO.N,+5V*%
X159385000Y-128905000D03*
%TD*%
%TO.P,R7,2*%
%TO.N,Net-(D1-Pad1)*%
X116840000Y-127000000D03*
D13*
%TO.P,R7,1*%
%TO.N,GND*%
X116840000Y-116840000D03*
%TD*%
%TO.P,R8,1*%
%TO.N,Net-(D2-Pad1)*%
X117475000Y-101600000D03*
D11*
%TO.P,R8,2*%
%TO.N,GND*%
X117475000Y-111760000D03*
%TD*%
D13*
%TO.P,R10,1*%
%TO.N,Net-(D4-Pad1)*%
X205105000Y-128905000D03*
D11*
%TO.P,R10,2*%
%TO.N,GND*%
X205105000Y-118745000D03*
%TD*%
D18*
%TO.P,SW2,1*%
%TO.N,Net-(R5-Pad1)*%
X103505000Y-88265000D03*
D19*
%TO.P,SW2,2*%
%TO.N,GND*%
X103505000Y-85725000D03*
%TO.P,SW2,3*%
%TO.N,Net-(R6-Pad1)*%
X103505000Y-83185000D03*
%TD*%
D11*
%TO.P,U1,8*%
%TO.N,+5V*%
X127000000Y-102870000D03*
%TO.P,U1,4*%
X134620000Y-110490000D03*
%TO.P,U1,7*%
%TO.N,Net-(R1-Pad2)*%
X129540000Y-102870000D03*
%TO.P,U1,3*%
%TO.N,Net-(D1-Pad2)*%
X132080000Y-110490000D03*
%TO.P,U1,6*%
%TO.N,Net-(C3-Pad1)*%
X132080000Y-102870000D03*
%TO.P,U1,2*%
X129540000Y-110490000D03*
%TO.P,U1,5*%
%TO.N,Net-(C2-Pad1)*%
X134620000Y-102870000D03*
D10*
%TO.P,U1,1*%
%TO.N,GND*%
X127000000Y-110490000D03*
%TD*%
%TO.P,U2,1*%
%TO.N,GND*%
X127000000Y-97790000D03*
D11*
%TO.P,U2,5*%
%TO.N,Net-(C4-Pad1)*%
X134620000Y-90170000D03*
%TO.P,U2,2*%
%TO.N,Net-(R3-Pad1)*%
X129540000Y-97790000D03*
%TO.P,U2,6*%
%TO.N,Net-(C5-Pad1)*%
X132080000Y-90170000D03*
%TO.P,U2,3*%
%TO.N,Net-(D2-Pad2)*%
X132080000Y-97790000D03*
%TO.P,U2,7*%
%TO.N,Net-(C5-Pad1)*%
X129540000Y-90170000D03*
%TO.P,U2,4*%
%TO.N,+5V*%
X134620000Y-97790000D03*
%TO.P,U2,8*%
X127000000Y-90170000D03*
%TD*%
D10*
%TO.P,U3,1*%
%TO.N,GND*%
X127000000Y-85090000D03*
D11*
%TO.P,U3,5*%
%TO.N,Net-(C6-Pad1)*%
X134620000Y-77470000D03*
%TO.P,U3,2*%
%TO.N,Net-(R5-Pad1)*%
X129540000Y-85090000D03*
%TO.P,U3,6*%
%TO.N,GND*%
X132080000Y-77470000D03*
%TO.P,U3,3*%
%TO.N,Net-(D3-Pad2)*%
X132080000Y-85090000D03*
%TO.P,U3,7*%
%TO.N,Net-(U3-Pad7)*%
X129540000Y-77470000D03*
%TO.P,U3,4*%
%TO.N,Net-(R6-Pad1)*%
X134620000Y-85090000D03*
%TO.P,U3,8*%
%TO.N,+5V*%
X127000000Y-77470000D03*
%TD*%
%TO.P,U5,14*%
%TO.N,+5V*%
X175260000Y-90805000D03*
%TO.P,U5,7*%
%TO.N,GND*%
X190500000Y-98425000D03*
%TO.P,U5,13*%
%TO.N,Net-(D4-Pad2)*%
X177800000Y-90805000D03*
%TO.P,U5,6*%
%TO.N,Net-(U5-Pad6)*%
X187960000Y-98425000D03*
%TO.P,U5,12*%
%TO.N,Net-(J4-Pad1)*%
X180340000Y-90805000D03*
%TO.P,U5,5*%
%TO.N,Net-(R18-Pad1)*%
X185420000Y-98425000D03*
%TO.P,U5,11*%
%TO.N,Net-(R17-Pad1)*%
X182880000Y-90805000D03*
%TO.P,U5,4*%
%TO.N,Net-(U5-Pad4)*%
X182880000Y-98425000D03*
%TO.P,U5,10*%
%TO.N,Net-(U5-Pad10)*%
X185420000Y-90805000D03*
%TO.P,U5,3*%
%TO.N,Net-(R19-Pad1)*%
X180340000Y-98425000D03*
%TO.P,U5,9*%
%TO.N,Net-(J3-Pad1)*%
X187960000Y-90805000D03*
%TO.P,U5,2*%
%TO.N,Net-(U4-Pad4)*%
X177800000Y-98425000D03*
%TO.P,U5,8*%
%TO.N,Net-(U4-Pad10)*%
X190500000Y-90805000D03*
D10*
%TO.P,U5,1*%
%TO.N,Net-(D3-Pad2)*%
X175260000Y-98425000D03*
%TD*%
D17*
%TO.P,J6,1*%
%TO.N,GND*%
X211699999Y-102870000D03*
%TD*%
%TO.P,J7,1*%
%TO.N,+5V*%
X211699999Y-95885000D03*
%TD*%
D20*
%TO.N,Net-(C3-Pad1)*%
X129540000Y-105410000D02*
X132080000Y-102870000D01*
X129540000Y-110490000D02*
X129540000Y-105410000D01*
X108585000Y-113665000D02*
X102870000Y-119380000D01*
X129540000Y-110490000D02*
X126365000Y-113665000D01*
X126365000Y-113665000D02*
X108585000Y-113665000D01*
%TO.N,Net-(C5-Pad1)*%
X129540000Y-90170000D02*
X132080000Y-90170000D01*
%TO.N,Net-(D2-Pad2)*%
X112885001Y-96664999D02*
X111125000Y-98425000D01*
X130954999Y-96664999D02*
X112885001Y-96664999D01*
X132080000Y-97790000D02*
X130954999Y-96664999D01*
X141074999Y-106784999D02*
X173459999Y-106784999D01*
X132080000Y-97790000D02*
X141074999Y-106784999D01*
X173459999Y-106784999D02*
X176530000Y-109855000D01*
X184294999Y-112250001D02*
X185420000Y-111125000D01*
X177259999Y-112250001D02*
X184294999Y-112250001D01*
X176530000Y-111520002D02*
X177259999Y-112250001D01*
X176530000Y-109855000D02*
X176530000Y-111520002D01*
%TO.N,Net-(D3-Pad2)*%
X129540000Y-87630000D02*
X111760000Y-87630000D01*
X132080000Y-85090000D02*
X129540000Y-87630000D01*
X177800000Y-111125000D02*
X177800000Y-105410000D01*
X176385001Y-103995001D02*
X176385001Y-99550001D01*
X176385001Y-99550001D02*
X175260000Y-98425000D01*
X177800000Y-105410000D02*
X176385001Y-103995001D01*
X161384999Y-86215001D02*
X173594998Y-98425000D01*
X173594998Y-98425000D02*
X175260000Y-98425000D01*
X133205001Y-86215001D02*
X161384999Y-86215001D01*
X132080000Y-85090000D02*
X133205001Y-86215001D01*
%TO.N,Net-(D4-Pad2)*%
X177800000Y-90805000D02*
X177800000Y-92075000D01*
X177800000Y-92075000D02*
X179070000Y-93345000D01*
X186834999Y-104045001D02*
X187419999Y-104630001D01*
X189374999Y-104630001D02*
X190500000Y-103505000D01*
X186834999Y-98174997D02*
X186834999Y-104045001D01*
X182005002Y-93345000D02*
X186834999Y-98174997D01*
X187419999Y-104630001D02*
X189374999Y-104630001D01*
X179070000Y-93345000D02*
X182005002Y-93345000D01*
X193675000Y-103505000D02*
X198120000Y-99060000D01*
X190500000Y-103505000D02*
X193675000Y-103505000D01*
X200025000Y-103505000D02*
X201930000Y-105410000D01*
X193675000Y-103505000D02*
X200025000Y-103505000D01*
X198120000Y-99060000D02*
X202565000Y-99060000D01*
%TO.N,Net-(J3-Pad1)*%
X191770000Y-94615000D02*
X187960000Y-90805000D01*
X198120000Y-94615000D02*
X191770000Y-94615000D01*
X198120000Y-94615000D02*
X202565000Y-94615000D01*
%TO.N,Net-(J4-Pad1)*%
X179070000Y-89535000D02*
X179070000Y-84455000D01*
X180340000Y-90805000D02*
X179070000Y-89535000D01*
X179705000Y-83820000D02*
X193675000Y-83820000D01*
X198755000Y-88900000D02*
X202565000Y-88900000D01*
X179070000Y-84455000D02*
X179705000Y-83820000D01*
X193675000Y-83820000D02*
X198755000Y-88900000D01*
%TO.N,Net-(R3-Pad1)*%
X128414999Y-98915001D02*
X122699999Y-98915001D01*
X129540000Y-97790000D02*
X128414999Y-98915001D01*
X118594998Y-103020002D02*
X104140000Y-103020002D01*
X122699999Y-98915001D02*
X118594998Y-103020002D01*
%TO.N,Net-(R5-Pad1)*%
X129540000Y-85090000D02*
X126365000Y-81915000D01*
X109855000Y-81915000D02*
X103505000Y-88265000D01*
X126365000Y-81915000D02*
X109855000Y-81915000D01*
%TO.N,Net-(R6-Pad1)*%
X134620000Y-85090000D02*
X130175000Y-80645000D01*
X106045000Y-80645000D02*
X103505000Y-83185000D01*
X130175000Y-80645000D02*
X106045000Y-80645000D01*
%TO.N,Net-(U4-Pad9)*%
X180340000Y-86995000D02*
X180340000Y-85725000D01*
X180975000Y-87630000D02*
X180340000Y-86995000D01*
X186690000Y-90409998D02*
X183910002Y-87630000D01*
X187960000Y-103505000D02*
X189230000Y-102235000D01*
X189230000Y-102235000D02*
X189230000Y-93345000D01*
X183910002Y-87630000D02*
X180975000Y-87630000D01*
X189230000Y-93345000D02*
X187815001Y-91930001D01*
X186690000Y-91200002D02*
X186690000Y-90409998D01*
X187815001Y-91930001D02*
X187419999Y-91930001D01*
X187419999Y-91930001D02*
X186690000Y-91200002D01*
%TO.N,Net-(U4-Pad3)*%
X174134999Y-86850001D02*
X175260000Y-85725000D01*
X174134999Y-95114997D02*
X174134999Y-86850001D01*
X180340000Y-111125000D02*
X179214999Y-109999999D01*
X179214999Y-101743589D02*
X176530000Y-99058590D01*
X179214999Y-109999999D02*
X179214999Y-101743589D01*
X176530000Y-99058590D02*
X176530000Y-97509998D01*
X176530000Y-97509998D02*
X174134999Y-95114997D01*
%TO.N,Net-(U4-Pad10)*%
X185420000Y-103505000D02*
X191135000Y-109220000D01*
X191135000Y-109220000D02*
X208280000Y-109220000D01*
X208280000Y-109220000D02*
X209550000Y-107950000D01*
X209550000Y-107950000D02*
X209550000Y-92710000D01*
X209550000Y-92710000D02*
X207645000Y-90805000D01*
X207645000Y-90805000D02*
X199390000Y-90805000D01*
X190500000Y-90805000D02*
X199390000Y-90805000D01*
X199390000Y-90805000D02*
X200025000Y-90805000D01*
%TO.N,Net-(U4-Pad4)*%
X182880000Y-111125000D02*
X181610000Y-109855000D01*
X181610000Y-102235000D02*
X177800000Y-98425000D01*
X181610000Y-109855000D02*
X181610000Y-102235000D01*
%TO.N,Net-(U4-Pad6)*%
X177800000Y-85725000D02*
X176530000Y-86995000D01*
X184294999Y-107459999D02*
X187960000Y-111125000D01*
X184294999Y-103254997D02*
X184294999Y-107459999D01*
X181754999Y-100714997D02*
X184294999Y-103254997D01*
X181754999Y-98174997D02*
X181754999Y-100714997D01*
X176530000Y-92949998D02*
X181754999Y-98174997D01*
X176530000Y-86995000D02*
X176530000Y-92949998D01*
%TO.N,Net-(D1-Pad2)*%
X111125000Y-118745000D02*
X114935000Y-114935000D01*
X114935000Y-114935000D02*
X127635000Y-114935000D01*
X127635000Y-114935000D02*
X132080000Y-110490000D01*
X174769999Y-111615001D02*
X175260000Y-111125000D01*
X133205001Y-111615001D02*
X174769999Y-111615001D01*
X132080000Y-110490000D02*
X133205001Y-111615001D01*
%TD*%
M02*
