%TF.GenerationSoftware,KiCad,Pcbnew,(5.1.6)-1*%
%TF.CreationDate,2020-10-04T13:32:31-07:00*%
%TF.ProjectId,Full555Timer,46756c6c-3535-4355-9469-6d65722e6b69,rev?*%
%TF.SameCoordinates,Original*%
%TF.FileFunction,Copper,L2,Inr*%
%TF.FilePolarity,Positive*%
%FSLAX46Y46*%
G04 Gerber Fmt 4.6, Leading zero omitted, Abs format (unit mm)*
G04 Created by KiCad (PCBNEW (5.1.6)-1) date 2020-10-04 13:32:31*
%MOMM*%
%LPD*%
G01*
G04 APERTURE LIST*
%TA.AperFunction,ViaPad*%
%ADD10R,1.600000X1.600000*%
%TD*%
%TA.AperFunction,ViaPad*%
%ADD11O,1.600000X1.600000*%
%TD*%
%TA.AperFunction,ViaPad*%
%ADD12C,1.440000*%
%TD*%
%TA.AperFunction,ViaPad*%
%ADD13C,1.600000*%
%TD*%
%TA.AperFunction,ViaPad*%
%ADD14C,1.507998*%
%TD*%
%TA.AperFunction,ViaPad*%
%ADD15C,1.800000*%
%TD*%
%TA.AperFunction,ViaPad*%
%ADD16R,1.800000X1.800000*%
%TD*%
%TA.AperFunction,ViaPad*%
%ADD17R,0.850000X0.850000*%
%TD*%
%TA.AperFunction,ViaPad*%
%ADD18R,1.370000X1.370000*%
%TD*%
%TA.AperFunction,ViaPad*%
%ADD19C,1.370000*%
%TD*%
%TA.AperFunction,Conductor*%
%ADD20C,0.640000*%
%TD*%
G04 APERTURE END LIST*
D10*
%TO.N,Net-(U4-Pad3)*%
%TO.C,U6*%
X175260000Y-85725000D03*
D11*
%TO.N,Net-(U6-Pad8)*%
X190500000Y-78105000D03*
%TO.N,Net-(U4-Pad6)*%
X177800000Y-85725000D03*
%TO.N,Net-(R14-Pad1)*%
X187960000Y-78105000D03*
%TO.N,Net-(U4-Pad9)*%
X180340000Y-85725000D03*
%TO.N,Net-(R13-Pad1)*%
X185420000Y-78105000D03*
%TO.N,Net-(R16-Pad1)*%
X182880000Y-85725000D03*
%TO.N,Net-(U6-Pad11)*%
X182880000Y-78105000D03*
%TO.N,Net-(R15-Pad1)*%
X185420000Y-85725000D03*
%TO.N,Net-(R12-Pad1)*%
X180340000Y-78105000D03*
%TO.N,Net-(U6-Pad6)*%
X187960000Y-85725000D03*
%TO.N,Net-(R11-Pad1)*%
X177800000Y-78105000D03*
%TO.N,GND*%
X190500000Y-85725000D03*
%TO.N,+5V*%
X175260000Y-78105000D03*
%TD*%
D10*
%TO.N,Net-(D1-Pad2)*%
%TO.C,U4*%
X175260000Y-111125000D03*
D11*
%TO.N,Net-(D4-Pad2)*%
X190500000Y-103505000D03*
%TO.N,Net-(D3-Pad2)*%
X177800000Y-111125000D03*
%TO.N,Net-(U4-Pad9)*%
X187960000Y-103505000D03*
%TO.N,Net-(U4-Pad3)*%
X180340000Y-111125000D03*
%TO.N,Net-(U4-Pad10)*%
X185420000Y-103505000D03*
%TO.N,Net-(U4-Pad4)*%
X182880000Y-111125000D03*
%TO.N,Net-(U4-Pad11)*%
X182880000Y-103505000D03*
%TO.N,Net-(D2-Pad2)*%
X185420000Y-111125000D03*
%TO.N,Net-(R21-Pad1)*%
X180340000Y-103505000D03*
%TO.N,Net-(U4-Pad6)*%
X187960000Y-111125000D03*
%TO.N,Net-(R20-Pad1)*%
X177800000Y-103505000D03*
%TO.N,GND*%
X190500000Y-111125000D03*
%TO.N,+5V*%
X175260000Y-103505000D03*
%TD*%
D12*
%TO.N,Net-(RV1-Pad3)*%
%TO.C,RV1*%
X102870000Y-124460000D03*
%TO.N,Net-(R1-Pad1)*%
X102870000Y-121920000D03*
%TO.N,Net-(C3-Pad1)*%
X102870000Y-119380000D03*
%TD*%
D11*
%TO.N,Net-(R1-Pad2)*%
%TO.C,R1*%
X121920000Y-111760000D03*
D13*
%TO.N,Net-(R1-Pad1)*%
X121920000Y-101600000D03*
%TD*%
D11*
%TO.N,GND*%
%TO.C,R9*%
X117475000Y-93345000D03*
D13*
%TO.N,Net-(D3-Pad1)*%
X117475000Y-83185000D03*
%TD*%
D14*
%TO.N,Net-(R3-Pad1)*%
%TO.C,SW1*%
X104140000Y-103020002D03*
%TO.N,N/C*%
X99639999Y-103020002D03*
X99639999Y-96520000D03*
%TO.N,GND*%
X104140000Y-96520000D03*
%TD*%
D11*
%TO.N,+5V*%
%TO.C,R21*%
X163195000Y-128905000D03*
D13*
%TO.N,Net-(R21-Pad1)*%
X163195000Y-118745000D03*
%TD*%
D11*
%TO.N,+5V*%
%TO.C,R20*%
X167005000Y-128905000D03*
D13*
%TO.N,Net-(R20-Pad1)*%
X167005000Y-118745000D03*
%TD*%
D11*
%TO.N,+5V*%
%TO.C,R19*%
X170815000Y-128905000D03*
D13*
%TO.N,Net-(R19-Pad1)*%
X170815000Y-118745000D03*
%TD*%
D11*
%TO.N,+5V*%
%TO.C,R18*%
X174625000Y-128905000D03*
D13*
%TO.N,Net-(R18-Pad1)*%
X174625000Y-118745000D03*
%TD*%
D11*
%TO.N,+5V*%
%TO.C,R17*%
X178435000Y-128905000D03*
D13*
%TO.N,Net-(R17-Pad1)*%
X178435000Y-118745000D03*
%TD*%
D11*
%TO.N,+5V*%
%TO.C,R16*%
X182245000Y-128905000D03*
D13*
%TO.N,Net-(R16-Pad1)*%
X182245000Y-118745000D03*
%TD*%
D11*
%TO.N,+5V*%
%TO.C,R15*%
X186055000Y-128905000D03*
D13*
%TO.N,Net-(R15-Pad1)*%
X186055000Y-118745000D03*
%TD*%
D11*
%TO.N,+5V*%
%TO.C,R14*%
X189865000Y-128905000D03*
D13*
%TO.N,Net-(R14-Pad1)*%
X189865000Y-118745000D03*
%TD*%
D11*
%TO.N,+5V*%
%TO.C,R13*%
X193675000Y-128905000D03*
D13*
%TO.N,Net-(R13-Pad1)*%
X193675000Y-118745000D03*
%TD*%
D11*
%TO.N,+5V*%
%TO.C,R12*%
X197485000Y-128905000D03*
D13*
%TO.N,Net-(R12-Pad1)*%
X197485000Y-118745000D03*
%TD*%
D11*
%TO.N,+5V*%
%TO.C,R11*%
X201295000Y-128905000D03*
D13*
%TO.N,Net-(R11-Pad1)*%
X201295000Y-118745000D03*
%TD*%
%TO.N,GND*%
%TO.C,C1*%
X160655000Y-93385000D03*
D10*
%TO.N,+5V*%
X160655000Y-95885000D03*
%TD*%
D13*
%TO.N,GND*%
%TO.C,C2*%
X140970000Y-109140000D03*
%TO.N,Net-(C2-Pad1)*%
X140970000Y-104140000D03*
%TD*%
%TO.N,GND*%
%TO.C,C3*%
X146050000Y-107910000D03*
D10*
%TO.N,Net-(C3-Pad1)*%
X146050000Y-105410000D03*
%TD*%
D13*
%TO.N,Net-(C4-Pad1)*%
%TO.C,C4*%
X144780000Y-96520000D03*
%TO.N,GND*%
X144780000Y-91520000D03*
%TD*%
%TO.N,Net-(C5-Pad1)*%
%TO.C,C5*%
X140970000Y-96520000D03*
%TO.N,GND*%
X140970000Y-91520000D03*
%TD*%
%TO.N,GND*%
%TO.C,C6*%
X140970000Y-83740000D03*
%TO.N,Net-(C6-Pad1)*%
X140970000Y-78740000D03*
%TD*%
%TO.N,+5V*%
%TO.C,C7*%
X168910000Y-104775000D03*
%TO.N,GND*%
X168910000Y-109775000D03*
%TD*%
%TO.N,GND*%
%TO.C,C8*%
X168910000Y-97075000D03*
%TO.N,+5V*%
X168910000Y-92075000D03*
%TD*%
%TO.N,+5V*%
%TO.C,C9*%
X168910000Y-79375000D03*
%TO.N,GND*%
X168910000Y-84375000D03*
%TD*%
D15*
%TO.N,Net-(D1-Pad2)*%
%TO.C,D1*%
X111125000Y-118745000D03*
D16*
%TO.N,Net-(D1-Pad1)*%
X111125000Y-121285000D03*
%TD*%
%TO.N,Net-(D2-Pad1)*%
%TO.C,D2*%
X111125000Y-100965000D03*
D15*
%TO.N,Net-(D2-Pad2)*%
X111125000Y-98425000D03*
%TD*%
%TO.N,Net-(D3-Pad2)*%
%TO.C,D3*%
X111760000Y-87630000D03*
D16*
%TO.N,Net-(D3-Pad1)*%
X111760000Y-85090000D03*
%TD*%
%TO.N,Net-(D4-Pad1)*%
%TO.C,D4*%
X204470000Y-105410000D03*
D15*
%TO.N,Net-(D4-Pad2)*%
X201930000Y-105410000D03*
%TD*%
D17*
%TO.N,GND*%
%TO.C,J1*%
X156210000Y-88265000D03*
%TD*%
%TO.N,+5V*%
%TO.C,J2*%
X156210000Y-100965000D03*
%TD*%
%TO.N,Net-(J3-Pad1)*%
%TO.C,J3*%
X202565000Y-94615000D03*
%TD*%
%TO.N,Net-(J4-Pad1)*%
%TO.C,J4*%
X202565000Y-88900000D03*
%TD*%
%TO.N,Net-(D4-Pad2)*%
%TO.C,J5*%
X202565000Y-99060000D03*
%TD*%
D13*
%TO.N,Net-(R1-Pad2)*%
%TO.C,R2*%
X144145000Y-118745000D03*
D11*
%TO.N,+5V*%
X144145000Y-128905000D03*
%TD*%
%TO.N,+5V*%
%TO.C,R3*%
X147955000Y-128905000D03*
D13*
%TO.N,Net-(R3-Pad1)*%
X147955000Y-118745000D03*
%TD*%
%TO.N,Net-(C5-Pad1)*%
%TO.C,R4*%
X151765000Y-118745000D03*
D11*
%TO.N,+5V*%
X151765000Y-128905000D03*
%TD*%
%TO.N,+5V*%
%TO.C,R5*%
X155575000Y-128905000D03*
D13*
%TO.N,Net-(R5-Pad1)*%
X155575000Y-118745000D03*
%TD*%
%TO.N,Net-(R6-Pad1)*%
%TO.C,R6*%
X159385000Y-118745000D03*
D11*
%TO.N,+5V*%
X159385000Y-128905000D03*
%TD*%
%TO.N,Net-(D1-Pad1)*%
%TO.C,R7*%
X116840000Y-127000000D03*
D13*
%TO.N,GND*%
X116840000Y-116840000D03*
%TD*%
%TO.N,Net-(D2-Pad1)*%
%TO.C,R8*%
X117475000Y-101600000D03*
D11*
%TO.N,GND*%
X117475000Y-111760000D03*
%TD*%
D13*
%TO.N,Net-(D4-Pad1)*%
%TO.C,R10*%
X205105000Y-128905000D03*
D11*
%TO.N,GND*%
X205105000Y-118745000D03*
%TD*%
D18*
%TO.N,Net-(R5-Pad1)*%
%TO.C,SW2*%
X103505000Y-88265000D03*
D19*
%TO.N,GND*%
X103505000Y-85725000D03*
%TO.N,Net-(R6-Pad1)*%
X103505000Y-83185000D03*
%TD*%
D11*
%TO.N,+5V*%
%TO.C,U1*%
X127000000Y-102870000D03*
X134620000Y-110490000D03*
%TO.N,Net-(R1-Pad2)*%
X129540000Y-102870000D03*
%TO.N,Net-(D1-Pad2)*%
X132080000Y-110490000D03*
%TO.N,Net-(C3-Pad1)*%
X132080000Y-102870000D03*
X129540000Y-110490000D03*
%TO.N,Net-(C2-Pad1)*%
X134620000Y-102870000D03*
D10*
%TO.N,GND*%
X127000000Y-110490000D03*
%TD*%
%TO.N,GND*%
%TO.C,U2*%
X127000000Y-97790000D03*
D11*
%TO.N,Net-(C4-Pad1)*%
X134620000Y-90170000D03*
%TO.N,Net-(R3-Pad1)*%
X129540000Y-97790000D03*
%TO.N,Net-(C5-Pad1)*%
X132080000Y-90170000D03*
%TO.N,Net-(D2-Pad2)*%
X132080000Y-97790000D03*
%TO.N,Net-(C5-Pad1)*%
X129540000Y-90170000D03*
%TO.N,+5V*%
X134620000Y-97790000D03*
X127000000Y-90170000D03*
%TD*%
D10*
%TO.N,GND*%
%TO.C,U3*%
X127000000Y-85090000D03*
D11*
%TO.N,Net-(C6-Pad1)*%
X134620000Y-77470000D03*
%TO.N,Net-(R5-Pad1)*%
X129540000Y-85090000D03*
%TO.N,GND*%
X132080000Y-77470000D03*
%TO.N,Net-(D3-Pad2)*%
X132080000Y-85090000D03*
%TO.N,Net-(U3-Pad7)*%
X129540000Y-77470000D03*
%TO.N,Net-(R6-Pad1)*%
X134620000Y-85090000D03*
%TO.N,+5V*%
X127000000Y-77470000D03*
%TD*%
%TO.N,+5V*%
%TO.C,U5*%
X175260000Y-90805000D03*
%TO.N,GND*%
X190500000Y-98425000D03*
%TO.N,Net-(D4-Pad2)*%
X177800000Y-90805000D03*
%TO.N,Net-(U5-Pad6)*%
X187960000Y-98425000D03*
%TO.N,Net-(J4-Pad1)*%
X180340000Y-90805000D03*
%TO.N,Net-(R18-Pad1)*%
X185420000Y-98425000D03*
%TO.N,Net-(R17-Pad1)*%
X182880000Y-90805000D03*
%TO.N,Net-(U5-Pad4)*%
X182880000Y-98425000D03*
%TO.N,Net-(U5-Pad10)*%
X185420000Y-90805000D03*
%TO.N,Net-(R19-Pad1)*%
X180340000Y-98425000D03*
%TO.N,Net-(J3-Pad1)*%
X187960000Y-90805000D03*
%TO.N,Net-(U4-Pad4)*%
X177800000Y-98425000D03*
%TO.N,Net-(U4-Pad10)*%
X190500000Y-90805000D03*
D10*
%TO.N,Net-(D3-Pad2)*%
X175260000Y-98425000D03*
%TD*%
D17*
%TO.N,GND*%
%TO.C,J6*%
X211699999Y-102870000D03*
%TD*%
%TO.N,+5V*%
%TO.C,J7*%
X211699999Y-95885000D03*
%TD*%
D20*
%TO.N,+5V*%
X142240000Y-128905000D02*
X201295000Y-128905000D01*
X160655000Y-109220000D02*
X153670000Y-116205000D01*
X142240000Y-116205000D02*
X141605000Y-116840000D01*
X141605000Y-128270000D02*
X142240000Y-128905000D01*
X153670000Y-116205000D02*
X142240000Y-116205000D01*
X141605000Y-116840000D02*
X141605000Y-128270000D01*
X160655000Y-95885000D02*
X160655000Y-96520000D01*
X129540000Y-100330000D02*
X127000000Y-102870000D01*
X137160000Y-100330000D02*
X134620000Y-97790000D01*
X137795000Y-100330000D02*
X129540000Y-100330000D01*
X137795000Y-100330000D02*
X137160000Y-100330000D01*
X140335000Y-100330000D02*
X137795000Y-100330000D01*
X140335000Y-100330000D02*
X139700000Y-100330000D01*
X139700000Y-100330000D02*
X137795000Y-102235000D01*
X137795000Y-107315000D02*
X134620000Y-110490000D01*
X137795000Y-102235000D02*
X137795000Y-107315000D01*
X156210000Y-100330000D02*
X156210000Y-100965000D01*
X160655000Y-95885000D02*
X156210000Y-100330000D01*
X157480000Y-95885000D02*
X160655000Y-95885000D01*
X140335000Y-100330000D02*
X153035000Y-100330000D01*
X153035000Y-100330000D02*
X157480000Y-95885000D01*
X156210000Y-95885000D02*
X157480000Y-95885000D01*
X147955000Y-87630000D02*
X156210000Y-95885000D01*
X127000000Y-90170000D02*
X129540000Y-87630000D01*
X129540000Y-87630000D02*
X147955000Y-87630000D01*
X153035000Y-88265000D02*
X160655000Y-95885000D01*
X127000000Y-77470000D02*
X127000000Y-76200000D01*
X160655000Y-109220000D02*
X160655000Y-95885000D01*
X173990000Y-104775000D02*
X175260000Y-103505000D01*
X168910000Y-104775000D02*
X173990000Y-104775000D01*
X173990000Y-92075000D02*
X175260000Y-90805000D01*
X168910000Y-92075000D02*
X173990000Y-92075000D01*
X173990000Y-79375000D02*
X175260000Y-78105000D01*
X168910000Y-79375000D02*
X173990000Y-79375000D01*
X168910000Y-79375000D02*
X167005000Y-79375000D01*
X167005000Y-79375000D02*
X163195000Y-83185000D01*
X163195000Y-93345000D02*
X160655000Y-95885000D01*
X163195000Y-83185000D02*
X163195000Y-93345000D01*
X168910000Y-92075000D02*
X165735000Y-92075000D01*
X165735000Y-92075000D02*
X164465000Y-93345000D01*
X164465000Y-93345000D02*
X164465000Y-94615000D01*
X163195000Y-95885000D02*
X160655000Y-95885000D01*
X164465000Y-94615000D02*
X163195000Y-95885000D01*
X168910000Y-104775000D02*
X167005000Y-104775000D01*
X167005000Y-104775000D02*
X161925000Y-99695000D01*
X161925000Y-97155000D02*
X160655000Y-95885000D01*
X161925000Y-99695000D02*
X161925000Y-97155000D01*
X211064999Y-96520000D02*
X211699999Y-95885000D01*
X163165001Y-98395001D02*
X170209999Y-98395001D01*
X170209999Y-98395001D02*
X173355000Y-95250000D01*
X196850000Y-96520000D02*
X211064999Y-96520000D01*
X160655000Y-95885000D02*
X163165001Y-98395001D01*
X173355000Y-95250000D02*
X195580000Y-95250000D01*
X195580000Y-95250000D02*
X196850000Y-96520000D01*
X127000000Y-76200000D02*
X127635000Y-75565000D01*
X127635000Y-75565000D02*
X141605000Y-75565000D01*
X141605000Y-75565000D02*
X143510000Y-77470000D01*
X143510000Y-77470000D02*
X143510000Y-81280000D01*
X143510000Y-81280000D02*
X147955000Y-85725000D01*
X150495000Y-85725000D02*
X153035000Y-88265000D01*
X147955000Y-85725000D02*
X150495000Y-85725000D01*
%TD*%
M02*
